<?xml version='1.0' encoding='utf-8'?>
<svg xmlns="http://www.w3.org/2000/svg" width="249.15" height="294.81" version="1.1" viewBox="0 0 249.14973 294.8056">
 <defs>
  <filter id="c" x="-.30378" y="-.19836" width="1.6076" height="1.3967" color-interpolation-filters="sRGB">
   <feGaussianBlur stdDeviation="13.577852"/>
  </filter>
  <filter id="d" x="-.33207" y="-.1879" width="1.6641" height="1.3758" color-interpolation-filters="sRGB">
   <feGaussianBlur stdDeviation="12.488852"/>
  </filter>
 </defs>
 <g transform="matrix(.61425 0 0 .61425 208.4 84.105)">
  <g transform="matrix(.73742 0 0 .73742 -35.832 27.058)">
   <g transform="matrix(.50751 0 0 .50751 -451.17 -150.74)" stroke="#000">
    <path d="m585.13 890.69c106.56-105.01-113.42-286.08 27.22-382.19l68.236 7.0711 32.88 68.589-17.678 85.913-24.749 66.468-8.4853 32.527c-17.355 83.517-55.629 106.81-77.428 121.62z" stroke-linecap="round" stroke-linejoin="round" stroke-width="25"/>
    <path d="m574.17 524.41c-33.208 18.31-29.837 43.188-6.5607 69.029-15.978 22.917-29.154 42.115 4.8284 66.882-33.318 20.506-11.45 43.487 3.247 63.993 44.269-9.518 100.04 6.408 123.64-65.554 10.283-44.083 24.791-127.94-26.87-92.631l-45.255-41.719c-15.252-15.276-34.091-10.079-53.033 0z" stroke-width="25"/>
    <path d="m1149.5 1103.2c-35.264-11.081-103.84-25.928-154.93-17.461-134.17 22.239-230.93 18.135-369.77-19.455-57.913-15.68-122.85 10.767-184.54 14.271-183.34 6.6463-140.62-101.32-85.545-164.82 74.938-86.402 247.9-34.994 98.227 59.745 88.443-65.821-17.927-131.66-77.287-4.7632-8.33 68.527 47.375 54.269 86.374 38.898 110.69-54.77 133.44-77.4 195.12-133.4 84.07-84.34 113.61-234.19 153.42-355.38-57.74 57.7-105.12 147.34-148.43 249.52 2.06-88.02 101.42-180.88-49.37-261.32 58.77-35.54 142.52-26.93 179.8-91.94 17.13-48.78-0.53-104.18-33.96-162.59-45.41-86.54-110.52-282.57 137.68-264.94 2.0384 0.334 141.91-9.2195 207.88 73.823 33.579 30.078 17.457 95.018 5.4348 144.93-17.278 61.588-52.445 108.27-83.333 158.51 54.276 78.665 118.05 141.01 100.09 240.49-16.071 54.609-46.016 107.68-83.786 159.87 27.002 84.289 3.612 202.78 106.88 336.05z" stroke-linecap="round" stroke-linejoin="round" stroke-width="25"/>
    <path d="m913.04 513.55c56.472-88.304 122.97-166.13 162.14-271.74 20.326-52.296 47.616-97.456 17.663-163.04-29.4-43.988-78.1-67.671-198.32-11.778-105.19 43.178-96.25 161.24-69.73 229.17l88.292 217.39z" stroke-width="25"/>
    <path d="m1026.7 366.36-100.78 135.56" stroke-linecap="round" stroke-linejoin="round" stroke-width="25"/>
    <path d="m927.54 97.336c-14.736 26.801-16.215 93.085 22.192 74.728 16.279-15.408 33.834-14.611 38.044 8.6051-0.0349 28.591 2.3956 45.28-22.192 74.728-11.899 9.0366-39.352 9.5231-57.971-7.2464-47.907-57.966-26.508-134.86 19.928-150.82z" stroke-linecap="round" stroke-linejoin="round" stroke-width="25"/>
    <path d="m927.54 97.336c-14.736 26.801-16.215 93.085 22.192 74.728 16.279-15.408 33.834-14.611 38.044 8.6051-0.0349 28.591 2.3956 45.28-22.192 74.728-11.899 9.0366-39.352 9.5231-57.971-7.2464-47.907-57.966-26.508-134.86 19.928-150.82z" filter="url(#c)" stroke-linecap="round" stroke-linejoin="round" stroke-width="25"/>
    <path d="m1061.6 94.056c13.293 23.681-0.8852 87.535-35.531 71.316-14.685-13.615-23.582 15.005-23.297 16.288 0.032 25.262-6.6506 42.862 15.529 68.882 10.734 7.9845 23.66-0.7201 40.456-15.537 43.216-51.217 44.731-126.85 2.8429-140.95z" stroke-linecap="round" stroke-linejoin="round" stroke-width="25"/>
    <path d="m1061.6 94.056c13.293 23.681-0.8852 87.535-35.531 71.316-14.685-13.615-23.582 15.005-23.297 16.288 0.032 25.262-6.6506 42.862 15.529 68.882 10.734 7.9845 23.66-0.7201 40.456-15.537 43.216-51.217 44.731-126.85 2.8429-140.95z" filter="url(#d)" stroke-linecap="round" stroke-linejoin="round" stroke-width="25"/>
    <path d="m913.83 512.27c37.745 78.311 0.44735 182.69 1.027 273.02" stroke-linecap="round" stroke-width="25"/>
    <path d="m894.02 547.52c0.14-81.83-88.91-202.16-101.45-292.58" stroke-linecap="round" stroke-width="25"/>
    <path d="m1011.8 459.66c4.073 21.764 3.3271 42.724 3.6232 63.859 8.9171 21.284 9.9241 44.007 11.775 66.576-8.7106 31.488-56.693 28.499-62.5 55.254" stroke-linecap="round" stroke-width="25"/>
    <path d="m995.02 734.56c2.2264 99.283-102.88 222.13-27.627 269.02-19.709-4.7243-52.579-13.869-58.877-83.333-7.9987-85.314 15.553-178.96 25.815-268.57 25.657 2.6606 62.968-48.29 60.688 82.881z" stroke-linecap="round" stroke-linejoin="round" stroke-width="25"/>
    <path d="m1025.7 369.91c169.98 199.52 98.067 273.4 12.806 400.14-27.361 50.306-56.616 73.127-90.235 142.92 76.859-191.72 255.46-265.09 77.428-543.06z" opacity=".45" stroke-width="25"/>
    <path d="m1042.1 767.63c-24.8 49.71-85.42 106.97-100.52 167.12" stroke-width="25"/>
    <path d="m697.91 102.27-6.364 53.74c-145.79 170.29-168.52 755.07 54.447 972.27 59.449 4.5313 61.248-23.605 65.761-50.205-162.22-94.68-302.62-673.09-65.76-924.22l79.903-53.033-127.99 1.4142z" stroke-width="25"/>
    <path d="m737.06 146.11c-253.83 277.8-78.344 882.17 68.574 956.7 4.9184-8.9927 4.2987-13.99 6.1219-24.737-162.22-94.68-302.62-673.09-65.76-924.22l79.903-53.033-9.7227 2.2102-79.115 43.045z" opacity=".45" stroke-width="25"/>
    <path d="m697.91 102.27-6.364 53.74c-145.79 170.29-168.52 755.07 54.447 972.27 6.4798 0.4939 12.275 0.5997 17.463 0.3617-198.42-221.38-249.88-823.91-11.56-1022.2l-53.986-4.0858z" opacity=".45" stroke-width="25"/>
    <path d="m94.665 622c94.465-338.21 398.72-821.44 987.04-742-176.51-0.19-270.71 76.125-229.03 239-401.75-79.482-697.14 373.34-758 503z" stroke-width="25"/>
    <path d="m697.91 102.27-6.364 53.74c-145.79 170.29-168.52 755.07 54.447 972.27 59.449 4.5313 61.248-23.605 65.761-50.205-162.22-94.68-302.62-673.09-65.76-924.22l79.903-53.033-127.99 1.4142z" stroke-linecap="round" stroke-linejoin="round" stroke-width="25"/>
    <path d="m94.665 622c22.575-80.83 57.135-169.95 104.7-257.69 73.16-127.18 327.45-360.67 646.48-350.28-5.47 29.815-3.46 64.754 6.83 104.97-401.75-79.482-697.14 373.34-758 503z" stroke-width="25"/>
    <path d="m1014.1 506.68c-12.045-6.6866-17.779-16.979-25.542-26.113" stroke-linecap="round" stroke-width="25"/>
    <path d="m824.49 487.64c-0.94022 13.516-8.2607 22.475-13.471 32.941-0.89258-9.0643 2.7164-17.628-3.5-27.284" stroke-linecap="round" stroke-width="25"/>
    <path d="m94.665 622c94.465-338.21 398.72-821.44 987.04-742-176.51-0.19-270.71 76.125-229.03 239-401.75-79.482-697.14 373.34-758 503z" stroke-linecap="round" stroke-linejoin="round" stroke-width="25"/>
    <path d="m676.26 552.49c0 23.236-11.058 34.295-34.295 34.295-23.236 0-43.487 3.7908-43.487-19.445s12.473-54.801 35.709-54.801 42.073 16.715 42.073 39.952z" stroke-width="25"/>
    <rect x="544.78" y="593.31" width="128.07" height="67.262" ry="33.631" stroke-width="25"/>
    <rect x="548.92" y="659.67" width="113.44" height="65.358" ry="32.679" stroke-width="25"/>
    <g stroke-width="25">
     <rect x="544.78" y="528.25" width="128.07" height="67.262" ry="33.631"/>
     <path d="m623.31 528.3c4.6452 18.624 14.595 35.424 2.1213 65.761" stroke-linecap="round" stroke-linejoin="round"/>
    </g>
    <path d="m625.44 593.7c4.6452 18.624 14.595 35.424 2.1213 65.761" stroke-linecap="round" stroke-linejoin="round" stroke-width="25"/>
    <path d="m620.49 660.53c4.6452 18.624 14.595 35.424 2.1213 65.761" stroke-linecap="round" stroke-linejoin="round" stroke-width="25"/>
    <g transform="matrix(1 0 0 .88704 0 71.356)" stroke-width="26.544">
     <path d="m972.98 644.26c-31.604-18.993-56.774-9.8255-90.51 0l-11.314 37.83c19.363 54.585-4.7672 95.252 2.1213 143.54 14.716-0.31378-2.3331 18.162 38.184 16.971 26.286-3.1899 53.77 12.491 77.332-37.62 8.445-27.315 19.429-161.97-15.814-160.72z"/>
     <g transform="matrix(-.99999 .004835 -.004835 -.99999 1525.2 1236.8)">
      <path d="m578.41 528.25c20.289-3.809 40.563-4.6583 60.811 0 18.632 0 33.631 15 33.631 33.631 0 18.632-15 33.631-33.631 33.631-19.684-3.4989-47.436-9.5752-60.801-2.1213" stroke="#000" stroke-width="26.544"/>
     </g>
     <g transform="matrix(-.99999 .004835 -.004835 -.99999 1529.3 1302.8)">
      <path d="m583.36 527.92c19.595-1.4089 35.322-5.5723 60.811 0 18.632 0 33.631 15 33.631 33.631 0 18.632-15 33.631-33.631 33.631-20.252-3.8292-40.518-4.6397-60.811 0" stroke="#000" stroke-width="26.544"/>
     </g>
     <path d="m932.26 842.32h-48.083c-18.104 0-32.679-14.575-32.679-32.679s14.575-32.679 32.679-32.679c17.501 4.7144 34.22 3.8257 49.851 1.0607"/>
    </g>
   </g>
   <path transform="matrix(1.628 0 0 1.628 -411.48 -222.37)" d="m158.03 321.67c33.216-32.748-35.358-89.195 8.4856-119.15l21.272 2.2044 10.25 21.382-5.5109 26.783-7.7152 20.721-2.6452 10.14c-5.4102 26.036-17.342 33.297-24.137 37.914z" fill="#171717" stroke="#000" stroke-linecap="round" stroke-linejoin="round" stroke-width="1.0911"/>
   <path transform="matrix(1.628 0 0 1.628 -411.48 -222.37)" d="m154.62 207.48c-10.352 5.708-9.3014 13.463-2.0452 21.519-4.981 7.1441-9.0885 13.129 1.5052 20.85-10.387 6.3925-3.5694 13.557 1.0122 19.949 13.8-2.9671 31.186 1.9976 38.544-20.436 3.2056-13.742 7.7284-39.884-8.3764-28.877l-14.108-13.005c-4.7547-4.7621-10.628-3.142-16.532 0z" fill="#a7a08c" stroke="#000" stroke-width="1.0911"/>
   <path transform="matrix(1.628 0 0 1.628 -411.48 -222.37)" d="m333.97 387.92c-10.993-3.4544-32.371-8.0828-48.298-5.4433-41.826 6.9328-71.99 5.6534-115.27-6.0649-18.054-4.8881-38.297 3.3565-57.528 4.4488-57.154 2.0719-43.837-31.585-26.668-51.381 23.361-26.935 77.28-10.909 30.621 18.625 27.571-20.519-5.5886-41.044-24.093-1.4849-2.5968 21.363 14.769 16.918 26.926 12.126 34.506-17.083 41.599-24.129 60.827-41.592 26.208-26.292 35.417-73.006 47.827-110.79-18 17.987-32.77 45.929-46.272 77.785 0.64218-27.442 31.617-56.388-15.391-81.464 18.321-11.079 44.429-8.3983 56.051-28.661 5.337-15.207-0.16522-32.477-10.59-50.686-14.156-26.981-34.45-88.088 42.92-82.596 0.63545 0.10412 44.239-2.8741 64.805 23.014 10.468 9.3765 5.442 29.621 1.6942 45.18-5.3862 19.199-16.349 33.752-25.978 49.414 16.92 24.523 36.801 43.958 31.202 74.97-5.01 17.024-14.345 33.568-26.119 49.838 8.4176 26.276 1.126 63.215 33.319 104.76z" fill="#525252" stroke="#000" stroke-linecap="round" stroke-linejoin="round" stroke-width="1.0911"/>
   <path transform="matrix(1.628 0 0 1.628 -411.48 -222.37)" d="m226.11 180.35c-17.816 25.687-50.309 20.792-46.63 30.51-2.8552-2.2043-9.0663-4.9249-12.828-8.1772 18.319-11.08 44.429-8.3967 56.051-28.661 5.3379-15.206-0.16657-32.477-10.589-50.686-7.71-14.694-17.241-39.513-11.823-58.18 21.649-44.847-3.7945 12.472 5.3666 20.113 2.8747 23.13 35.682 73.502 20.451 95.081z" opacity=".45" stroke="#000" stroke-linecap="round" stroke-linejoin="round" stroke-width="1.0911"/>
   <path transform="matrix(1.628 0 0 1.628 -411.48 -222.37)" d="m110.05 369.34c-27.073 2.5395-29.479-19.04-14.978-36.573 20.951-25.33 53.432-7.4799 21.737 15.352 27.571-20.519-5.5886-41.044-24.093-1.4849-2.5968 21.363 14.769 16.918 26.926 12.126 34.522-17.087 41.611-24.141 60.839-41.599 26.208-26.291 35.729-74.097 48.139-111.88 0.0258 82.449-41.424 145.36-118.57 164.06z" opacity=".45"/>
   <path transform="matrix(1.628 0 0 1.628 -411.48 -222.37)" d="m299.77 280.11c5.9006 20.67 4.298 37.586 11.821 64.25 5.5502 19.671 14.442 36.152 21.685 43.213-7.5653-1.9226-13.717-3.9762-20.054-4.8846-15.612-38.746-11.937-70.88-13.452-102.58z" fill="#fff" opacity=".45"/>
   <path transform="matrix(1.628 0 0 1.628 -411.48 -222.37)" d="m246.21 171.5c6.6843 25.389 21.078 44.735 13.717 74.194 1.6284-1.9218 3.3733 2.5833 3.7658 0.12548 4.0925-25.63 1.3772-35.813-17.482-74.319z" fill="#fff" opacity=".45"/>
   <path transform="matrix(1.628 0 0 1.628 -411.48 -222.37)" d="m260.26 204.09c17.604-27.53 38.332-51.789 50.552-84.712 6.3364-16.303 14.844-30.381 5.5063-50.826-9.1652-13.712-24.357-21.095-61.84-3.6707-32.792 13.46-30.003 50.265-21.735 71.441l27.524 67.769z" fill="#171717" stroke="#000" stroke-width="1.0911"/>
   <path transform="matrix(1.628 0 0 1.628 -411.48 -222.37)" d="m263.54 201.37c12.675-19.247 36.234-48.285 52.07-93.753 11.098-19.746 6.5777-49.464-20.481-52.547-35.108-13.847-124.88-9.3896-40.096-14.333 0.63545 0.10412 44.239-2.8741 64.805 23.014 10.468 9.3765 5.442 29.621 1.6942 45.18-5.3862 19.199-16.349 33.752-25.978 49.414-0.30893 0.119-27.46 38.494-32.016 43.023z" fill="#fff" opacity=".42308"/>
   <path transform="matrix(1.628 0 0 1.628 -411.48 -222.37)" d="m291.04 187.29c1.2697 6.7847 1.0372 13.319 1.1295 19.907 2.7798 6.6351 3.0937 13.719 3.6707 20.754-2.7154 9.8161-18.453 8.8843-19.484 17.225-20.97 1.0332-3.9448-7.175 7.4135-15.068 8.3394-6.4795 5.4888-15.169 5.1587-23.383 1.8214-7.1934 1.26-18.24 2.1112-19.435z" opacity=".45"/>
   <path transform="matrix(1.628 0 0 1.628 -411.48 -222.37)" d="m283.52 194.18c2.0949 2.631 4.0679 5.5031 6.574 7.2433l-1.1147 5.3295-5.4595-12.573z" fill="#2d2d2d"/>
   <path transform="matrix(1.628 0 0 1.628 -411.48 -222.37)" d="m295.69 158.21-31.417 42.259" fill="none" stroke="#000" stroke-linecap="round" stroke-linejoin="round" stroke-width="1.0911"/>
   <path transform="matrix(1.628 0 0 1.628 -411.48 -222.37)" d="m262.13 74.342c-4.5938 8.3549-5.0549 29.018 6.9181 23.296 5.0748-4.8033 10.547-4.5548 11.86 2.6826-0.0109 8.913 0.7468 14.116-6.9181 23.296-3.7094 2.8171-12.268 2.9687-18.072-2.259-14.935-18.07-8.2636-42.041 6.2124-47.017z" fill="#06f" stroke="#0056d6" stroke-linecap="round" stroke-linejoin="round" stroke-width="1.0911"/>
   <path transform="matrix(.50751 0 0 .50751 -456.75 -206.55)" d="m930.05 207.31c-14.736 26.801-16.215 93.085 22.192 74.728 16.279-15.408 33.834-14.611 38.044 8.6051-0.0349 28.591 2.3956 45.28-22.192 74.728-11.899 9.0366-39.352 9.5231-57.971-7.2464-47.907-57.966-26.508-134.86 19.928-150.82z" fill="#2a7fff" filter="url(#c)" stroke="#0056d6" stroke-linecap="round" stroke-linejoin="round" stroke-width="3.5"/>
   <path transform="matrix(1.628 0 0 1.628 -411.48 -222.37)" d="m303.92 73.319c4.144 7.3823-0.27595 27.288-11.076 22.232-4.5779-4.2443-7.3514 4.6777-7.2626 5.0776 0.01 7.8752-2.0733 13.362 4.841 21.473 3.3462 2.4891 7.3758-0.22449 12.612-4.8435 13.472-15.966 13.944-39.544 0.88624-43.94z" fill="#06f" stroke="#0056d6" stroke-linecap="round" stroke-linejoin="round" stroke-width="1.0911"/>
   <path transform="matrix(.50751 0 0 .50751 -456.75 -206.55)" d="m1064.1 204.03c13.293 23.681-0.8852 87.536-35.531 71.316-14.685-13.615-23.582 15.005-23.297 16.288 0.032 25.262-6.6506 42.862 15.529 68.882 10.734 7.9845 23.66-0.7201 40.456-15.537 43.216-51.217 44.731-126.85 2.8429-140.95z" fill="#2a7fff" filter="url(#d)" stroke="#0056d6" stroke-linecap="round" stroke-linejoin="round" stroke-width="3.5"/>
   <path transform="matrix(1.628 0 0 1.628 -411.48 -222.37)" d="m260.5 203.7c11.767 24.413 0.13946 56.952 0.32016 85.111" fill="none" stroke="#000" stroke-linecap="round" stroke-width="1.0911"/>
   <path transform="matrix(1.628 0 0 1.628 -411.48 -222.37)" d="m254.33 214.68c0.0437-25.51-27.72-63.021-31.626-91.209" fill="none" stroke="#000" stroke-linecap="round" stroke-width="1.0911"/>
   <path transform="matrix(1.628 0 0 1.628 -411.48 -222.37)" d="m291.04 187.29c1.2697 6.7847 1.0372 13.319 1.1295 19.907 2.7798 6.6351 3.0937 13.719 3.6707 20.754-2.7154 9.8161-17.673 8.8843-19.484 17.225" fill="none" stroke="#000" stroke-linecap="round" stroke-width="1.0911"/>
   <path transform="matrix(1.628 0 0 1.628 -411.48 -222.37)" d="m285.81 272.99c0.69406 30.95-32.072 69.247-8.6124 83.864-6.1441-1.4727-16.391-4.3235-18.354-25.978-2.4935-26.596 4.8485-55.789 8.0476-83.724 7.9983 0.82942 19.63-15.054 18.919 25.837z" fill="#171717" stroke="#000" stroke-linecap="round" stroke-linejoin="round" stroke-width="1.0911"/>
   <path transform="matrix(1.628 0 0 1.628 -411.48 -222.37)" d="m295.38 159.31c52.99 62.198 30.571 85.23 3.9921 124.74-8.5295 15.682-17.649 22.797-28.13 44.554 22.067-55.047 81.112-91.221 19.849-163.13 0.40461-1.1394 4.7048-5.9337 4.288-6.1662z" fill="#fff" opacity=".45"/>
   <path transform="matrix(1.628 0 0 1.628 -411.48 -222.37)" d="m300.49 283.3c-7.7492 15.498-26.634 33.347-31.342 52.098" fill="none" stroke="#000" stroke-width="1.0911"/>
   <path transform="matrix(1.628 0 0 1.628 -411.48 -222.37)" d="m193.19 75.879-1.9839 16.753c-45.449 53.086-52.534 235.39 16.973 303.1 18.533 1.4126 19.093-7.3586 20.5-15.651-50.57-29.506-94.339-209.82-20.5-288.11l24.909-16.533-39.9 0.44086z" fill="#845130" stroke="#000" stroke-width="1.0911"/>
   <path transform="matrix(1.628 0 0 1.628 -411.48 -222.37)" d="m205.4 89.545c-79.129 86.601-24.423 275.01 21.377 298.24 1.5333-2.8034 1.3401-4.3612 1.9084-7.7115-50.57-29.506-94.339-209.82-20.5-288.11l24.909-16.533-3.031 0.68901-24.663 13.419z" fill="#fff" opacity=".45"/>
   <path transform="matrix(1.628 0 0 1.628 -411.48 -222.37)" d="m193.19 75.879-1.9839 16.753c-45.449 53.086-52.534 235.39 16.973 303.1 2.02 0.15397 3.8266 0.18695 5.4439 0.11276-61.855-69.019-77.898-256.85-3.6037-318.69l-16.83-1.2737z" opacity=".45"/>
   <path transform="matrix(1.628 0 0 1.628 -411.48 -222.37)" d="m5.1334 237.9c29.447-105.43 124.29-256.08 307.7-231.31-55.025-0.059542-84.391 23.731-71.401 74.506-125.24-24.778-217.33 116.39-236.3 156.81z" fill="#999" stroke="#000" stroke-width="1.0911"/>
   <path transform="matrix(1.628 0 0 1.628 -411.48 -222.37)" d="m193.19 75.879-1.9839 16.753c-45.449 53.086-52.534 235.39 16.973 303.1 18.533 1.4126 19.093-7.3586 20.5-15.651-50.57-29.506-94.339-209.82-20.5-288.11l24.909-16.533-39.9 0.44086z" fill="none" stroke="#000" stroke-linecap="round" stroke-linejoin="round" stroke-width="1.0911"/>
   <path transform="matrix(1.628 0 0 1.628 -411.48 -222.37)" d="m5.1334 237.9c7.0378-25.199 17.812-52.98 32.636-80.332 22.808-39.647 102.08-112.44 201.53-109.2-1.7055 9.2939-1.0802 20.185 2.1273 32.723-125.24-24.778-217.33 116.39-236.3 156.81z" fill="#ddd"/>
   <path transform="matrix(1.628 0 0 1.628 -411.48 -222.37)" d="m291.76 201.95c-3.7549-2.0845-5.5427-5.293-7.9625-8.1405" fill="none" stroke="#000" stroke-linecap="round" stroke-width="1.0911"/>
   <path transform="matrix(1.628 0 0 1.628 -411.48 -222.37)" d="m232.65 196.02c-0.2931 4.2135-2.5752 7.0064-4.1994 10.269-0.27825-2.8257 0.84681-5.4954-1.0911-8.5055" fill="none" stroke="#000" stroke-linecap="round" stroke-width="1.0911"/>
   <path transform="matrix(1.628 0 0 1.628 -411.48 -222.37)" d="m245.44 40.393c3.0182-6e-3 6.2145 0.10698 9.5975 0.34725 0.63545 0.10412 44.239-2.8741 64.805 23.014 10.468 9.3765 5.442 29.621 1.6942 45.18-5.3862 19.199-16.349 33.752-25.978 49.414 16.92 24.523 36.801 43.958 31.202 74.97-5.01 17.024-14.345 33.568-26.119 49.838 8.4176 26.276 1.126 63.215 33.319 104.76-10.993-3.4544-32.371-8.0828-48.298-5.4433-19.935 3.3041-37.219 4.7431-54.539 4.0754m-36.149-4.3463c-7.8019-1.526-15.93-3.4516-24.583-5.794-18.054-4.8881-38.297 3.3565-57.528 4.4488-57.154 2.0719-43.837-31.586-26.668-51.381 23.361-26.935 77.28-10.909 30.621 18.625 27.571-20.519-5.5886-41.044-24.093-1.4849-2.5968 21.363 14.769 16.918 26.926 12.126 26.34-13.038 36.71-20.234 48.688-30.667m19.174-18.945c20.965-27.084 29.575-68.598 40.807-102.79-18 17.987-32.77 45.929-46.272 77.785m-9.9476-84.294c17.732-7.9462 40.096-7.502 50.608-25.831 5.3379-15.206-0.16657-32.477-10.589-50.686-2.7758-5.2905-5.7878-11.893-8.253-19.049" fill="none" stroke="#000" stroke-linecap="round" stroke-linejoin="round" stroke-width="1.0911"/>
   <path transform="matrix(1.628 0 0 1.628 -411.48 -222.37)" d="m49.351 172.75-4.0526-11.379 9.1963 4.832-5.1437 6.5465z" stroke="#000" stroke-width="1.0911"/>
   <path transform="matrix(1.628 0 0 1.628 -411.48 -222.37)" d="m53.615 167.02-3.0575-8.3409 6.9381 3.542-3.8805 4.7989z" stroke="#000" stroke-width="1.0911"/>
   <path transform="matrix(1.628 0 0 1.628 -411.48 -222.37)" d="m141.31 96.606-2.7342-13.885 11.356 9.4479-8.6218 4.437z" stroke="#000" stroke-width="1.0911"/>
   <path transform="matrix(1.628 0 0 1.628 -411.48 -222.37)" d="m149.02 93.236-2.086-9.0102 8.6636 6.131-6.5777 2.8793z" stroke="#000" stroke-width="1.0911"/>
   <path transform="matrix(1.628 0 0 1.628 -411.48 -222.37)" d="m5.1334 237.9c29.447-105.43 124.29-256.08 307.7-231.31-55.025-0.059542-84.391 23.731-71.401 74.506-125.24-24.778-217.33 116.39-236.3 156.81z" fill="none" stroke="#000" stroke-linecap="round" stroke-linejoin="round" stroke-width="1.0911"/>
   <path transform="matrix(1.628 0 0 1.628 -411.48 -222.37)" d="m186.44 216.23c0 7.2436-3.4472 10.691-10.691 10.691-7.2436 0-13.557 1.1817-13.557-6.0618s3.8883-17.084 11.132-17.084 13.116 5.2107 13.116 12.455z" fill="#fff6db" stroke="#000" stroke-width="1.0911"/>
   <rect transform="matrix(1.628 0 0 1.628 -411.48 -222.37)" x="145.45" y="228.96" width="39.925" height="20.968" ry="10.484" fill="#fff6db" stroke="#000" stroke-width="1.0911"/>
   <rect transform="matrix(1.628 0 0 1.628 -411.48 -222.37)" x="146.74" y="249.64" width="35.364" height="20.375" ry="10.187" fill="#fff6db" stroke="#000" stroke-width="1.0911"/>
   <g transform="matrix(.50751 0 0 .50751 -451.17 -150.74)" stroke="#000" stroke-width="3.5">
    <rect x="544.78" y="528.25" width="128.07" height="67.262" ry="33.631" fill="#fff6db"/>
    <path d="m623.31 528.3c4.6452 18.624 14.595 35.424 2.1213 65.761" fill="none" stroke-linecap="round" stroke-linejoin="round"/>
   </g>
   <path transform="matrix(1.628 0 0 1.628 -411.48 -222.37)" d="m170.6 229.08c1.4481 5.8058 4.5498 11.043 0.66129 20.5" fill="none" stroke="#000" stroke-linecap="round" stroke-linejoin="round" stroke-width="1.0911"/>
   <path transform="matrix(1.628 0 0 1.628 -411.48 -222.37)" d="m169.05 249.91c1.4481 5.8058 4.5498 11.043 0.6613 20.5" fill="none" stroke="#000" stroke-linecap="round" stroke-linejoin="round" stroke-width="1.0911"/>
   <g transform="matrix(.50751 0 0 .45018 -451.17 -114.53)" stroke-width="3.7162">
    <path d="m972.98 644.26c-31.604-18.993-56.774-9.8255-90.51 0l-11.314 37.83c19.363 54.585-4.7672 95.252 2.1213 143.54 14.716-0.31378-2.3331 18.162 38.184 16.971 26.286-3.1899 53.77 12.491 77.332-37.62 8.445-27.315 19.429-161.97-15.814-160.72z" fill="#fff6db" stroke="#000"/>
    <g transform="matrix(-.99999 .004835 -.004835 -.99999 1525.2 1236.8)">
     <path d="m578.41 528.25c20.289-3.809 40.563-4.6583 60.811 0 18.632 0 33.631 15 33.631 33.631 0 18.632-15 33.631-33.631 33.631-19.684-3.4989-47.436-9.5752-60.801-2.1213" fill="#fff6db" stroke="#000" stroke-width="3.7162"/>
    </g>
    <g transform="matrix(-.99999 .004835 -.004835 -.99999 1529.3 1302.8)">
     <path d="m583.36 527.92c19.595-1.4089 35.322-5.5723 60.811 0 18.632 0 33.631 15 33.631 33.631 0 18.632-15 33.631-33.631 33.631-20.252-3.8292-40.518-4.6397-60.811 0" fill="#fff6db" stroke="#000" stroke-width="3.7162"/>
    </g>
    <path d="m932.26 842.32h-48.083c-18.104 0-32.679-14.575-32.679-32.679s14.575-32.679 32.679-32.679c17.501 4.7144 34.22 3.8257 49.851 1.0607" fill="#fff6db" stroke="#000"/>
   </g>
   <g transform="matrix(.50751 0 0 .45018 -451.17 -114.53)" fill="#fff">
    <path d="m972.98 644.26c-11.106-6.9892-22.483-9.9449-33.989-10.434-7.0409 2.0142 9.8128 8.3177 3.134 11.563-24.578 11.944-23.645 44.386-15.44 65.252-13.268 22.062-13.354 44.429 1.6698 67.14-6.6673 17.869-10.647 42.213 4.2649 64.69 19.488 0.62865 38.886-0.72108 56.174-37.488 8.445-27.315 19.429-161.97-15.814-160.72z" fill="#fff" opacity=".45"/>
   </g>
   <g transform="matrix(.50751 0 0 .50751 -451.17 -150.74)" stroke-width="3.5">
    <path d="m578.41 528.25c-14.308 25.433-10.93 47.143 0 67.262-18.632 0-33.631-15-33.631-33.631 0-18.632 15-33.631 33.631-33.631z" fill="#2d2d2d" opacity=".35"/>
    <path d="m623.31 528.3c4.6452 18.624 14.595 35.424 2.1213 65.761" fill="none" stroke="#000" stroke-linecap="round" stroke-linejoin="round" stroke-width="3.5"/>
    <path d="m578.41 593.25c-14.308 25.433-10.93 47.143 0 67.262-18.632 0-33.631-15-33.631-33.631 0-18.632 15-33.631 33.631-33.631z" fill="#2d2d2d" opacity=".35"/>
    <path d="m583.41 660.25c-14.308 25.433-10.93 47.143 0 67.262-18.632 0-33.631-15-33.631-33.631 0-18.632 15-33.631 33.631-33.631z" fill="#2d2d2d" opacity=".35"/>
    <path d="m638.22 530.56c14.308 23.825 10.93 44.162 0 63.01 18.632 0 33.631-14.051 33.631-31.505s-15-31.505-33.631-31.505z" fill="#fff" opacity=".35"/>
    <path d="m637.01 596.18c14.308 23.274 10.93 43.14 0 61.552 18.632 0 33.631-13.726 33.631-30.776s-15-30.776-33.631-30.776z" fill="#fff" opacity=".35"/>
    <path d="m627.41 661.91c14.308 23.411 10.93 43.395 0 61.916 18.632 0 33.631-13.807 33.631-30.958s-15-30.958-33.631-30.958z" fill="#fff" opacity=".35"/>
   </g>
   <path transform="matrix(1.628 0 0 1.628 -411.48 -222.37)" d="m245.35 386.86 2.2566-19.374 2.3214 19.728-4.5779-0.35386z" stroke="#000" stroke-linecap="round" stroke-linejoin="round" stroke-width=".93553"/>
   <path transform="matrix(1.628 0 0 1.628 -411.48 -222.37)" d="m236.75 386.3 2.373-10.298 2.4411 10.486-4.8142-0.18808z" stroke="#000" stroke-linecap="round" stroke-linejoin="round" stroke-width=".69942"/>
   <path transform="matrix(1.628 0 0 1.628 -411.48 -222.37)" d="m240.86 386.2 2.4479-6.1173 2.5182 6.2289-4.966-0.1117z" stroke="#000" stroke-linecap="round" stroke-linejoin="round" stroke-width=".54751"/>
   <path transform="matrix(1.628 0 0 1.628 -411.48 -222.37)" d="m76.943 372.89 5.1088-4.1608-0.82075 6.6684-4.288-2.5074z" stroke="#000" stroke-linecap="round" stroke-linejoin="round" stroke-width=".54751"/>
   <path transform="matrix(1.628 0 0 1.628 -411.48 -222.37)" d="m325.86 376.91-6.5353-0.83724 5.3993-3.9984 1.136 4.8357z" stroke="#000" stroke-linecap="round" stroke-linejoin="round" stroke-width=".54751"/>
   <path transform="matrix(1.628 0 0 1.628 -411.48 -222.37)" d="m323.62 373.45-9.8634-3.7923 10.724-0.94794-0.86071 4.7403z" stroke="#000" stroke-linecap="round" stroke-linejoin="round" stroke-width=".69942"/>
   <path transform="matrix(1.628 0 0 1.628 -411.48 -222.37)" d="m250.83 262.47c-4.4604 6.9967-3.4073 12.969 0 18.504-5.8083 0-10.484-4.1265-10.484-9.2521s4.6761-9.2521 10.484-9.2521z" fill="#2d2d2d" opacity=".35"/>
   <path transform="matrix(1.628 0 0 1.628 -411.48 -222.37)" d="m251.26 281.12c-4.4604 6.9967-3.4073 12.969 0 18.504-5.8083 0-10.484-4.1265-10.484-9.2521s4.6761-9.2521 10.484-9.2521z" fill="#2d2d2d" opacity=".35"/>
   <path transform="matrix(1.628 0 0 1.628 -411.48 -222.37)" d="m250.94 244.58c-4.4604 6.9967-3.4073 12.969 0 18.504-5.8083 0-10.484-4.1265-10.484-9.2521s4.6761-9.2521 10.484-9.2521z" fill="#2d2d2d" opacity=".35"/>
   <path transform="matrix(1.628 0 0 1.628 -411.48 -222.37)" d="m262.75 61.336-7.8144-7.1139 12.458 5.1306-4.644 1.9834z" stroke="#000" stroke-linecap="round" stroke-linejoin="round" stroke-width=".69942"/>
   <path transform="matrix(1.628 0 0 1.628 -411.48 -222.37)" d="m258.81 62.701-5.5415-3.629 10.185 1.6457-4.644 1.9834z" stroke="#000" stroke-linecap="round" stroke-linejoin="round" stroke-width=".69942"/>
   <text x="3.3964186" y="395.55499" fill="#000000" font-family="sans-serif" font-size="40px" letter-spacing="0px" stroke-width="1px" word-spacing="0px" style="line-height:125%"><tspan x="3.3964186" y="395.55499" fill="#000000" font-family="Calibri" font-size="5px">J.E 2013</tspan></text>
   <g transform="matrix(.087446 0 0 .087446 28.07 391.45)">
    <path d="m37.443-3.5c8.988 0 16.57 3.085 22.742 9.257 6.208 6.21 9.315 13.791 9.315 22.743 0 8.991-3.049 16.476-9.145 22.456-6.476 6.363-14.113 9.544-22.912 9.544-8.649 0-16.153-3.144-22.514-9.43-6.285-6.286-9.429-13.808-9.429-22.57 0-8.761 3.144-16.342 9.429-22.742 6.172-6.173 13.675-9.258 22.514-9.258zm0.114 5.772c-7.276 0-13.428 2.553-18.457 7.657-5.22 5.334-7.829 11.525-7.829 18.572 0 7.086 2.59 13.22 7.77 18.398 5.181 5.182 11.352 7.771 18.514 7.771 7.123 0 13.334-2.607 18.629-7.828 5.029-4.838 7.543-10.952 7.543-18.343 0-7.276-2.553-13.465-7.656-18.571-5.104-5.104-11.276-7.656-18.514-7.656zm8.572 18.285v13.085h-3.656v15.542h-9.944v-15.541h-3.656v-13.086c0-0.572 0.2-1.057 0.599-1.457 0.401-0.399 0.887-0.6 1.457-0.6h13.144c0.533 0 1.01 0.2 1.428 0.6 0.417 0.4 0.628 0.886 0.628 1.457zm-13.087-8.228c0-3.008 1.485-4.514 4.458-4.514s4.457 1.504 4.457 4.514c0 2.971-1.486 4.457-4.457 4.457s-4.458-1.486-4.458-4.457z"/>
   </g>
   <g transform="matrix(.087446 0 0 .087446 21.196 391.42)">
    <path d="m37.441-3.5c8.951 0 16.572 3.125 22.857 9.372 3.008 3.009 5.295 6.448 6.857 10.314 1.561 3.867 2.344 7.971 2.344 12.314 0 4.381-0.773 8.486-2.314 12.313-1.543 3.828-3.82 7.21-6.828 10.143-3.123 3.085-6.666 5.448-10.629 7.086-3.961 1.638-8.057 2.457-12.285 2.457s-8.276-0.808-12.143-2.429c-3.866-1.618-7.333-3.961-10.4-7.027s-5.4-6.524-7-10.372-2.4-7.904-2.4-12.171c0-4.229 0.809-8.295 2.428-12.2s3.972-7.4 7.057-10.486c6.095-6.208 13.58-9.314 22.456-9.314zm0.116 5.772c-7.314 0-13.467 2.553-18.458 7.657-2.515 2.553-4.448 5.419-5.8 8.6-1.354 3.181-2.029 6.505-2.029 9.972 0 3.429 0.675 6.734 2.029 9.913 1.353 3.183 3.285 6.021 5.8 8.516 2.514 2.496 5.351 4.399 8.515 5.715 3.161 1.314 6.476 1.971 9.943 1.971 3.428 0 6.75-0.665 9.973-1.999 3.219-1.335 6.121-3.257 8.713-5.771 4.99-4.876 7.484-10.99 7.484-18.344 0-3.543-0.648-6.895-1.943-10.057-1.293-3.162-3.18-5.98-5.654-8.458-5.146-5.143-11.335-7.715-18.573-7.715zm-0.401 20.915-4.287 2.229c-0.458-0.951-1.019-1.619-1.685-2-0.667-0.38-1.286-0.571-1.858-0.571-2.856 0-4.286 1.885-4.286 5.657 0 1.714 0.362 3.084 1.085 4.113 0.724 1.029 1.791 1.544 3.201 1.544 1.867 0 3.181-0.915 3.944-2.743l3.942 2c-0.838 1.563-2 2.791-3.486 3.686-1.484 0.896-3.123 1.343-4.914 1.343-2.857 0-5.163-0.875-6.915-2.629-1.752-1.752-2.628-4.19-2.628-7.313 0-3.048 0.886-5.466 2.657-7.257 1.771-1.79 4.009-2.686 6.715-2.686 3.963-2e-3 6.8 1.541 8.515 4.627zm18.457 0-4.229 2.229c-0.457-0.951-1.02-1.619-1.686-2-0.668-0.38-1.307-0.571-1.914-0.571-2.857 0-4.287 1.885-4.287 5.657 0 1.714 0.363 3.084 1.086 4.113s1.789 1.544 3.201 1.544c1.865 0 3.18-0.915 3.941-2.743l4 2c-0.875 1.563-2.057 2.791-3.541 3.686-1.486 0.896-3.105 1.343-4.857 1.343-2.896 0-5.209-0.875-6.941-2.629-1.736-1.752-2.602-4.19-2.602-7.313 0-3.048 0.885-5.466 2.658-7.257 1.77-1.79 4.008-2.686 6.713-2.686 3.962-2e-3 6.783 1.541 8.458 4.627z"/>
   </g>
  </g>
 </g>
</svg>