<?xml version='1.0' encoding='utf-8'?>
<svg xmlns="http://www.w3.org/2000/svg" enable-background="new -349.6336 -514.2529 1071.6971 1540.6505" version="1.1" viewBox="-349.6336 -514.2529 1071.6971 1540.6505">
	<path d="m196.88-487c11.16-2.43 22.35-4.74 33.6-6.9299 6.5099 26.28 2.13 53.61 3.51 80.369 23.49-2.28 47.43-2.22 70.739 1.53 17.19 6.2099 35.73 10.23 50.46 21.63 15.81 12.06 31.32 24.93 44.1 40.26 18.9 25.17 34.77 53.19 42.66 83.849 8.3399 30.36 8.9399 62.159 7.5899 93.419-3.18 11.97-10.53 22.95-8.7899 36 21.6-7.0799 44.49-7.5899 66.989-5.9099-8.04 8.4299-19.59 11.1-30.06 15.15-2.9399 0.78-4.9199 2.61-5.9399 5.46 1.4399 0.51 4.3499 1.5 5.7899 2.01 10.5 2.16 25.14 0.09 30.09 11.97-6.15 1.2-12.27 2.46-18.42 3.75-2.16 0.45-6.4799 1.32-8.6399 1.77-2.6399 2.28-5.2799 4.59-7.9199 6.8699 5.2199 0.06 10.47 0.12 15.72 0.27 10.56 0.09 21.15-0.06 31.71 0.72-5.9699 4.59-12.09 9.4799-19.41 11.7-6.6299-1.77-6.6 6.69-0.06 5.4 8.9099 2.28 16.44 7.8599 25.08 10.92 24.3 7.7999 48.99 14.4 73.949 19.8 21.33 5.6099 44.19-0.99 65.189 6.8099 13.89 4.35 24.57 15.21 32.04 27.33 5.9999 10.8 8.13 23.13 11.07 34.98-22.53 22.65-42.3 47.73-62.549 72.389-10.86 12.66-13.62 29.76-22.02 43.86-3.6299 6.0899-8.6999 11.1-12.9 16.8-5.1 6.9299-6.42 15.72-10.14 23.34-3.09 3.9599-7.0199 7.14-10.44 10.8-5.2199 4.6199-4.95 12.39-8.9999 17.82-2.5499 3.54-5.43 6.8099-8.2499 10.14 10.5 8.9999 19.59 19.47 28.77 29.79-0.9599 13.05-4.02 25.86-9.3599 37.86 13.92 6.4799 24 18.93 38.28 24.6-14.19 0.8099-28.44 1.7099-42.63 0.63-6.6899-2.9701-6.6299 5.3399-0.48 5.4899 9.7499 7.65 18.36 16.68 28.08 24.42-13.95 8.1899-23.82-7.7099-36.75-8.4-1.9199 4.5899-4.4999 8.9999-5.3699 13.95 1.08 8.6699 5.9699 16.26 8.7899 24.42-6.42-1.71-12.81-3.45-19.17-5.28-4.11 14.82-17.07 23.91-25.05 36.06 0.75 19.02 7.7098 37.35 10.11 56.219-0.0601 31.17-10.68 61.499-7.95 92.879 1.7701 2.34 3.54 4.71 5.3401 7.08-3.0901 10.53-10.14 20.52-8.04 31.98 2.91 18.15 7.83 35.91 11.16 53.969 2.67 18.69-0.27 37.68-3.8999 56.04-4.98 17.88-4.71 39.6-21.39 51.51 2.28 10.17 10.56 16.92 16.56 24.93-2.5499 5.0699-5.1299 10.14-7.9499 15.09 15.21 7.6499 2.2499 26.97 10.74 38.49 3.8099 5.22 7.4099 10.59 10.14 16.5-4.3199 1.05-8.6398 2.1-12.93 3.15 4.05 12.93 16.56 19.77 23.58 30.78 8.5798 12.69 22.23 21.03 30 34.29 6.5099 10.44 3.78 23.31 6.3 34.86 0.3899 10.92 9.2699 21.93 2.7 32.49-12.81 9.3899-29.76 6.54-44.64 7.3199-23.52-0.96-42.3 17.19-65.609 17.64-11.97 0.42-26.19-2.07-34.44-11.31-7.0799-17.4-9.5399-36.45-11.97-54.929 2.1299-13.11 4.71-26.28 2.61-39.6-2.64-1.89-5.2499-3.75-7.8599-5.5799 5.55-21.75 1.02-44.67 7.53-66.119 2.3099-10.92-1.26-24.42 10.5-30.75 0.75 1.23 2.3099 3.72 3.09 4.95 2.0399 6.7199 9.1499 0.42 4.1399-3.48-3.18-6.03-7.8299-11.82-8.3099-18.84 3.87-5.46 9.8399-8.8199 15.09-12.75-11.22-32.88-17.79-67.109-25.11-101.01 1.11-21.99 1.86-44.34 7.6799-65.729 3.87-11.43-11.58-12.45-15.06-21.09-1.2001-4.23-3.03-4.59-5.55-1.02-1.35 3.2399-5.46 5.8499-4.5599 9.7198 3.5399 7.02 10.2 12.72 10.92 20.97 1.02 13.68-0.63 27.69-4.6799 40.8-13.02 28.8-26.04 57.78-34.47 88.349-3.69 13.14-11.43 24.78-14.67 38.04-1.29 12.09-4.4699 23.88-5.6399 36 9.7799 7.9199 17.64 18.54 20.67 30.9-1.17 8.1299-2.85 16.17-3.57 24.39-1.14 14.67-9.7799 27.18-13.17 41.31-14.73 3.39-29.61 7.11-42.9 14.58-1.47-3.7199-3.12-7.3199-4.47-11.04-0.54-1.02-1.62-3.0601-2.19-4.05-0.72 0.87-2.16 2.6699-2.88 3.5699-19.35 24.54-41.4 48.12-69.029 63.479-19.05 10.86-40.65 21.12-63.179 17.82-25.92-3.06-48.51-18.96-74.759-20.25-13.38-0.4501-22.62-12.93-36.24-12.27-5.97 0.6-9.4799-4.3198-13.11-8.0698 7.7999-12.15 11.1-27.3 22.23-37.14 6.06-5.37 11.91-12.24 20.34-13.56 22.05-3.84 43.74-9.3299 65.399-14.91 10.65-2.6699 19.41-10.05 30.3-12.03 6.1799-5.9399 13.38-10.53 20.55-15.18 17.61-19.29 39.39-34.68 54.27-56.549 2.07 0.18 6.2099 0.54 8.2799 0.6899 1.89-8.5499 5.1599-16.65 9.6299-24.15 7.4699-0.75 14.91-1.6799 22.38-2.5799 1.8-24.03 9.3299-47.4 8.5199-71.639-0.21-32.55 0.24-65.069-0.24-97.589-9.2399-8.5499-8.9999-21.63-7.62-33.18 1.05-10.98 2.64-22.89-3.9599-32.58-4.05-8.4899-5.1599-17.94-7.6499-26.91-3.87-18.63-11.58-36.63-11.13-55.95 0.63-8.9999-2.46-17.46-6.1799-25.41-9.6299-3.57-19.62-5.94-29.13-9.7199-19.86-8.88-36.96-22.65-53.1-36.99 8.7-14.58 10.32-31.95 18.03-47.01 3.69-13.89 1.47-28.74 3.24-42.96 1.9799-14.91-10.23-25.62-19.11-35.73-8.2199-11.58-15.66-23.91-26.1-33.75-11.94-12.69-21.72-30.27-40.05-34.32-24.48-2.76-50.04 1.86-71.609 13.92-8.3099 4.44-14.91 11.67-23.88 14.97-24.93 10.29-43.41 30.48-63.449 47.73-12.66 12.36-26.79 23.19-38.91 36.12-17.64 19.35-35.34 38.61-52.2 58.649-9.6299 12.72-28.08 8.7599-39.96 1.62-16.11 37.59-34.2 74.549-46.2 113.73-0.48 4.5-5.19 5.3399-8.4299 7.1999-0.87-10.32-1.38-20.64-1.59-30.96 1.53-4.1999 2.4-8.5199 3.21-12.87 2.04-3.09 6.7199-6.9899 3.9299-10.95-6.0899-2.22-6.9599 6.6299-7.7699 10.68-1.68 4.17-3.06 8.46-3.9899 12.87-4.74 6.6599-5.34 19.11-14.25 20.97-2.07-7.9199 0.51-15.96 1.5-23.82 0.69-4.7099 0.54-9.5099 0.63-14.19-3.66 4.6499-6.8099 9.6898-9.2099 15.12-5.31 8.7599-2.7 22.92-13.5 27.36-0.99-10.29-1.8-20.58-2.01-30.9 1.29-3.4199 0.87-6.5999-1.29-9.5399-2.49 2.52-4.02 5.55-4.59 9.0899-5.52 10.56-9.7799 21.72-14.7 32.58-1.92 0.1501-5.7299 0.48-7.6499 0.66-1.47-3.18-3.09-6.2699-4.8299-9.2699-3.54 3.66-7.08 7.38-10.68 11.04-4.29-9.0899-4.65-19.47-0.87-28.77l1.38-2.8499c-0.57-2.16-1.68-6.4799-2.25-8.67-3.51 2.58-5.7899 6.81-5.1599 11.22-7.6499 7.0499-14.22 15.06-20.64 23.19-1.95-14.1 3.36-27.39 6.5099-40.86 3.03-18 12.27-34.02 17.25-51.48 3.57-12.18 19.59-20.55 16.38-34.08-4.74 0.5999-9.5099 1.11-14.31 1.17-5.7-0.15-11.76 0.51-16.2 4.47l-2.73 1.9799c-12.93 0-25.8 0.84-38.7 1.44 12.15-13.41 30.63-17.85 47.16-23.37 6.33 0.72 6.9299-7.5299 0.03-5.3999-10.83-2.0399-20.82-7.1099-31.11-10.98 5.25-1.35 10.44-2.8799 15.72-4.2 5.61 3.8099 6.4799-6.12 0.27-2.91-9.0899-9.2999-24.18-13.86-27.96-27.27 27.66 7.71 56.88 8.4899 85.319 5.3099 14.97-2.04 30.03-5.34 43.68-12 5.0699-2.52 5.2799-9.0899 7.4999-13.68 1.08 0.39 3.24 1.14 4.29 1.5 11.07-9.6899 24.3-16.32 37.32-22.86 12.06-5.3999 19.8-17.1 32.1-22.08 13.14-8.8799 20.34-23.85 30.45-35.67 18.6-14.91 38.16-29.37 52.29-48.9 8.7299-11.97 19.65-22.11 29.01-33.57-5.73-8.6399 0.51-17.16 7.5599-22.53 0.81-0.78 2.43-2.31 3.24-3.09-2.28-3.09-6.5099-2.91-9.4499-1.05-8.2499 3.03-16.23 6.7799-23.1 12.27-2.49-0.36-7.4699-1.05-9.9299-1.41 4.38-8.2499 8.5199-16.89 15.18-23.61 1.74-1.8 3.48-3.6 5.2199-5.3699-1.62-0.9-4.8599-2.7-6.4799-3.63-6.3299 1.83-12.6 3.99-18.69 6.54-6.2099 1.11-12.51 0.24-18.57-1.35 7.0799-6.0899 13.65-12.87 21.51-17.94 3.48 0.21 7.1099-1.05 9.0599-4.05-2.1-0.27-6.2399-0.78-8.3399-1.02-10.95-1.17-21.18-5.6999-31.17-10.11 18.9-7.1399 39.63-9.2699 57.51-18.93 6.2099 2.28 12.84-0.03 17.91-3.81l2.37-1.5c9.0899-2.34 18.78-4.83 25.11-12.3 3.87 6.15 7.4699-3.93 0.72-2.67-30.96-15.209-57.269-38.729-79.409-64.949-12.87-16.56-26.49-33.33-32.85-53.67-5.43-18.21-14.7-35.43-15.96-54.69-1.32-18.15 1.41-36.42 6.4799-53.85 6.6899-23.25 13.44-46.5 21.45-69.329 1.74-5.64 6.03-9.8699 10.02-14.04 21.3-21.48 42.87-42.69 65.489-62.789 10.56-11.13 25.41-16.08 39.42-21.33 48.12-16.08 99.749-17.49 149.85-12.72 10.71-22.41 2.9699-47.04 2.1599-70.439m10.29 10.8c-1.14 13.95 2.85 27.84 0.87 41.76-1.47 7.9499-3.63 15.75-5.64 23.61 7.1999 0.75 14.4 1.68 21.57 2.61 1.32-21.63 1.38-43.32 0.87-64.979 0.45-5.37-2.91-9.5999-5.58-13.89-4.1099 3.51-9.1498 6.21-12.09 10.89m-131.43 70.259c-50.46 15.21-92.399 50.1-126.39 89.339-7.5899 7.4999-10.44 18.03-13.89 27.81-10.53 31.8-18.66 64.439-24.66 97.409-0.12 48.15 29.19 90.179 60.029 124.74 12.36 12.18 22.98 26.61 38.19 35.49-14.91-34.47-24.66-71.459-24.57-109.2-0.21-4.83 5.7599-7.0499 5.6399-11.85-0.75-9.1799-4.38-17.82-5.9699-26.85-3.63-17.16-1.77-34.83 1.29-51.9 4.89 6.1799 8.3099 13.29 12 20.22 5.2199-13.02 2.4-27.54 7.0199-40.71 2.25-7.4999 7.1399-13.71 11.01-20.4-1.05-1.29-3.18-3.8999-4.2599-5.1899 4.86-3.48 10.32-6.5399 13.5-11.79 5.04-7.05 4.71-16.59 10.32-23.31 7.8599-9.4799 12.15-21.24 19.68-30.93 17.43-22.05 40.83-38.82 65.969-51.06 18.12-5.46 36-11.64 53.94-17.67-32.94-1.23-66.9-4.32-98.849 5.85m171.9 2.4599c25.47 5.3399 48.45 18.21 69.899 32.46 15.09 10.62 30.84 21.48 40.68 37.53 9.5999 15.45 15.36 32.88 23.01 49.35 6.3299 12.72 6.9299 27.15 9.7199 40.86 1.35 9.3599 4.5299 18.78 2.8199 28.32-2.67 15.57-0.99 31.62-5.4899 46.92-4.83 17.58-6.9899 35.7-8.9999 53.73-6.12 13.17-12 26.4-16.77 40.14-9.5099 14.01-20.88 26.94-27.21 42.93 22.23-10.89 40.02-28.59 57.42-45.78 11.67-11.13 18.96-25.74 25.17-40.38 9.9599-24.33 15.84-50.34 16.92-76.619 1.4701-35.7-1.77-72.179-14.25-105.87-14.64-42.03-47.85-77.069-88.499-94.859-18.48-4.2-37.65-4.4399-56.49-6.2999-7.9199-5.8198-20.43-12.54-27.93-2.4299m-115.32 11.97c-26.37 9.3599-44.22 32.22-67.109 47.1-9.2099 12.27-19.02 24.33-23.31 39.33 15.81-13.23 34.26-22.71 53.01-31.08 0.69-1.14 2.07-3.4799 2.76-4.6199 1.05 1.32 3.12 3.99 4.17 5.3399-0.27 28.2 0.21 56.4-0.18 84.599 0.54 4.32-2.31 7.8299-5.82 9.8999-7.8299-1.65-13.71-7.7099-21.12-10.44-17.37-6.5399-33.48-18.99-53.04-16.95-6.5399 14.94-15.06 29.97-14.31 46.8 0.6 6.6599-1.74 12.93-4.2 18.99 9.0299 10.71 20.85 18.27 32.46 25.83 5.2199 2.61 5.7899 8.9099 7.9799 13.71-2.67 8.7599-0.9 17.82 1.77 26.34 5.3399-5.88 10.5-11.91 15.42-18.12 6.6599 3.21 12.78 7.5899 19.77 10.08 7.6499 1.65 15.3 3.42 22.41 6.8099 2.31-12.51 3.93-25.35 9.6299-36.93-6.5699-0.36-12.9-2.1-18.96-4.56-1.11-3.72-2.19-7.4099-3.27-11.13 8.9699-10.86 19.05-20.82 27.6-31.98 6.72-15 9.8999-31.29 12.42-47.46 5.25-22.56 16.8-42.96 26.58-63.749 3.9299-10.35 5.7299-21.63 11.85-31.05 9.2099-14.16 23.64-23.55 36.24-34.41-24.3-5.7001-49.92-1.7701-72.749 7.6498m62.879 6c-6.69 7.5299-18.03 10.77-20.79 21.42-6.3599 16.89-15.39 32.55-23.01 48.84-7.4099 24.9-12.54 50.43-19.11 75.569 5.16-7.1999 10.98-13.92 17.4-20.01 9.2699 8.4599 4.8 21.93 6.93 32.91 3.1499 20.58 7.5299 41.07 13.92 60.899-18.66-2.49-37.41-4.74-55.68-9.5399 0.21 14.04-6.0299 26.88-7.4399 40.65 18.03 1.5 36.18 1.11 54.27 0.9 13.77-0.06 26.1-6.8699 39.15-9.8399 7.89 12.3 9.7799 28.35 23.07 36.75 6.9899-14.46 10.74-30.36 19.26-44.13 7.3499-0.75 14.7-1.5 22.08-2.34 2.58-11.49 7.7399-22.56 7.1099-34.62-0.33-15.96 1.47-32.34-3.1199-47.88-26.25 1.29-52.2 6.03-78.479 6.8099 0.45-6.1499 0.66-12.63 4.29-17.88 12.45-20.91 26.01-41.16 39.12-61.619-1.56-9.1199 5.97-15.69 10.74-22.41 7.2599 4.4099 14.07 9.7199 18.45 17.16-0.93-13.17 2.91-27.9-5.2499-39.51-7.0199-10.2-14.22-20.25-20.67-30.84-4.4399-7.7399-13.41-11.73-21.75-13.53-9.21-1.71-14.91 6.5699-20.49 12.24m45.12-12.6c6.6899 12.63 15.66 23.64 24.42 34.83 6.1199 18.78 3.18 38.91 5.2499 58.29 5.97 22.59 22.56 40.47 28.98 62.939 2.64 3.81-2.16 6.7199-3.42 9.9299-1.02-1.59-3.06-4.7699-4.08-6.3599-5.8499-15.72-13.65-30.69-22.83-44.73-7.6499-10.89-8.8799-26.76-22.86-32.1 9.8999 20.49 22.8 40.23 25.71 63.299 5.1899 5.91 10.92 11.91 19.14 13.26-4.62 1.5-9.0599 3.39-13.5 5.34 1.38 25.02 2.7299 50.25-0.87 75.119 17.07-1.89 29.07-15 44.01-21.93 8.7-4.5 16.62-11.22 26.85-11.91 0.6 4.29 1.2299 8.5799 1.83 12.87-17.67 20.82-35.58 41.43-53.25 62.249-7.4399 8.6699-17.01 15.09-26.28 21.63-19.86 12.75-39.24 26.67-61.259 35.49-6.81 2.94-13.8 9.9599-21.63 5.7899-15.18-6.5099-17.82-26.19-31.38-34.29-10.95-0.72-17.7 9.9299-23.46 17.67-7.0199 2.28-13.23 6.2399-18.69 11.13-3.84 0.96-7.6799 1.89-11.55 2.67-1.8-12.93-5.01-27.03-16.83-34.56-9.0899 9.1799-17.31 19.14-25.44 29.13-9.7499-4.5299-20.16-8.6699-27.3-17.1-8.3699-9.6899-21.06-16.44-24.78-29.4-4.41-11.64-9.1199-23.19-12.63-35.16 0.57 20.64-4.23 42.3 3.6 62.069 7.6201 22.62 12.36 48.719 32.37 64.199 11.46 10.47 28.08 8.4899 41.28 15.33 7.1399 3.66 14.85 5.9699 22.92 6.2099 0.63-10.68 1.05-21.45-0.66-32.07 1.53-2.0699 3.1199-4.1399 4.6799-6.1799-0.99 16.38 3.45 42.39 24.3 42.99 29.19 1.41 58.469 1.41 87.689 0.66 9.4199-12.99 19.59-25.56 26.97-39.87 4.1999-9.5999 7.8599-19.44 12.27-28.98 0.33-10.02 3.51-20.16 11.4-26.88-5.28 34.83-18.84 68.819-40.17 96.989 17.4-5.8499 36.06-6.8399 53.1-13.8 17.49-7.8899 36.39-14.01 50.79-27.21 13.35-13.95 22.95-31.14 29.04-49.41 14.1-38.61 27.57-78.539 27.99-120.09-0.33-12.15 4.4699-23.82 3.42-35.97-2.37-14.22-10.98-26.46-12.93-40.8-6.4799-21.66-19.2-40.86-28.38-61.44-9.0299-8.6699-16.29-19.65-27.72-25.41-24.39-13.44-47.46-31.62-76.109-34.44m-172.74 86.159c-15.63 7.1999-26.85 20.85-41.37 29.79 3.75 1.23 7.4999 2.49 11.22 3.81 4.98-6.27 9.5399-13.35 16.86-17.07 13.95-7.1699 25.38-18.99 41.01-22.74-0.03-3.69-0.03-7.4099-0.06-11.1-10.02 4.5-17.79 12.6-27.66 17.31m75.419 72.989c-8.6699 8.2799-14.97 18.48-21.45 28.44-5.5199 8.6999-17.7 12.06-20.1 22.83 9.5399 3.9299 10.5-9.4799 16.8-13.74 11.67-9.9299 19.44-23.31 24.75-37.53m-148.89 44.13c0.03 12.45 0.42 25.26 5.5199 36.84 3.24 7.2599 5.97 14.73 7.9199 22.47 3.93 15.87 15.48 28.08 23.85 41.73 5.88 10.32 17.88 16.23 29.67 14.61-9.1499-7.11-18.45-14.07-28.38-20.04-8.3099-12.6-17.07-25.47-19.74-40.65-2.64-13.59-8.8199-27.15-5.88-41.22-4.2298-4.6501-8.5797-9.2101-12.96-13.74m304.38 43.98c-5.4599 11.22-11.64 22.32-21.15 30.66-16.05 16.98-39.27 24.09-56.04 40.2 39.33-18.15 71.879-49.23 96.779-84.239-7.41 2.82-16.02 5.6099-19.59 13.38m-248.52 31.05c7.8899-5.5199 15.09-11.97 21.87-18.84-10.56-4.2-22.32 8.4299-21.87 18.84m388.74-7.65c-6.0899 5.0999-8.28 13.05-11.13 20.13 7.2599-2.37 14.85-3.51 22.5-3-6.93 11.28-22.17 8.7899-31.23 17.46 11.88 0.39 23.7-1.11 35.37-3.1499 7.53-8.85 18.39-13.23 29.31-16.14-9.3899-0.09-20.4 2.31-26.91-6.3599 5.91-6.96 13.17-12.54 20.67-17.64-13.26 0.7801-25.98 4.8001-38.58 8.7m-246.99-1.68c3.69 8.5499 6.2699 18.96 15.33 23.49-0.6601-10.17-7.65-17.7-15.33-23.49m245.91 43.5c-15.24-0.93-31.65 4.92-38.76 19.29 16.71 5.0699 35.1 4.3199 50.91 11.91-10.65 5.3699-22.14 2.43-33.27 1.02-11.7 0.51-23.4 1.17-35.13 1.02-0.12 1.77-0.3 5.31-0.42 7.0799 9.1499 1.92 18.33 3.63 27.45 5.6699-8.5799 9.0299-20.55 0-31.02 1.86-13.35-0.27-24.96 7.6799-33.54 17.25 13.11 2.34 29.52 0.81 38.64 12.48-17.22-2.94-34.62-4.32-52.11-3.99-1.23-1.11-3.72-3.33-4.95-4.4399-6.9299 3.8699-13.56 8.1899-20.01 12.81 15.18 6.7199 32.31 8.2799 46.71 16.65-9.6899-0.24-19.2-2.04-28.77-3.2999-9.7199-1.47-17.43-9.6299-27.75-8.4599-1.2299-0.66-3.6899-2.01-4.92-2.67-6.2399 3.96-12.78 7.3499-19.68 9.9299-1.08 2.97-2.16 5.97-3.2099 8.9699 8.0699 10.98 8.8499 25.92 3.8399 38.34-5.8799-15.15-6.1499-33.03-17.37-45.66-10.41 9.8099-8.4599 24.78-13.8 37.02-1.71-10.41-1.5-21-1.65-31.53-16.77 2.13-33.21 7.2299-50.28 6.72-16.05-0.36-32.16 0.63-48.18-0.45-21.39-8.4899-45.12-7.8899-67.529-4.59-4.4399 3.33-7.6199 8.0099-11.1 12.27-7.9799 4.2299-15.36 10.23-24.66 11.16 8.1299-14.01 20.97-23.85 35.4-30.72-22.38 0.18-37.74 19.92-59.669 21.12 12.27-10.53 28.62-14.46 40.98-24.93-3.18-2.34-6.39-4.7099-9.5399-7.05-15.57 7.59-32.58 11.25-49.41 14.7-12.57 4.56-23.43 13.32-36.87 15.75 9.0299-0.45 16.68 4.3799 23.97 8.9699-7.1999 7.2299-16.47 11.46-25.47 15.87 13.86 2.97 26.76-10.35 39.69-2.85-2.94 11.64-13.02 18.66-20.82 26.94 8.8499-3.84 17.16-8.7899 25.77-13.17 6.8999-4.17 15.03-1.29 22.41-0.57-4.65 5.31-9.3599 10.53-14.28 15.54 5.4299 1.2299 13.44 1.2299 15.45 7.7099-2.94 6.8999-6.8699 13.35-9.9599 20.19 1.23-0.69 3.66-2.1 4.8899-2.7899 15.93-8.5199 31.32-18.42 48.63-24.06-1.02 11.4-3.09 22.77-7.0199 33.54 9.2699-8.8799 20.88-14.4 31.83-20.79 6.1499-3.24 11.7-9.9899 19.35-7.6799-3.57 6.4199-7.4399 12.69-11.01 19.11 11.25-10.2 23.07-19.98 36.96-26.4 1.86 1.41 5.58 4.26 7.44 5.6999-2.55 4.92-5.22 9.7799-7.86 14.67 11.22-15.6 23.43-30.39 34.65-45.96 3.21-4.71 7.3799-8.61 11.94-11.97 2.37 19.26 2.04 38.73 2.88 58.14 6.7499-9.4499 10.98-22.86 24.15-24.75 2.43 5.25 4.8899 10.5 7.3499 15.78 4.08-1.35 8.1599-2.7 12.24-4.05 3.7799 4.98 7.7999 9.7799 12.48 13.95 0.75-7.7399 2.37-15.36 5.3999-22.5 7.6199-0.45 13.08 4.4399 18.24 9.2699 1.41-1.59 4.2-4.7699 5.61-6.3599 5.2199 1.6499 9.6899 4.9499 14.37 7.7399-0.18-2.43-0.48-7.29-0.66-9.7499 1.65-0.9 4.95-2.7 6.5999-3.6 9.6299 3.48 19.71 5.52 29.91 6.2399-1.98-7.4699-3.99-14.94-6-22.41 2.28-0.9 6.87-2.76 9.1499-3.66 13.8 0.72 27.99 1.68 40.71 7.62-6.06-6.9299-11.79-14.13-17.49-21.36 8.0099-3.2399 16.74-2.19 25.14-2.3099 19.26 0.27 38.49-0.06 57.75-0.78-13.44-4.1999-26.52-12.51-31.14-26.49 7.1699-0.48 14.34-0.81 21.51-0.72-4.6199-3.18-9.0298-6.63-13.29-10.26 4.9799-2.91 10.44-4.7699 16.08-6.03-0.9901-2.16-1.95-4.3499-2.91-6.5099 12.24-0.27 24.36-2.13 36.3-4.7699-2.4-0.87-4.7999-1.74-7.1699-2.61-3.75-10.08-15.42-11.82-21.72-19.62 8.6699-0.63 17.4-0.21 26.07-1.08 8.1299-2.01 15.99-5.07 24.27-6.5699-7.62-1.44-15.24-3.7199-21.36-8.6099-0.7201-7.0199 8.6699-6.6599 13.2-9.2099-8.46-1.59-16.65-4.17-24.75-7.02 10.17-16.89 31.59-12.69 47.94-17.34-19.38-2.7901-38.369 3.6598-57.749 2.3998m-332.52 1.05c-1.59 4.17 0.48 11.4 5.22 12.6 5.13-3.0299-0.75-12.27-5.22-12.6m368.31 8.2199c6.8699 4.08 14.16 7.4999 20.64 12.24-0.84 4.98-8.6699 5.88-12.54 8.8799 4.2299 1.92 10.77 0.81 13.53 5.0399-0.09 2.22-0.2401 6.63-0.33 8.8499-16.05-0.96-30.78 5.34-45.75 10.05 9.06 5.88 17.55 12.63 25.59 19.83-10.86 3.84-22.38 4.32-33.72 2.97 0.9001 2.8799 1.8 5.7299 2.76 8.5799-5.97 0.72-11.94 1.44-17.91 2.0699 5.6099 3.54 10.74 7.7399 15.27 12.63-6.6599 1.59-15.75 1.59-15.03 10.77 11.73 7.1399 24.21 14.49 32.85 25.35-1.02 0.78-3.09 2.34-4.14 3.12-8.3699-1.53-16.47-4.8599-25.2-4.38-0.5401 11.94 3.2099 23.25 8.1599 33.93-12.45 1.11-24.24 5.2499-35.34 10.86 13.95 4.89 27.42 11.46 38.76 21.06-7.0799 6.3899-15.3 11.25-24.24 14.52-17.37 20.19-46.44 24.24-64.859 43.26-15.42 15.93-27.36 34.74-40.92 52.2-7.14 9.1199-12.09 19.95-11.31 31.77 8.4899 0.9001 18.12 0.6 24.87 6.72 4.1099 3.8999 0.36 9.1799-0.45 13.62 5.88 0.57 11.91 0.63 17.67 2.1 8.5499 6.5099 7.2899 19.44 15.57 26.16 34.77 33.93 54.72 78.899 77.939 120.78 27.63-2.6101 56.43-8.0699 79.469-24.48 15.15-7.4099 27.36-19.29 37.05-32.94-13.53-2.85-21.33-14.58-30.33-23.82 0.4199 8.4599 2.3099 16.8 5.85 24.51-1.5601 0.72-4.62 2.1899-6.1801 2.9399-12.66-6.1499-17.25-20.82-26.28-30.81 2.1299 7.4699 4.5899 14.88 7.1999 22.23-2.34 2.0099-4.6499 4.02-6.9599 6.03-16.44-14.28-19.35-36.93-31.2-54.33-1.44 2.25-4.32 6.78-5.76 9.0299-7.3799-15.96-10.98-33.51-8.7899-51.09 2.7899-19.14 4.08-38.58 8.9999-57.36-13.98 14.07-27.96 28.2-42.69 41.49-4.44 4.5599-11.19 4.4999-16.95 5.8199 21.93-25.65 48.24-47.13 70.829-72.239-0.7199-7.2299-2.91-15.33 1.83-21.72 7.35-11.49 17.7-21.51 20.01-35.55-3.8999 1.92-7.7699 3.93-11.58 6 2.34-17.4 3.1801-34.95 4.65-52.44-7.65 25.32-21.09 48.3-31.32 72.569-2.28 5.67-5.5199 10.89-9.6899 15.36 13.98-39.36 25.98-79.469 35.79-120.12-6.12-4.56-12.3-9.0599-18.57-13.41 0.45-2.25 1.3499-6.7199 1.7999-8.9699 14.67 4.68 23.88 19.2 39.39 21.99-6.1199-6.5699-13.5-11.85-19.59-18.42-2.7-5.8199-3.7199-12.27-4.3799-18.57-0.45-3.03 2.5799-6.7499 5.7599-4.59 7.02 12.24 11.52 26.16 21.06 36.84 4.6799 5.4599 12.24 5.9999 18.81 7.2299 1.0801-21.72-0.96-43.8 1.8301-65.309 6.6299-11.4 13.95-27.63 29.31-27.42-1.17 4.6199-2.4 9.2099-3.6 13.8-1.86 0.6-5.5499 1.77-7.4099 2.34-9.8099 17.01-12.87 36.84-12.66 56.25 9.2098-14.4 18.96-29.16 33.48-38.79 11.37-7.9799 25.59-10.89 39.3-8.9699-10.41 7.7399-24.09 8.8799-34.5 16.68-13.5 8.2199-21.99 21.93-29.55 35.37 19.74-10.23 41.07-20.04 63.839-19.08-22.89 11.91-46.05 23.34-68.189 36.6-5.37 17.58-11.82 34.8-17.01 52.44-6.75 22.17-26.55 36.81-34.95 58.14-2.2199 5.5499-5.46 12.27-1.89 18 6.69 10.95 16.71 19.29 25.74 28.23 11.61 12.21 29.22 15.24 45.09 17.7 7.4999-8.4599 10.59-19.77 17.73-28.5 12.15-14.55 18.3-32.82 28.56-48.57 17.85-30.9 39.3-59.519 57.78-89.969 3.6299-4.05 1.02-9.0599-0.2401-13.44-14.04-8.3399-31.8-4.2299-45.06-13.95 5.9999-7.0199 13.41-12.9 18.57-20.61 3.1199-7.5599 4.4699-15.72 6.3299-23.67 3.27-10.86-6.3299-19.86-9.8699-29.43-18.45-3.4499-37.74-3.8099-55.229-11.34-11.13-4.6199-23.16-6.3599-34.56-10.14-21-6.7499-41.46-15.3-62.939-20.52m162.42 37.8c3.6 7.9799 7.9799 15.78 9.6599 24.48-1.83 16.08-4.44 32.82-13.98 46.38 15.15 2.16 25.38 13.68 35.85 23.58 6.9299-8.9099 14.34-17.46 22.53-25.26 5.91-6.06 11.94-14.85 8.85-23.64-4.95-7.1699-10.05-14.19-14.49-21.69-10.32-16.23-30.18-22.56-48.42-23.85m-273.66 81.749c5.7 8.2499 12.75 15.48 18.36 23.79 3.5699 6.63-5.1 11.88-10.83 10.83-10.14-3.27-18.78-10.26-29.31-12.51-3.48-0.63-7.7399-1.47-9.8399 2.19-0.24 5.5199 0.57 11.01 1.2 16.5-6.5399 1.68-13.11 3.3899-19.65 5.0399 8.4899 47.79-21.72 91.559-17.79 139.14 11.97-8.3099 16.68-22.2 24.63-33.66 31.05-32.19 65.939-61.529 106.53-80.939-9.9899-6.6-21.87-7.68-33.36-9.6-7.4699-0.72-11.04-8.0399-15.48-13.05 16.8-3.9 32.34-11.73 49.35-14.91-2.01-11.13-4.98-22.26-11.91-31.41-17.31-0.0898-34.71 0.9902-51.9-1.4098m129.03 21.66c2.1899 5.49 5.0099 11.04 4.8 17.13 0.5999 13.62-7.38 28.29 1.5299 40.71 0.3-0.33 0.84-0.99 1.11-1.29 3.45-3.6 5.97-7.9199 7.68-12.6 5.3399-13.95 11.52-27.6 15.48-42-9.4199-0.45-18.78-2.2199-28.2-2.13 3.6299-6.7198-9.36-3.6899-2.4 0.1801m-332.97 32.1c1.77 13.08 12.69 21.18 22.14 28.92 32.82 30.75 67.739 59.189 99.779 90.719 4.05-23.07 10.62-45.66 14.07-68.849 1.05-8.9099 7.7699-15.66 10.26-24.06 1.71-11.55-0.15-23.22-0.57-34.8-1.26-0.87-3.75-2.61-5.0099-3.45-1.05 5.16 1.29 9.8099 3.72 14.19-1.47 0.75-4.44 2.25-5.9099 3-5.4-3.24-15.24-10.2-17.01 0.36-7.6799-5.0999-15.42-10.14-23.13-15.18-2.22 6.72-4.68 13.38-7.3499 19.92-4.98-1.02-9.9299-2.13-14.88-3.33-2.0699 2.01-4.17 4.05-6.2099 6.0899-9.1199-5.6999-17.52-12.72-20.64-23.46-10.08 10.17-10.98 25.5-19.5 36.63-5.9099 1.47-6.2699-5.3999-7.7399-9.3899-3.03-16.5-1.65-33.45-1.89-50.16-7.4999 10.38-18.72 19.29-20.13 32.85m-50.67 17.82c-5.5199 6.7799-14.97 6.2099-22.77 7.1999 2.85-5.4299 5.25-11.07 8.0399-16.53-4.9499 2.13-9.8699 4.2899-14.73 6.5399-0.06 8.7899 0 17.58 0.18 26.37 15.48-6.8399 29.58-18.75 47.31-18.51 0.18-8.7899 1.53-17.52 4.2-25.89-8.8198 5.3699-15.51 13.17-22.23 20.82m-149.67 48.12c6.1799 6.7499 16.2 8.9999 21.9 16.65 6.9599 8.7599 19.56 13.95 20.79 26.28-18.6-13.41-34.59-34.77-59.879-33.96-14.94 13.35-30.72 25.89-42.93 41.94-6.6899 8.3099-12.78 17.82-23.1 21.96-14.19 6.1499-23.16 19.74-37.08 26.19-5.4 2.7-10.23 6.33-14.85 10.17 15.12 3.66 27.06 13.8 39.9 21.9 3.66 2.4 4.9799 6.8999 7.2299 10.47 8.9099 7.1999 17.31 15.84 21.36 26.79 2.49 8.2798 2.94 17.31 7.7999 24.75 11.13-21.27 32.79-32.88 48.69-49.92 27.12-26.94 55.47-52.56 82.469-79.589 16.41-10.17 34.08-18.48 48.99-31.11 1.08-4.02 2.16-8.0699 3.18-12.12-17.79-0.48-28.77 19.02-46.65 15.66 12.96-16.89 35.31-18.33 54.33-23.34 1.47-3.9 2.9699-7.7999 4.5-11.7-5.82-1.11-15 1.3199-14.85-7.35 6.1199-0.15 12.27-0.24 18.45-0.24 4.89-5.64 8.8799-12 11.82-18.87-12.6 0.15-24.51 4.7699-32.49 14.76-5.07-0.6-10.17-1.23-15.24-1.86 1.41-9.3899 5.3399-18.03 9.1799-26.61-7.8899 0.96-15.3 4.08-23.1 5.3999-6.63-4.5-0.48-14.16-1.38-20.79-10.11 4.35-18.12 14.28-29.82 14.04-7.5599 0.09-12.18 7.3799-17.97 11.28 2.1-11.4 4.62-22.74 5.9999-34.29-15.75 21.15-33.449 41.07-47.249 63.51m174.66-40.53c-9.7199 15.69-17.97 32.28-25.26 49.23-1.8 4.68-5.61 8.0699-9.0299 11.58 26.73-6.78 54-2.19 80.999-0.33 11.76 2.1 21.09 10.41 32.43 13.83 25.56 6.6899 48.93 20.7 68.369 38.37-14.52 0.48-26.79-7.8299-39.81-12.84-19.47-7.9199-38.49-16.95-57.479-25.98 15.15 12.66 29.85 25.86 45.33 38.1 5.97 4.59 11.25 10.02 15.93 15.9-4.77-0.96-9.4799-1.9799-14.22-2.94 9.9599 10.77 24.84 13.65 37.68 19.65 12.96 6.1499 27.75 8.9399 39 18.36-19.77 1.89-37.83-7.0799-55.62-14.16 9.2999 5.7899 19.32 10.44 27.57 17.79 8.1599 7.47 21.51 2.88 28.86 11.88-22.59 4.5299-39.51-14.94-60.809-18.66 3.48 12.87 3.72 26.28 3.24 39.51-0.24 24.93-17.79 46.08-16.26 71.369 16.68 15.75 40.41 17.4 59.879 28.02 8.8499 4.35 17.13 10.17 26.85 12.57 9.0599 2.07 20.49 4.59 26.97-4.0799-0.15-25.56-2.67-51-4.4399-76.469-2.82-19.2-5.67-38.49-4.59-57.96-8.6699-4.5599-17.43-8.9099-26.31-12.96-0.51-4.17-1.08-8.31-1.71-12.42-5.88-1.8-12.84-2.34-17.16-7.1999-6.2699-8.6999-8.0699-19.56-9.9599-29.85-43.83-44.46-104.52-71.819-137.58-126.75-3.3297 6.1801-7.2896 12.09-12.87 16.44m345.84 85.019c-18.27 26.1-22.53 58.8-22.62 89.909 1.5299-1.89 4.5899-5.64 6.1199-7.4999 12.48 13.02 11.4 32.46 19.32 47.91 0.21-9.9899 0.6301-20.07 4.14-29.52 11.52 9.0899 18.45 22.2 23.91 35.55-0.66-4.8-1.2599-9.5699-1.89-14.34 13.02 2.3099 21.87 12.51 31.95 20.07 1.4399-1.5 4.3199-4.47 5.7599-5.97 7.2299 4.65 14.46 9.2999 21.78 13.8-2.8799-10.29-7.8599-19.74-12.93-29.04-5.64-9.3599-2.73-20.58-2.3101-30.78 9.45 12.3 21.36 22.89 36.27 27.99-5.8199-6.6-12.93-12.09-17.94-19.35-2.7-5.55-4.11-11.55-6.1799-17.31 12.03 4.6499 24.39 8.4299 36.99 11.28-8.3399-5.0999-18.15-7.2299-26.19-12.84-16.92-9.7499-18.51-32.43-33.72-43.92-6.6599-5.13-15.24-5.01-23.19-5.25 1.11 19.8 7.2899 39.09 16.26 56.699 2.79 5.16 2.8799 11.13 2.79 16.86-3.72-4.41-6.5699-9.3899-8.8199-14.67-7.2899-16.5-17.43-32.13-19.92-50.31 0.2399-6.5399-0.36-13.11-3.18-19.11-0.81 12.45-0.63 24.93-0.84 37.41-0.84 17.55 6.87 34.41 4.2899 52.02-10.2-14.64-9.4499-33.42-15.54-49.71-6.15-16.17 5.43-32.88-0.57-49.05-2.7899 5.0099-6.3599 10.17-5.9099 16.23 0.21 18.66-0.81 37.41-4.89 55.65-6.39-15.57-5.52-32.79-4.44-49.23 0.7798-11.13 6.3298-22.62 1.4998-33.479m80.159 39.39c1.44 14.94 16.17 22.71 24.9 33.33 1.8299-11.73 3.48-23.49 3.4199-35.37-5.5499-5.3099-10.74-11.13-17.22-15.33-4.44 5.1299-9.6599 10.56-11.1 17.37m-748.43 35.61c-36.75 23.52-82.499 20.97-123.96 15.54 11.13 13.26 29.43 11.4 44.07 17.94-4.14 3.5399-8.1599 7.2299-12.21 10.89 1.77 0.21 5.2499 0.5999 6.9899 0.81 2.28 1.26 6.8399 3.78 9.1199 5.0399-7.5599 13.5-25.92 8.61-36.33 18.6 19.5 1.02 38.22-6.3599 57.75-5.7299-4.35 8.2199-8.7299 16.44-13.74 24.3-16.26 25.23-27.09 53.46-36.51 81.839 9.3899-9.9899 14.31-26.67 29.34-29.34 21.96-47.58 57.51-87.959 99.269-119.16 4.08-2.85 7.8299-6.21 10.05-10.68-26.52 8.0999-44.73 30-66.989 45.12 8.9999-12.3 21.12-21.81 31.14-33.21 6.3299-7.5899 15.3-11.97 23.4-17.31-5.4299-5.6102-14.22-9.8101-21.39-4.6501m44.94 19.89c-22.11 11.13-43.41 24.57-60.449 42.75-19.92 19.08-33.66 43.29-46.68 67.289-10.17 10.5-12.15 25.02-15.03 38.67l5.7299-3.15c1.5 7.0199 2.97 14.07 4.5 21.09 7.0799-18.39 14.01-37.32 28.29-51.6 0.3 11.49 1.59 22.95 3.84 34.23 7.1399-10.47 10.05-23.1 17.28-33.42 7.3199 8.58 7.0499 19.95 6.9899 30.54 3.18-12.03 9.8999-22.53 17.22-32.43-1.86-0.9-5.61-2.73-7.4699-3.6299 15.36-23.52 29.49-47.85 44.88-71.339 2.37-4.71 7.3499-5.6999 12.15-6.0899 1.02-3.51 2.07-6.96 3.1499-10.41-15 13.68-28.11 29.22-42.78 43.23-11.85 11.31-17.67 27.15-28.68 39.06 6.2399-15.36 16.98-28.38 25.14-42.72 10.23-18.48 27.6-31.44 38.64-49.38-18.93 10.71-35.46 25.11-51.72 39.42-13.86 16.5-25.77 34.62-37.89 52.47 2.85-8.0399 4.9499-16.47 9.3599-23.79 5.6099-7.4699 11.85-14.43 16.86-22.29 13.71-22.47 35.82-37.65 56.13-53.58 0.1801-1.6499 0.3601-3.2999 0.5401-4.9199m496.17 14.16c6.2099 23.34 5.2799 47.64 6.1499 71.549-0.09 10.65 7.5299 21.75 0.96 31.77-5.7899 10.05-10.71 21.27-19.44 29.1-9.4199-1.4399-18.36-4.7399-27.42-7.4999 1.41 9.18 2.55 18.39 3.6 27.6 1.5 13.5 9.7799 25.38 9.3899 39.21-0.39 14.52 9.3599 26.16 12.78 39.72 2.37 8.9099 3.84 18.03 5.64 27.09-1.89 0.66-5.7 2.0101-7.5899 2.67 2.0399 9.8998 3.15 22.56 13.44 27.54 12.06 2.0699 24.45 0.4199 36.33-2.1 4.44-6.5699 7.5899-15.66 16.38-17.25 10.53-3.27 16.5-13.44 25.14-19.65 1.89-5.9699 3.96-11.88 6.3-17.67-2.76-3.2999-5.52-6.6299-8.2199-9.9598-2.04 13.32-12.51 22.38-19.35 33.24-4.53 2.73-9.0599 5.46-13.65 8.0699 1.44-9.21 7.6499-16.38 12.24-24.15 5.2199-8.8199 9.7799-17.97 14.82-26.85-9.3899-19.59-17.88-39.57-27.36-59.07-9.8999-26.19-8.6999-54.96-16.8-81.689 2.0399 0 6.0899 0 8.0999-0.0299 11.88 51.54 25.14 104.49 56.01 148.41 9.1199 14.01 21.48 25.38 32.49 37.83-11.34 1.3799-18.87-7.1099-26.19-14.19 0.78 14.61 12.33 26.7 25.23 32.22 20.28 6.5699 42.24-2.52 58.259-14.97 3-11.16 2.79-22.92 4.08-34.35-5.7 11.94-13.56 23.76-26.79 28.08 1.0499-4.77 2.52-9.5399 6.7499-12.42 7.6199-5.9999 11.31-15.21 14.16-24.18 4.95-17.4 10.53-35.04 9.1199-53.37 1.29-25.32-0.6299-50.61-6.9899-75.179-5.64 4.6499-11.97 8.4599-19.05 10.38-14.04 4.44-26.34 12.81-39.9 18.33-14.16 4.5-29.22 4.7399-43.92 4.4699-7.5899-15.87-10.32-33.99-21.09-48.27-9.8099-14.49-17.07-30.57-27.3-44.79-8.1301-10.44-18.3-19.11-26.31-29.64m209.28 8.1299c2.6099 4.53 5.3399 9.0299 8.0999 13.5 1.23-3.36 2.61-6.6599 4.1099-9.8999-4.0799-1.1401-8.1599-2.34-12.21-3.6m-738.38 78.479c4.2599-3.66 8.4899-7.3799 12.84-10.89-0.66 6.1799-2.28 12.21-4.62 17.97-5.2199 13.17-6.6599 27.39-9.7199 41.13 11.34-37.29 30.57-71.429 43.83-107.94-17.04 17.58-28.95 39.36-42.33 59.729m546.89 215.7c-8.2199 0-17.13 1.92-22.44 8.7599-3.69 8.9699 1.11 18.42 1.74 27.51 2.55 22.74 4.2299 45.93 0.66 68.639-1.2 10.05-9.0599 17.55-10.95 27.36-2.58 9.0899-2.46 18.6-2.34 27.96 15.39 2.43 23.79 16.44 34.71 25.89 1.95 12.96-10.11 21.15-16.38 30.96 3.78-0.27 7.62-0.54 11.43-0.87 3.8099-2.04 7.7699-3.75 11.82-5.28-0.84-0.72-2.55-2.16-3.39-2.8799-2.79-32.07 4.6199-64.319 16.05-94.139 10.41-31.8 32.85-58.979 38.28-92.549 3.3-16.41-0.3-33.15-5.64-48.72-17.04 10.77-34.83 19.95-53.549 27.36m128.91-11.43c-11.43 1.14-23.22 6.12-34.32 0.87-2.1299 5.3099-4.3499 10.68-4.7399 16.47-2.25 21.66-6.24 43.62-2.46 65.339 2.73 15.09 11.31 28.2 14.67 43.11 2.4599 9.72 5.0399 19.44 6.6599 29.4 12.45 1.0799 23.64-9.39 35.85-3.03 7.6199-19.11 13.62-38.85 21.75-57.78 4.9499-18.21 3.9-37.26 3.96-55.95-0.1201-17.67-5.01-35.01-12.39-51-9.4199 4.6799-18.09 11.88-28.98 12.57m-190.26 184.98c0.36 2.8199 1.11 5.58 1.74 8.4299 5.8499-3.87 11.94-7.4699 17.82-11.34-6.63-0.9-13.8-0.9899-19.56 2.91m168.57 15c-9.84 8.5499-5.52 24.09-7.86 35.7 21.84-7.14 45.27-7.41 68.039-7.05-8.67-9.2098-10.02-21.9-9.9-33.93-16.77-5.4299-34.29-0.2099-50.279 5.2801m-181.32 7.8898c-14.1 6.66-22.68 20.52-34.35 30.36 20.79 0.6 34.47 17.91 51.72 26.94 13.02-8.5199 25.95-17.61 36.03-29.64-7.5599-6.5699-14.76-13.47-21.84-20.55-1.98-0.0599-5.9399-0.21-7.92-0.27-6.7799-4.8598-14.97-10.29-23.64-6.8399m234.45 51.06c-2.2499 0.9901-6.6899 2.94-8.9399 3.9 6.42 0 12.84 0.18 19.26 0.27 0.0299-6.6299-1.95-12.84-5.91-18.12-6.9901 2.5499-4.29 8.4598-4.41 13.95m-16.41-9.7799c-4.08 2.04-4.23 4.0499-0.36 5.9999 4.0499-2.07 4.1698-4.08 0.36-5.9999m-280.05 14.43c7.1399 1.11 13.83 3.9899 20.88 5.4899 2.16-3.39 4.1999-6.8399 6.1199-10.35-9.2699-6.3-19.35-1.6501-27 4.8599m148.35 0.0599c-3.99 2.16-4.08 4.2-0.24 6.12 3.99-2.19 4.05-4.23 0.24-6.12m-151.5 6.12c6.2399 2.8199 12.6 5.3699 18.93 8.0399-5.2199-4.89-11.73-7.9499-18.93-8.0399m304.02 1.23c1.29 2.2799 2.58 4.5599 3.93 6.84-1.11 0.57-3.3 1.6799-4.3799 2.2499 9.4798-0.6301 18.78 1.32 27.93 3.6899-3.18-4.77-6.48-9.4799-9.8399-14.1-5.9099 0.2401-11.79 0.69-17.64 1.3201m-212.7 23.58c-5.73 1.74-7.0499 8.3399-10.23 12.72-9.6599 17.73-22.89 33.27-38.07 46.53 9.2699-6.21 19.23-12.09 25.65-21.48 5.88-6.8699 8.3099-15.75 12.84-23.43 4.38-4.98 9.8399-8.8799 14.46-13.62 8.3399-5.7599 18.99-4.5899 23.16 5.37 8.0999-3.6299 16.92-4.8599 25.77-4.8599 3.36-4.4699 5.37-9.6299 5.9099-15.18-20.94-1.44-40.38 6.5699-59.489 13.95m-83.699-9.5099c1.56 1.4399 1.56 1.4399 0 0m298.83 10.26c7.1099 0.6 14.25 1.17 21.18 3 6.2699 3.7499 10.89 9.5699 16.02 14.64-2.52 2.1299-5.01 4.2899-7.4999 6.4799 4.6499 0.81 9.33 1.68 13.98 2.6699-4.44 8.5199-15.57 7.74-23.7 9.2999 0 1.32-0.03 3.96-0.03 5.28 9.7199-7.77 19.74 2.9399 30.12 3.7499l-0.75 5.3999c0.93-0.6899 2.79-2.07 3.75-2.7899-0.6-10.11-2.34-20.16-2.79-30.27-5.7599-8.7599-12.72-16.59-20.13-23.97-9.8698 3.03-19.98 4.92-30.15 6.51m-359.49-2.0699c-9.0599 2.8199-18.75 4.05-26.85 9.3599-12.84 2.3101-25.68 4.5601-38.52 6.87-6.2399 4.6499-11.49 10.44-16.59 16.29 11.31-2.9999 22.68-11.16 34.5-6.4199 4.77 1.8299 7.8899-4.14 11.67-5.97 2.55 1.3801 5.13 2.73 7.6799 4.14-0.99-1.4699-3-4.3799-4.02-5.8499 3.72-2.52 7.4099-5.01 11.07-7.5899 2.46 2.0099 4.92 4.0499 7.3499 6.0899-1.86-8.97 10.02-14.46 13.77-5.1 1.86-3.27 3.78-6.5099 5.6999-9.7199 11.91 6.5999 25.14 1.14 37.41-1.14-13.98-3.69-29.07-4.68-43.17-0.96m-89.009 46.32c-0.42 0.99-1.2 2.9699-1.59 3.99 22.17 2.8499 44.04 8.5499 64.049 18.63 19.44 11.31 42.63 10.8 64.229 13.59 7.7699-0.12 15.57-0.78 23.07-2.97-12.24 1.2599-24.45 0.09-36.69 0.63-9.8999-0.21-17.46-7.6799-26.88-9.4799-12.42-2.16-23.97-7.53-36.12-10.74-16.56-5.0399-33.51-8.6999-50.07-13.65m467.28 29.22c-11.58 2.4301-23.61 2.3101-35.16 4.38-17.88 10.65-41.01 12.78-59.46 2.28 4.4699 5.9399 11.1 10.47 18.81 10.2 14.16 0.0299 29.1 2.25 42.48-3.54 8.9999-2.79 18.39-4.3499 27.21-7.7999 14.91-0.57 29.88-0.54 44.46-4.3199 1.2299-3.39 2.4599-6.84 3.7499-10.17-14.34 1.0199-28.89 2.8199-42.09 8.9698z"/>
	<path d="m92.511-33.012c0.66-13.92-8.3099-30-0.27-42.57l3.27 0.63c1.08 11.94 0.54 23.97 2.13 35.88-1.7101 2.0099-3.42 4.0498-5.13 6.0599z"/>
	<path d="m58.641 52.727c3.7199-11.13 16.14-15.93 25.14-22.23-8.19 7.62-16.35 15.3-25.14 22.23z"/>
	<path d="m432.23 154.52c5.2199-12.75 11.58-24.99 17.31-37.53 0.78 31.65-20.43 56.819-39.24 79.859 6.5399-14.52 15.87-27.57 21.93-42.33z"/>
	<path d="m-55.778 180.44c11.49 3.99 25.11 6.3299 31.98 17.55 7.7699 11.58 19.68 20.49 24.03 34.14-8.2499-9.0599-16.02-18.63-25.41-26.58-9.7199-8.9699-21.66-15.24-30.6-25.11z"/>
	<path d="m398.87 212.69c-1.8-4.23 3.09-10.89 7.5599-10.44 1.17 4.11-2.8499 11.4-7.5599 10.44z"/>
	<path d="m482.69 814.09c8.1899-2.8199 16.29-5.8799 24.3-9.2399 10.71 3.87 15.84 13.95 15.33 25.02-12.72-7.23-26.76 1.02-40.32-0.03 0.21-5.2799 0.45-10.53 0.69-15.75z"/>
	<path d="m283.64 839.83c-0.36-8.9399 8.9699-11.43 15.75-13.86 12.66-3.21 22.17 8.1899 31.17 15.12-5.2799 9.2999-12.75 17.1-22.11 22.35-7.5899-8.5499-13.41-19.56-24.81-23.61m13.71-2.8199c1.05 2.1 2.07 4.2299 3.12 6.3599 1.8-4.05 3.6899-8.0999 5.2499-12.24-2.8799 1.8-5.6399 3.84-8.3699 5.88z"/>
	<path d="m207.17-476.2c2.94-4.68 7.9799-7.3799 12.09-10.89 2.67 4.2899 6.03 8.5199 5.58 13.89 0.51 21.66 0.45 43.35-0.87 64.979-7.1699-0.93-14.37-1.86-21.57-2.61 2.01-7.8599 4.17-15.66 5.64-23.61 1.9799-13.92-2.0101-27.81-0.8701-41.76z" fill="#B16600"/>
	<path d="m67.581-311.95c9.8699-4.71 17.64-12.81 27.66-17.31 0.03 3.69 0.03 7.4099 0.06 11.1-15.63 3.75-27.06 15.57-41.01 22.74-7.3199 3.72-11.88 10.8-16.86 17.07-3.7199-1.32-7.4699-2.58-11.22-3.81 14.52-8.9399 25.74-22.59 41.37-29.79z" fill="#B16600"/>
	<path d="m245.78-315.31c13.98 5.3399 15.21 21.21 22.86 32.1 9.1799 14.04 16.98 29.01 22.83 44.73l-0.84-0.27c-8.2199-1.35-13.95-7.3499-19.14-13.26-2.9101-23.07-15.81-42.81-25.71-63.299z" fill="#B16600"/>
	<path d="m143-238.96c-5.31 14.22-13.08 27.6-24.75 37.53-6.2999 4.2599-7.2599 17.67-16.8 13.74 2.3999-10.77 14.58-14.13 20.1-22.83 6.48-9.9599 12.78-20.16 21.45-28.44z" fill="#B16600"/>
	<path d="m-5.8882-194.83c4.38 4.53 8.7299 9.0899 12.96 13.74-2.94 14.07 3.24 27.63 5.88 41.22 2.67 15.18 11.43 28.05 19.74 40.65 9.9299 5.97 19.23 12.93 28.38 20.04-11.79 1.62-23.79-4.29-29.67-14.61-8.3699-13.65-19.92-25.86-23.85-41.73-1.95-7.7399-4.68-15.21-7.9199-22.47-5.1001-11.58-5.4901-24.39-5.5201-36.84z" fill="#B16600"/>
	<path d="m298.49-150.85c3.57-7.7699 12.18-10.56 19.59-13.38-24.9 35.01-57.45 66.089-96.779 84.239 16.77-16.11 39.99-23.22 56.04-40.2 9.5098-8.34 15.69-19.44 21.15-30.66z" fill="#B16600"/>
	<path d="m635.84-38.562c18.24 1.29 38.1 7.6199 48.42 23.85 4.4399 7.4999 9.5399 14.52 14.49 21.69 3.09 8.7899-2.94 17.58-8.85 23.64-8.1899 7.7999-15.6 16.35-22.53 25.26-10.47-9.8999-20.7-21.42-35.85-23.58 9.5399-13.56 12.15-30.3 13.98-46.38-1.68-8.7001-6.0599-16.5-9.6599-24.48z" fill="#B16600"/>
	<path d="m-45.878 64.487c6.0899-2.55 12.36-4.71 18.69-6.54 1.62 0.93 4.8599 2.73 6.4799 3.63-1.74 1.77-3.48 3.5699-5.2199 5.3699-6.6299-0.9599-13.29-1.7099-19.95-2.4599z" fill="#B16600"/>
	<path d="m158.24 96.947c1.41-13.56 12.63-22.47 20.13-32.85 0.24 16.71-1.14 33.66 1.89 50.16 1.47 3.99 1.83 10.86 7.7399 9.3899 8.5199-11.13 9.4199-26.46 19.5-36.63 3.12 10.74 11.52 17.76 20.64 23.46 2.0399-2.04 4.14-4.08 6.2099-6.0899 4.95 1.2 9.8999 2.31 14.88 3.33 2.67-6.5399 5.1299-13.2 7.3499-19.92 7.7099 5.04 15.45 10.08 23.13 15.18 1.77-10.56 11.61-3.6 17.01-0.36 1.47-0.75 4.4399-2.25 5.9099-3-2.43-4.3799-4.77-9.0299-3.72-14.19 1.26 0.84 3.75 2.58 5.0099 3.45 0.42 11.58 2.28 23.25 0.57 34.8-2.49 8.3999-9.2099 15.15-10.26 24.06-3.4499 23.19-10.02 45.78-14.07 68.849-32.04-31.53-66.959-59.97-99.779-90.719-9.4497-7.74-20.37-15.84-22.14-28.92z" fill="#B16600"/>
	<path d="m351.23 316.42c8.0099 10.53 18.18 19.2 26.31 29.64 10.23 14.22 17.49 30.3 27.3 44.79 10.77 14.28 13.5 32.4 21.09 48.27 14.7 0.27 29.76 0.03 43.92-4.4699 13.56-5.5199 25.86-13.89 39.9-18.33 7.08-1.92 13.41-5.7299 19.05-10.38 6.3599 24.57 8.2799 49.86 6.9899 75.179 1.41 18.33-4.1699 35.97-9.1199 53.37-2.85 8.9698-6.54 18.18-14.16 24.18-4.23 2.8799-5.7 7.6499-6.7499 12.42 13.23-4.3199 21.09-16.14 26.79-28.08-1.29 11.43-1.08 23.19-4.08 34.35-16.02 12.45-37.98 21.54-58.259 14.97-12.9-5.5199-24.45-17.61-25.23-32.22 7.3199 7.0799 14.85 15.57 26.19 14.19-11.01-12.45-23.37-23.82-32.49-37.83-30.87-43.92-44.13-96.869-56.01-148.41-2.01 0.0299-6.06 0.0299-8.0999 0.0299 8.0999 26.73 6.8999 55.5 16.8 81.689 9.4799 19.5 17.97 39.48 27.36 59.07-5.0399 8.8799-9.5999 18.03-14.82 26.85-4.59 7.77-10.8 14.94-12.24 24.15 4.59-2.61 9.1199-5.34 13.65-8.0699 6.8399-10.86 17.31-19.92 19.35-33.24 2.7 3.3299 5.4599 6.6599 8.2199 9.9598-2.34 5.79-4.41 11.7-6.3 17.67-8.64 6.21-14.61 16.38-25.14 19.65-8.7899 1.59-11.94 10.68-16.38 17.25-11.88 2.52-24.27 4.17-36.33 2.1-10.29-4.98-11.4-17.64-13.44-27.54 1.89-0.66 5.6999-2.01 7.5899-2.67-1.8-9.0599-3.27-18.18-5.64-27.09-3.42-13.56-13.17-25.2-12.78-39.72 0.39-13.83-7.89-25.71-9.3899-39.21-1.05-9.21-2.19-18.42-3.6-27.6 9.0599 2.76 18 6.06 27.42 7.4999 8.7299-7.8299 13.65-19.05 19.44-29.1 6.5699-10.02-1.05-21.12-0.96-31.77-0.8699-23.91 0.0601-48.21-6.1498-71.549z" fill="#B16600"/>
	<path d="m-191.59 443.71c0.81-4.05 1.68-12.9 7.7699-10.68 2.79 3.96-1.89 7.8599-3.9299 10.95-0.96-0.0599-2.88-0.18-3.84-0.27z" fill="#B16600"/>
	<path d="m-216.91 454.66c2.4-5.4299 5.5499-10.47 9.2099-15.12-0.09 4.6799 0.06 9.4799-0.63 14.19-2.16 0.2401-6.4499 0.6901-8.5799 0.93z" fill="#B16600"/>
	<path d="m75.741-405.94c31.95-10.17 65.909-7.0799 98.849-5.8499-17.94 6.0299-35.82 12.21-53.94 17.67-25.14 12.24-48.54 29.01-65.969 51.06-7.5299 9.6899-11.82 21.45-19.68 30.93-5.6099 6.7199-5.2799 16.26-10.32 23.31-3.18 5.25-8.6399 8.3099-13.5 11.79 1.08 1.29 3.21 3.9 4.2599 5.1899-3.8699 6.6899-8.7599 12.9-11.01 20.4-4.62 13.17-1.8 27.69-7.0199 40.71-3.69-6.9299-7.1099-14.04-12-20.22-3.06 17.07-4.92 34.74-1.29 51.9 1.59 9.0299 5.2199 17.67 5.9699 26.85 0.12 4.7999-5.8499 7.0199-5.6399 11.85-0.09 37.74 9.6599 74.729 24.57 109.2-15.21-8.88-25.83-23.31-38.19-35.49-30.84-34.56-60.149-76.589-60.029-124.74 5.9999-32.97 14.13-65.609 24.66-97.409 3.45-9.7799 6.3-20.31 13.89-27.81 33.99-39.24 75.929-74.129 126.39-89.339z" fill="#FE6904"/>
	<path d="m247.64-403.48c7.4999-10.11 20.01-3.39 27.93 2.43 18.84 1.86 38.01 2.1 56.49 6.2999 40.65 17.79 73.859 52.83 88.499 94.859 12.48 33.69 15.72 70.169 14.25 105.87-1.08 26.28-6.9599 52.29-16.92 76.619-6.21 14.64-13.5 29.25-25.17 40.38-17.4 17.19-35.19 34.89-57.42 45.78 6.3299-15.99 17.7-28.92 27.21-42.93 4.77-13.74 10.65-26.97 16.77-40.14 2.01-18.03 4.17-36.15 8.9999-53.73 4.5-15.3 2.8199-31.35 5.4899-46.92 1.71-9.5399-1.47-18.96-2.8199-28.32-2.79-13.71-3.39-28.14-9.7199-40.86-7.65-16.47-13.41-33.9-23.01-49.35-9.8399-16.05-25.59-26.91-40.68-37.53-21.45-14.25-44.43-27.12-69.899-32.46z" fill="#FE6904"/>
	<path d="m132.32-391.51c22.83-9.4199 48.45-13.35 72.749-7.6499-12.6 10.86-27.03 20.25-36.24 34.41-6.1199 9.4199-7.9199 20.7-11.85 31.05-9.7799 20.79-21.33 41.19-26.58 63.749-2.52 16.17-5.6999 32.46-12.42 47.46-8.5499 11.16-18.63 21.12-27.6 31.98 1.08 3.72 2.16 7.4099 3.27 11.13 6.06 2.46 12.39 4.2 18.96 4.56-5.6999 11.58-7.3199 24.42-9.6299 36.93-7.1099-3.39-14.76-5.1599-22.41-6.8099-6.9899-2.49-13.11-6.8699-19.77-10.08-4.9199 6.2099-10.08 12.24-15.42 18.12-2.67-8.5199-4.44-17.58-1.77-26.34-2.19-4.7999-2.76-11.1-7.9799-13.71-11.61-7.5599-23.43-15.12-32.46-25.83 2.46-6.0599 4.8-12.33 4.2-18.99-0.75-16.83 7.7699-31.86 14.31-46.8 19.56-2.04 35.67 10.41 53.04 16.95 7.4099 2.73 13.29 8.7899 21.12 10.44 3.51-2.07 6.36-5.5799 5.82-9.8999 0.39-28.2-0.09-56.4 0.18-84.599-1.05-1.35-3.1199-4.02-4.17-5.3399-0.69 1.14-2.07 3.4799-2.76 4.6199-18.75 8.3699-37.2 17.85-53.01 31.08 4.2899-15 14.1-27.06 23.31-39.33 22.89-14.88 40.74-37.74 67.109-47.099z" fill="#FE6904"/>
	<path d="m195.2-385.51c5.58-5.67 11.28-13.95 20.49-12.24 8.34 1.8 17.31 5.7899 21.75 13.53 6.45 10.59 13.65 20.64 20.67 30.84 8.1599 11.61 4.3199 26.34 5.2499 39.51-4.3799-7.4399-11.19-12.75-18.45-17.16-4.7699 6.7199-12.3 13.29-10.74 22.41-13.11 20.46-26.67 40.71-39.12 61.619-3.63 5.25-3.84 11.73-4.29 17.88 26.28-0.78 52.23-5.5199 78.479-6.8099 4.5899 15.54 2.79 31.92 3.1199 47.88 0.63 12.06-4.5299 23.13-7.1099 34.62-7.3799 0.84-14.73 1.59-22.08 2.34-8.5199 13.77-12.27 29.67-19.26 44.13-13.29-8.3999-15.18-24.45-23.07-36.75-13.05 2.97-25.38 9.7799-39.15 9.8399-18.09 0.21-36.24 0.6-54.27-0.9 1.41-13.77 7.6499-26.61 7.4399-40.65 18.27 4.8 37.02 7.0499 55.68 9.5399-6.39-19.83-10.77-40.32-13.92-60.899-2.13-10.98 2.34-24.45-6.93-32.91-6.4199 6.0899-12.24 12.81-17.4 20.01 6.5699-25.14 11.7-50.67 19.11-75.569 7.6199-16.29 16.65-31.95 23.01-48.84 2.7601-10.65 14.1-13.89 20.79-21.42z" fill="#FE6904"/>
	<path d="m240.32-398.11c28.65 2.82 51.72 21 76.109 34.44 11.43 5.7599 18.69 16.74 27.72 25.41 9.1799 20.58 21.9 39.78 28.38 61.44 1.95 14.34 10.56 26.58 12.93 40.8 1.05 12.15-3.75 23.82-3.42 35.97-0.42 41.55-13.89 81.479-27.99 120.09-6.0899 18.27-15.69 35.46-29.04 49.41-14.4 13.2-33.3 19.32-50.79 27.21-17.04 6.9599-35.7 7.9499-53.1 13.8 21.33-28.17 34.89-62.159 40.17-96.989-7.8899 6.72-11.07 16.86-11.4 26.88-4.41 9.5399-8.0699 19.38-12.27 28.98-7.38 14.31-17.55 26.88-26.97 39.87-29.22 0.75-58.499 0.75-87.689-0.66-20.85-0.6-25.29-26.61-24.3-42.99-1.56 2.04-3.15 4.11-4.6799 6.1799 1.71 10.62 1.29 21.39 0.66 32.07-8.0699-0.24-15.78-2.5499-22.92-6.2099-13.2-6.8399-29.82-4.86-41.28-15.33-20.01-15.48-24.75-41.58-32.37-64.2-7.8299-19.77-3.03-41.43-3.6-62.069 3.51 11.97 8.2199 23.52 12.63 35.16 3.72 12.96 16.41 19.71 24.78 29.4 7.1399 8.4299 17.55 12.57 27.3 17.1 8.1299-9.9899 16.35-19.95 25.44-29.13 11.82 7.5299 15.03 21.63 16.83 34.56 3.8699-0.78 7.7099-1.71 11.55-2.67 5.46-4.89 11.67-8.85 18.69-11.13 5.76-7.7399 12.51-18.39 23.46-17.67 13.56 8.0999 16.2 27.78 31.38 34.29 7.8299 4.17 14.82-2.85 21.63-5.7899 22.02-8.8199 41.4-22.74 61.259-35.49 9.2699-6.5399 18.84-12.96 26.28-21.63 17.67-20.82 35.58-41.43 53.25-62.249-0.6-4.2899-1.23-8.5799-1.83-12.87-10.23 0.69-18.15 7.4099-26.85 11.91-14.94 6.9299-26.94 20.04-44.01 21.93 3.6-24.87 2.25-50.1 0.87-75.119 4.4399-1.95 8.8799-3.84 13.5-5.34l0.84 0.27c1.02 1.59 3.06 4.7699 4.08 6.3599 1.26-3.21 6.0599-6.1199 3.42-9.9299-6.4199-22.47-23.01-40.35-28.98-62.939-2.07-19.38 0.87-39.51-5.2499-58.29-8.7601-11.19-17.73-22.2-24.42-34.83m-147.81 365.1c1.71-2.01 3.42-4.05 5.13-6.06-1.59-11.91-1.05-23.94-2.13-35.88l-3.27-0.63c-8.0399 12.57 0.93 28.65 0.27 42.57z" fill="#FE6904"/>
	<path d="m49.971-119.8c-0.45-10.41 11.31-23.04 21.87-18.84-6.78 6.8699-13.98 13.32-21.87 18.84z" fill="#794803"/>
	<path d="m191.72-129.13c7.6799 5.79 14.67 13.32 15.33 23.49-9.06-4.5299-11.64-14.94-15.33-23.49z" fill="#794803"/>
	<path d="m105.11-84.582c4.47 0.33 10.35 9.5699 5.22 12.6-4.74-1.2-6.8099-8.4299-5.22-12.6z" fill="#794803"/>
	<path d="m500.6-77.712c-6.54 1.29-6.5699-7.1699 0.06-5.4-1e-4 1.35-0.0301 4.05-0.06 5.4z" fill="#794803"/>
	<path d="m473.42-76.362c21.48 5.22 41.94 13.77 62.939 20.52 11.4 3.7799 23.43 5.5199 34.56 10.14 17.49 7.53 36.78 7.8899 55.229 11.34 3.54 9.5699 13.14 18.57 9.8699 29.43-1.86 7.9499-3.21 16.11-6.3299 23.67-5.16 7.7099-12.57 13.59-18.57 20.61 13.26 9.7199 31.02 5.6099 45.06 13.95 1.2601 4.38 3.87 9.3899 0.2401 13.44-18.48 30.45-39.93 59.069-57.78 89.969-10.26 15.75-16.41 34.02-28.56 48.57-7.14 8.7299-10.23 20.04-17.73 28.5-15.87-2.4599-33.48-5.4899-45.09-17.7-9.0299-8.9399-19.05-17.28-25.74-28.23-3.57-5.7299-0.33-12.45 1.89-18 8.3999-21.33 28.2-35.97 34.95-58.14 5.1899-17.64 11.64-34.86 17.01-52.44 22.14-13.26 45.3-24.69 68.189-36.6-22.77-0.96-44.1 8.8499-63.839 19.08 7.56-13.44 16.05-27.15 29.55-35.37 10.41-7.7999 24.09-8.9399 34.5-16.68-13.71-1.92-27.93 0.99-39.3 8.9699-14.52 9.6299-24.27 24.39-33.48 38.79-0.21-19.41 2.8499-39.24 12.66-56.25 1.86-0.57 5.5499-1.74 7.4099-2.34 1.2001-4.59 2.4301-9.1799 3.6-13.8-15.36-0.21-22.68 16.02-29.31 27.42-2.79 21.51-0.75 43.59-1.8301 65.309-6.5699-1.23-14.13-1.77-18.81-7.2299-9.5399-10.68-14.04-24.6-21.06-36.84-3.18-2.1599-6.2099 1.56-5.7599 4.59 0.66 6.2999 1.68 12.75 4.3799 18.57 6.09 6.5699 13.47 11.85 19.59 18.42-15.51-2.79-24.72-17.31-39.39-21.99-0.45 2.25-1.3499 6.7199-1.7999 8.9699 6.2699 4.3499 12.45 8.8499 18.57 13.41-9.81 40.65-21.81 80.759-35.79 120.12 4.17-4.47 7.4099-9.6899 9.6899-15.36 10.23-24.27 23.67-47.25 31.32-72.569-1.47 17.49-2.31 35.04-4.65 52.44 3.81-2.07 7.68-4.08 11.58-6-2.31 14.04-12.66 24.06-20.01 35.55-4.7399 6.39-2.5499 14.49-1.83 21.72-22.59 25.11-48.9 46.59-70.829 72.239 5.76-1.32 12.51-1.26 16.95-5.8199 14.73-13.29 28.71-27.42 42.69-41.49-4.9199 18.78-6.21 38.22-8.9999 57.36-2.1899 17.58 1.41 35.13 8.7899 51.09 1.44-2.25 4.32-6.78 5.76-9.0299 11.85 17.4 14.76 40.05 31.2 54.33 2.31-2.01 4.62-4.0201 6.9599-6.03-2.61-7.35-5.0699-14.76-7.1999-22.23 9.0298 9.9899 13.62 24.66 26.28 30.81 1.5601-0.75 4.62-2.2199 6.1801-2.9399-3.54-7.71-5.4301-16.05-5.85-24.51 8.9999 9.24 16.8 20.97 30.33 23.82-9.6898 13.65-21.9 25.53-37.05 32.94-23.04 16.41-51.84 21.87-79.469 24.48-23.22-41.88-43.17-86.849-77.939-120.78-8.2799-6.7199-7.0199-19.65-15.57-26.16-5.76-1.47-11.79-1.53-17.67-2.1 0.81-4.4399 4.56-9.7199 0.45-13.62-6.7499-6.12-16.38-5.8199-24.87-6.72-0.78-11.82 4.17-22.65 11.31-31.77 13.56-17.46 25.5-36.27 40.92-52.2 18.42-19.02 47.49-23.07 64.859-43.26 8.9398-3.27 17.16-8.1299 24.24-14.52-11.34-9.5999-24.81-16.17-38.76-21.06 11.1-5.6099 22.89-9.7499 35.34-10.86-4.95-10.68-8.7-21.99-8.1599-33.93 8.7299-0.48 16.83 2.85 25.2 4.38 1.05-0.78 3.12-2.34 4.14-3.12-8.64-10.86-21.12-18.21-32.85-25.35-0.72-9.1799 8.3699-9.1799 15.03-10.77-4.53-4.89-9.6599-9.0899-15.27-12.63 5.9699-0.63 11.94-1.35 17.91-2.0699-0.96-2.85-1.86-5.7-2.76-8.5799 11.34 1.35 22.86 0.87 33.72-2.97-8.0399-7.1999-16.53-13.95-25.59-19.83 14.97-4.7099 29.7-11.01 45.75-10.05 0.09-2.2199 0.2401-6.6299 0.33-8.8499-2.76-4.2299-9.3-3.1199-13.53-5.0399 3.87-3 11.7-3.9 12.54-8.8799-6.4798-4.7399-13.77-8.1599-20.64-12.24m-41.19 230.88c-6.0599 14.76-15.39 27.81-21.93 42.33 18.81-23.04 40.02-48.21 39.24-79.859-5.73 12.54-12.09 24.78-17.31 37.53m-33.36 58.169c4.71 0.96 8.7299-6.3299 7.5599-10.44-4.4699-0.45-9.3599 6.21-7.5599 10.44z" fill="#794803"/>
	<path d="m362.18 43.187c17.19 2.4 34.59 1.32 51.9 1.41 6.9299 9.1499 9.8999 20.28 11.91 31.41-17.01 3.18-32.55 11.01-49.35 14.91 4.4399 5.0099 8.0099 12.33 15.48 13.05 11.49 1.92 23.37 3 33.36 9.6-40.59 19.41-75.479 48.75-106.53 80.939-7.95 11.46-12.66 25.35-24.63 33.66-3.9299-47.58 26.28-91.349 17.79-139.14 6.5399-1.65 13.11-3.36 19.65-5.0399-0.6299-5.49-1.44-10.98-1.2-16.5 2.1-3.66 6.3599-2.82 9.8399-2.19 10.53 2.25 19.17 9.2399 29.31 12.51 5.7299 1.05 14.4-4.1999 10.83-10.83-5.6099-8.3101-12.66-15.54-18.36-23.79z" fill="#794803"/>
	<path d="m491.21 64.847c-6.96-3.87 6.03-6.8999 2.3999-0.18l-2.3999 0.18z" fill="#794803"/>
	<path d="m107.57 114.77c6.72-7.6499 13.41-15.45 22.23-20.82-2.67 8.3699-4.0199 17.1-4.2 25.89-17.73-0.24-31.83 11.67-47.31 18.51-0.18-8.7899-0.24-17.58-0.18-26.37 4.86-2.25 9.7799-4.4099 14.73-6.5399-2.7899 5.4599-5.1899 11.1-8.0399 16.53 7.7999-0.99 17.25-0.42 22.77-7.1999z" fill="#794803"/>
	<path d="m-42.098 162.89c13.8-22.44 31.5-42.36 47.25-63.509-1.38 11.55-3.9 22.89-5.9999 34.29 5.7899-3.9 10.41-11.19 17.97-11.28 11.7 0.24 19.71-9.6899 29.82-14.04 0.9 6.6299-5.25 16.29 1.38 20.79 7.7999-1.32 15.21-4.4399 23.1-5.3999-3.84 8.5799-7.7699 17.22-9.1799 26.61 5.07 0.63 10.17 1.26 15.24 1.86 7.9799-9.9899 19.89-14.61 32.49-14.76-2.94 6.8699-6.9299 13.23-11.82 18.87-6.1799 0-12.33 0.09-18.45 0.24-0.15 8.6699 9.0299 6.2399 14.85 7.35-1.53 3.8999-3.03 7.7999-4.5 11.7-19.02 5.0099-41.37 6.4499-54.33 23.34 17.88 3.36 28.86-16.14 46.65-15.66-1.02 4.05-2.1 8.0999-3.18 12.12-14.91 12.63-32.58 20.94-48.99 31.11-27 27.03-55.35 52.65-82.469 79.589-15.9 17.04-37.56 28.65-48.69 49.92-4.8599-7.4399-5.3099-16.47-7.7999-24.75-4.05-10.95-12.45-19.59-21.36-26.79-2.25-3.57-3.5699-8.0699-7.2299-10.47-12.84-8.0999-24.78-18.24-39.9-21.9 4.6199-3.84 9.4499-7.47 14.85-10.17 13.92-6.4499 22.89-20.04 37.08-26.19 10.32-4.14 16.41-13.65 23.1-21.96 12.21-16.05 27.99-28.59 42.93-41.94 25.29-0.81 41.28 20.55 59.879 33.96-1.23-12.33-13.83-17.52-20.79-26.28-5.7002-7.6501-15.72-9.9001-21.9-16.65m-13.68 17.55c8.9399 9.8699 20.88 16.14 30.6 25.11 9.3899 7.95 17.16 17.52 25.41 26.58-4.35-13.65-16.26-22.56-24.03-34.14-6.87-11.22-20.49-13.56-31.98-17.55z" fill="#794803"/>
	<path d="m132.56 122.36c5.5799-4.35 9.5399-10.26 12.87-16.44 33.06 54.93 93.749 82.289 137.58 126.75 1.89 10.29 3.69 21.15 9.9599 29.85 4.32 4.86 11.28 5.3999 17.16 7.1999 0.63 4.11 1.2 8.2499 1.71 12.42 8.8799 4.0499 17.64 8.3999 26.31 12.96-1.08 19.47 1.77 38.76 4.59 57.96 1.77 25.47 4.29 50.91 4.4399 76.469-6.4799 8.6699-17.91 6.1499-26.97 4.0799-9.7199-2.3999-18-8.2199-26.85-12.57-19.47-10.62-43.2-12.27-59.879-28.02-1.53-25.29 16.02-46.44 16.26-71.369 0.48-13.23 0.24-26.64-3.24-39.51 21.3 3.7199 38.22 23.19 60.809 18.66-7.3499-8.9999-20.7-4.4099-28.86-11.88-8.2499-7.3499-18.27-12-27.57-17.79 17.79 7.08 35.85 16.05 55.62 14.16-11.25-9.4199-26.04-12.21-39-18.36-12.84-5.9999-27.72-8.8799-37.68-19.65 4.74 0.96 9.4499 1.98 14.22 2.94-4.68-5.8799-9.9599-11.31-15.93-15.9-15.48-12.24-30.18-25.44-45.33-38.1 18.99 9.03 38.01 18.06 57.479 25.98 13.02 5.0099 25.29 13.32 39.81 12.84-19.44-17.67-42.81-31.68-68.369-38.37-11.34-3.42-20.67-11.73-32.43-13.83-27-1.86-54.27-6.45-80.999 0.33 3.42-3.5099 7.2299-6.8999 9.0299-11.58 7.2897-16.95 15.54-33.54 25.26-49.23z" fill="#794803"/>
	<path d="m558.56 246.77c1.44-6.81 6.6599-12.24 11.1-17.37 6.48 4.2 11.67 10.02 17.22 15.33 0.0601 11.88-1.59 23.64-3.4199 35.37-8.73-10.62-23.46-18.39-24.9-33.33z" fill="#794803"/>
	<path d="m560.51 324.55c4.0499 1.26 8.1299 2.46 12.21 3.6-1.4999 3.2399-2.8799 6.5399-4.1099 9.8999-2.76-4.47-5.4899-8.9699-8.0999-13.5z" fill="#794803"/>
	<path d="m-294.07 359.02c4.44-3.96 10.5-4.62 16.2-4.47-0.18 6.33-11.73 7.17-16.2 4.47z" fill="#794803"/>
	<path d="m326.45 542.62c6.5999 9.6899 5.0099 21.6 3.9599 32.58-1.14-10.89-2.9099-21.69-3.9599-32.58z" fill="#794803"/>
	<path d="m434.3 578.77c2.52-3.57 4.3499-3.21 5.55 1.02-1.3801-0.2401-4.14-0.75-5.55-1.02z" fill="#794803"/>
	<path d="m465.56 799.21c5.01 3.9-2.0999 10.2-4.1399 3.48 1.02-0.8701 3.09-2.61 4.1399-3.48z" fill="#794803"/>
	<path d="m512.96 856.45c3.8099 1.9199 3.6899 3.9299-0.36 5.9999-3.87-1.95-3.7201-3.9599 0.36-5.9999z" fill="#794803"/>
	<path d="m381.26 870.94c3.81 1.89 3.75 3.93-0.24 6.12-3.8399-1.92-3.7499-3.96 0.24-6.12z" fill="#794803"/>
	<path d="m237.38 892.36c1.56 1.4399 1.56 1.4399 0 0z" fill="#794803"/>
	<path d="m438.71-127.45c12.6-3.8999 25.32-7.9199 38.58-8.6999-7.4999 5.0999-14.76 10.68-20.67 17.64 6.5099 8.6699 17.52 6.2699 26.91 6.3599-10.92 2.91-21.78 7.2899-29.31 16.14-11.67 2.04-23.49 3.5399-35.37 3.1499 9.0599-8.6699 24.3-6.1799 31.23-17.46-7.65-0.51-15.24 0.63-22.5 3 2.85-7.08 5.04-15.03 11.13-20.13z" fill="#F2BF50"/>
	<path d="m471.74-122.17c1.02-2.85 3-4.68 5.9399-5.46-0.03 1.86-0.12 5.6099-0.15 7.4699-1.4401-0.5099-4.35-1.4999-5.7899-2.0099z" fill="#F2BF50"/>
	<path d="m480.56-102.67c2.16-0.45 6.4799-1.32 8.6399-1.77-1.8 0.87-5.3999 2.64-7.1999 3.51 1.59 1.35 4.7699 4.0499 6.3599 5.3999-5.25-0.15-10.5-0.21-15.72-0.27 2.64-2.2799 5.28-4.5899 7.9199-6.8699z" fill="#F2BF50"/>
	<path d="m437.63-85.632c19.38 1.26 38.37-5.1899 57.75-2.4-16.35 4.65-37.77 0.45-47.94 17.34 8.0999 2.85 16.29 5.43 24.75 7.02-4.53 2.5499-13.92 2.19-13.2 9.2099 6.1199 4.89 13.74 7.1699 21.36 8.6099-8.2799 1.5-16.14 4.56-24.27 6.5699-8.67 0.87-17.4 0.45-26.07 1.08 6.2999 7.7999 17.97 9.5399 21.72 19.62 2.37 0.87 4.7699 1.74 7.1699 2.61-11.94 2.64-24.06 4.5-36.3 4.7699 0.9599 2.16 1.9199 4.35 2.91 6.5099-5.64 1.26-11.1 3.12-16.08 6.03 4.26 3.6299 8.67 7.0799 13.29 10.26-7.1699-0.09-14.34 0.24-21.51 0.72 4.62 13.98 17.7 22.29 31.14 26.49-19.26 0.72-38.49 1.05-57.75 0.78-8.3999 0.12-17.13-0.93-25.14 2.3099 5.7 7.2299 11.43 14.43 17.49 21.36-12.72-5.9399-26.91-6.8999-40.71-7.62-2.28 0.9-6.8699 2.76-9.1499 3.66 2.01 7.4699 4.02 14.94 6 22.41-10.2-0.72-20.28-2.76-29.91-6.2399-1.65 0.9-4.95 2.7-6.5999 3.6 0.18 2.46 0.48 7.3199 0.66 9.7499-4.6799-2.79-9.1499-6.09-14.37-7.7399-1.41 1.59-4.2 4.7699-5.61 6.3599-5.1599-4.83-10.62-9.7199-18.24-9.2699-3.03 7.1399-4.6499 14.76-5.3999 22.5-4.68-4.17-8.7-8.9699-12.48-13.95-4.08 1.35-8.1599 2.7-12.24 4.05-2.46-5.2799-4.92-10.53-7.3499-15.78-13.17 1.89-17.4 15.3-24.15 24.75-0.84-19.41-0.51-38.88-2.88-58.14-4.5599 3.36-8.7299 7.2599-11.94 11.97-11.22 15.57-23.43 30.36-34.65 45.96 2.64-4.89 5.31-9.7499 7.86-14.67-1.86-1.44-5.5799-4.2899-7.44-5.6999-13.89 6.4199-25.71 16.2-36.96 26.4 3.57-6.4199 7.4399-12.69 11.01-19.11-7.6499-2.31-13.2 4.4399-19.35 7.6799-10.95 6.39-22.56 11.91-31.83 20.79 3.93-10.77 5.9999-22.14 7.0199-33.54-17.31 5.64-32.7 15.54-48.63 24.06-1.23 0.69-3.6599 2.1-4.8899 2.7899 3.09-6.8399 7.0199-13.29 9.9599-20.19-2.01-6.4799-10.02-6.4799-15.45-7.7099 4.92-5.0099 9.6299-10.23 14.28-15.54-7.3799-0.72-15.51-3.6-22.41 0.57-8.6099 4.38-16.92 9.3299-25.77 13.17 7.7999-8.2799 17.88-15.3 20.82-26.94-12.93-7.4999-25.83 5.82-39.69 2.85 8.9999-4.41 18.27-8.6399 25.47-15.87-7.2899-4.59-14.94-9.42-23.97-8.9699 13.44-2.43 24.3-11.19 36.87-15.75 16.83-3.45 33.84-7.1099 49.41-14.7 3.15 2.34 6.3599 4.71 9.5399 7.05-12.36 10.47-28.71 14.4-40.98 24.93 21.93-1.2 37.29-20.94 59.669-21.12-14.43 6.8699-27.27 16.71-35.4 30.72 9.2999-0.93 16.68-6.9299 24.66-11.16 3.48-4.26 6.6599-8.9399 11.1-12.27 22.41-3.2999 46.14-3.9 67.529 4.59 16.02 1.08 32.13 0.09 48.18 0.45 17.07 0.51 33.51-4.59 50.28-6.72 0.15 10.53-0.06 21.12 1.65 31.53 5.34-12.24 3.3899-27.21 13.8-37.02 11.22 12.63 11.49 30.51 17.37 45.66 5.0099-12.42 4.23-27.36-3.8399-38.34 1.05-3 2.1299-5.9999 3.2099-8.9699 6.8999-2.58 13.44-5.9699 19.68-9.9299 1.23 0.66 3.69 2.01 4.92 2.67 10.32-1.17 18.03 6.9899 27.75 8.4599 9.5699 1.26 19.08 3.06 28.77 3.2999-14.4-8.3699-31.53-9.9299-46.71-16.65 6.45-4.62 13.08-8.9399 20.01-12.81 1.23 1.11 3.72 3.33 4.95 4.4399 17.49-0.33 34.89 1.05 52.11 3.99-9.1199-11.67-25.53-10.14-38.64-12.48 8.5799-9.5699 20.19-17.52 33.54-17.25 10.47-1.86 22.44 7.1699 31.02-1.86-9.1199-2.04-18.3-3.75-27.45-5.6699 0.12-1.77 0.3-5.31 0.42-7.0799 11.73 0.15 23.43-0.51 35.13-1.02 11.13 1.41 22.62 4.3499 33.27-1.02-15.81-7.59-34.2-6.84-50.91-11.91 7.1097-14.37 23.52-20.22 38.759-19.29m-378.99 138.36c8.7899-6.9299 16.95-14.61 25.14-22.23-8.9999 6.3-21.42 11.1-25.14 22.23z" fill="#F2BF50"/>
	<path d="m-15.878 11.088c2.61-2.88 5.9699-4.47 10.08-4.7699 1.98 0.24 5.8799 0.72 7.8299 0.96-5.0699 3.7799-11.7 6.0899-17.91 3.8099z" fill="#F2BF50"/>
	<path d="m497.54 122.69l1.11-1.29c-0.27 0.3-0.8099 0.96-1.11 1.29z" fill="#F2BF50"/>
	<path d="m478.4 207.38c4.83 10.86-0.72 22.35-1.5 33.48-1.08 16.44-1.95 33.66 4.44 49.23 4.08-18.24 5.1-36.99 4.89-55.65-0.45-6.06 3.12-11.22 5.9099-16.23 6 16.17-5.58 32.88 0.57 49.05 6.0899 16.29 5.34 35.07 15.54 49.71 2.58-17.61-5.1299-34.47-4.2899-52.02 0.21-12.48 0.03-24.96 0.84-37.41 2.82 5.9999 3.4199 12.57 3.18 19.11 2.4899 18.18 12.63 33.81 19.92 50.31 2.25 5.2799 5.1 10.26 8.8199 14.67 0.09-5.7299 0-11.7-2.79-16.86-8.9698-17.61-15.15-36.9-16.26-56.699 7.9499 0.24 16.53 0.12 23.19 5.25 15.21 11.49 16.8 34.17 33.72 43.92 8.0399 5.6099 17.85 7.74 26.19 12.84-12.6-2.8499-24.96-6.6299-36.99-11.28 2.0699 5.7599 3.48 11.76 6.1799 17.31 5.0099 7.26 12.12 12.75 17.94 19.35-14.91-5.1-26.82-15.69-36.27-27.99-0.4199 10.2-3.3299 21.42 2.3101 30.78 5.0699 9.2999 10.05 18.75 12.93 29.04-7.3199-4.5-14.55-9.1499-21.78-13.8-1.44 1.5-4.3199 4.47-5.7599 5.97-10.08-7.56-18.93-17.76-31.95-20.07 0.6301 4.7699 1.23 9.5399 1.89 14.34-5.46-13.35-12.39-26.46-23.91-35.55-3.5099 9.4499-3.93 19.53-4.14 29.52-7.9199-15.45-6.8399-34.89-19.32-47.91-1.5299 1.86-4.59 5.6099-6.1199 7.4999 0.0902-31.11 4.3501-63.81 22.62-89.909z" fill="#F2BF50"/>
	<path d="m-189.88 282.38c7.1699-5.1599 15.96-0.96 21.39 4.65-8.0999 5.3399-17.07 9.7199-23.4 17.31-10.02 11.4-22.14 20.91-31.14 33.21 22.26-15.12 40.47-37.02 66.989-45.12-2.22 4.4699-5.9699 7.8299-10.05 10.68-41.76 31.2-77.309 71.579-99.269 119.16-15.03 2.6699-19.95 19.35-29.34 29.34 9.4199-28.38 20.25-56.61 36.51-81.839 5.0099-7.8599 9.3899-16.08 13.74-24.3-19.53-0.63-38.25 6.7499-57.75 5.7299 10.41-9.9899 28.77-5.1 36.33-18.6-2.28-1.2599-6.8399-3.7799-9.1199-5.0399-1.74-0.21-5.2199-0.5999-6.9899-0.81 4.05-3.6599 8.0699-7.3499 12.21-10.89-14.64-6.5399-32.94-4.68-44.07-17.94 41.46 5.43 87.209 7.98 123.96-15.54z" fill="#F2BF50"/>
	<path d="m-144.94 302.26c-0.18 1.62-0.36 3.27-0.54 4.9199-20.31 15.93-42.42 31.11-56.13 53.58-5.0099 7.8599-11.25 14.82-16.86 22.29-4.41 7.3199-6.5099 15.75-9.3599 23.79 12.12-17.85 24.03-35.97 37.89-52.47 16.26-14.31 32.79-28.71 51.72-39.42-11.04 17.94-28.41 30.9-38.64 49.38-8.1599 14.34-18.9 27.36-25.14 42.72 11.01-11.91 16.83-27.75 28.68-39.06 14.67-14.01 27.78-29.55 42.78-43.23-1.08 3.45-2.13 6.8999-3.1499 10.41-4.8 0.39-9.7799 1.3799-12.15 6.0899-15.39 23.49-29.52 47.82-44.88 71.339 1.86 0.9 5.61 2.73 7.4699 3.6299-7.3199 9.9-14.04 20.4-17.22 32.43 0.06-10.59 0.33-21.96-6.9899-30.54-7.2299 10.32-10.14 22.95-17.28 33.42-2.25-11.28-3.54-22.74-3.84-34.23-14.28 14.28-21.21 33.21-28.29 51.6-1.53-7.0199-3-14.07-4.5-21.09l-5.7299 3.15c2.88-13.65 4.86-28.17 15.03-38.67 13.02-24 26.76-48.21 46.68-67.289 17.04-18.18 38.34-31.62 60.449-42.75z" fill="#F2BF50"/>
	<path d="m587.21 315.64c-6.15-0.15-6.21-8.46 0.48-5.4899-0.12 1.38-0.3599 4.11-0.48 5.4899z" fill="#F2BF50"/>
	<path d="m-288.31 333.67c6.8999-2.1299 6.3 6.12-0.03 5.3999 0-1.3499 0.03-4.0499 0.03-5.3999z" fill="#F2BF50"/>
	<path d="m-177.88 403.03c13.38-20.37 25.29-42.15 42.33-59.73-13.26 36.51-32.49 70.649-43.83 107.94 3.06-13.74 4.5-27.96 9.7199-41.13 2.34-5.76 3.96-11.79 4.62-17.97-4.35 3.5101-8.5799 7.2301-12.84 10.89z" fill="#F2BF50"/>
	<path d="m476.24 807.28c15.99-5.4899 33.51-10.71 50.28-5.28-0.1201 12.03 1.23 24.72 9.9 33.93-22.77-0.36-46.2-0.09-68.039 7.05 2.3399-11.61-1.9801-27.15 7.8599-35.7m6.4499 6.8098c-0.2401 5.22-0.48 10.47-0.69 15.75 13.56 1.05 27.6-7.2 40.32 0.03 0.51-11.07-4.62-21.15-15.33-25.02-8.0099 3.36-16.11 6.42-24.3 9.2399z" fill="#F2BF50"/>
	<path d="m294.92 815.17c8.6699-3.45 16.86 1.98 23.64 6.84 1.98 0.0599 5.9399 0.21 7.92 0.27 7.0799 7.08 14.28 13.98 21.84 20.55-10.08 12.03-23.01 21.12-36.03 29.64-17.25-9.03-30.93-26.34-51.72-26.94 11.67-9.8399 20.25-23.7 34.35-30.36m-11.28 24.66c11.4 4.05 17.22 15.06 24.81 23.61 9.3599-5.2499 16.83-13.05 22.11-22.35-8.9999-6.9299-18.51-18.33-31.17-15.12-6.78 2.4301-16.11 4.92-15.75 13.86z" fill="#F2BF50"/>
	<path d="m332.69 912.31c0.72-0.9 2.16-2.7 2.88-3.5699 0.57 0.9899 1.65 3.03 2.19 4.05-1.26-0.1201-3.81-0.3601-5.07-0.4801z" fill="#F2BF50"/>
	<path d="m30.232-9.1922c6.7499-1.26 3.15 8.8199-0.72 2.67l0.72-2.67z" fill="#FEFEFE"/>
	<path d="m-42.218 40.127c2.1 0.24 6.2399 0.75 8.3399 1.02-1.95 3-5.5799 4.26-9.0599 4.05 0.18-1.26 0.54-3.81 0.72-5.07z" fill="#FEFEFE"/>
	<path d="m-8.0782 79.697c2.94-1.86 7.1699-2.04 9.4499 1.05-0.81 0.78-2.43 2.3099-3.24 3.09-1.5599-1.02-4.6799-3.12-6.2099-4.14z" fill="#FEFEFE"/>
	<path d="m-303.43 315.58c6.2099-3.21 5.3399 6.7199-0.27 2.91l0.27-2.91z" fill="#FEFEFE"/>
	<path d="m-233.71 441.58c2.16 2.94 2.58 6.12 1.29 9.5399-1.47-0.12-4.41-0.33-5.8799-0.45 0.5699-3.54 2.0999-6.57 4.5899-9.0899z" fill="#FEFEFE"/>
	<path d="m-283.06 456.61c-0.63-4.4099 1.65-8.6399 5.1599-11.22 0.57 2.19 1.68 6.51 2.25 8.67l-1.38 2.8499c-1.4999-0.0901-4.4999-0.21-6.0299-0.3z" fill="#FEFEFE"/>
	<path d="m-191.59 443.71c0.96 0.09 2.88 0.21 3.84 0.27-0.81 4.35-1.68 8.67-3.21 12.87-1.14-0.09-3.48-0.21-4.6199-0.27 0.93-4.4099 2.31-8.6999 3.9899-12.87z" fill="#FEFEFE"/>
	<path d="m369.02 618.73c18.72-7.4099 36.51-16.59 53.55-27.36 5.3399 15.57 8.9399 32.31 5.64 48.72-5.4299 33.57-27.87 60.75-38.28 92.549-11.43 29.82-18.84 62.07-16.05 94.139 0.84 0.7199 2.55 2.16 3.39 2.8799-4.0499 1.53-8.0099 3.24-11.82 5.28-3.81 0.33-7.6499 0.6-11.43 0.87 6.27-9.8099 18.33-18 16.38-30.96-10.92-9.4499-19.32-23.46-34.71-25.89-0.12-9.3599-0.24-18.87 2.34-27.96 1.89-9.8099 9.7499-17.31 10.95-27.36 3.5699-22.71 1.89-45.9-0.66-68.639-0.63-9.0899-5.43-18.54-1.74-27.51 5.31-6.8399 14.22-8.7599 22.44-8.7599z" fill="#FEFEFE"/>
	<path d="m497.93 607.3c10.89-0.6899 19.56-7.89 28.98-12.57 7.3799 15.99 12.27 33.33 12.39 51-0.06 18.69 0.9899 37.74-3.96 55.95-8.1299 18.93-14.13 38.67-21.75 57.78-12.21-6.3599-23.4 4.1099-35.85 3.03-1.62-9.96-4.2-19.68-6.6599-29.4-3.36-14.91-11.94-28.02-14.67-43.11-3.78-21.72 0.21-43.68 2.46-65.339 0.39-5.7899 2.61-11.16 4.7399-16.47 11.1 5.25 22.89 0.27 34.32-0.87z" fill="#FEFEFE"/>
	<path d="m307.67 792.28c5.7599-3.8999 12.93-3.8099 19.56-2.91-5.8799 3.87-11.97 7.4699-17.82 11.34-0.63-2.8499-1.38-5.61-1.74-8.4299z" fill="#FEFEFE"/>
	<path d="m297.35 837.01c2.73-2.04 5.49-4.08 8.3699-5.8799-1.56 4.14-3.45 8.1899-5.2499 12.24-1.05-2.1301-2.0699-4.26-3.12-6.36z" fill="#FEFEFE"/>
	<path d="m529.37 866.23c0.1201-5.4899-2.58-11.4 4.41-13.95 3.96 5.28 5.9399 11.49 5.91 18.12-6.42-0.09-12.84-0.27-19.26-0.27 2.2499-0.96 6.6899-2.91 8.9399-3.9z" fill="#FEFEFE"/>
	<path d="m232.91 870.88c7.6499-6.51 17.73-11.16 27-4.8599-1.92 3.5099-3.9599 6.9598-6.1199 10.35-7.05-1.5-13.74-4.3799-20.88-5.4899z" fill="#FEFEFE"/>
	<path d="m229.76 877.06c7.2 0.09 13.71 3.1499 18.93 8.0399-6.3299-2.67-12.69-5.2199-18.93-8.0399z" fill="#FEFEFE"/>
	<path d="m533.78 878.29c5.8499-0.6301 11.73-1.08 17.64-1.32 3.3599 4.6199 6.6599 9.3299 9.8399 14.1-9.15-2.3699-18.45-4.32-27.93-3.6899 1.08-0.57 3.27-1.6799 4.3799-2.2499-1.35-2.2802-2.64-4.5602-3.93-6.8401z" fill="#FEFEFE"/>
	<path d="m321.08 901.87c19.11-7.3799 38.55-15.39 59.489-13.95-0.54 5.55-2.55 10.71-5.9099 15.18-8.8499 0-17.67 1.23-25.77 4.8599-4.17-9.9599-14.82-11.13-23.16-5.37-4.62 4.7401-10.08 8.64-14.46 13.62-4.5299 7.6799-6.9599 16.56-12.84 23.43-6.4199 9.39-16.38 15.27-25.65 21.48 15.18-13.26 28.41-28.8 38.07-46.53 3.18-4.3799 4.5-10.98 10.23-12.72z" fill="#FEFEFE"/>
	<path d="m536.21 902.62c10.17-1.59 20.28-3.48 30.15-6.5099 7.41 7.3799 14.37 15.21 20.13 23.97 0.45 10.11 2.1899 20.16 2.79 30.27-0.96 0.7199-2.82 2.1-3.75 2.7899l0.75-5.3999c-10.38-0.8101-20.4-11.52-30.12-3.7499 0-1.32 0.03-3.96 0.03-5.28 8.1299-1.5599 19.26-0.78 23.7-9.2999-4.6499-0.9899-9.33-1.8599-13.98-2.6699 2.4899-2.19 4.98-4.35 7.4999-6.4799-5.1299-5.07-9.7499-10.89-16.02-14.64-6.9299-1.8301-14.07-2.4001-21.18-3.0001z" fill="#FEFEFE"/>
	<path d="m176.72 900.55c14.1-3.72 29.19-2.73 43.17 0.96-12.27 2.28-25.5 7.7399-37.41 1.14-1.92 3.21-3.84 6.45-5.6999 9.7199-3.75-9.3599-15.63-3.87-13.77 5.1-2.43-2.04-4.8899-4.08-7.3499-6.0899-3.66 2.5799-7.3499 5.0699-11.07 7.5899 1.02 1.47 3.03 4.3799 4.02 5.8499-2.55-1.41-5.1299-2.7599-7.6799-4.14-3.7799 1.83-6.8999 7.7999-11.67 5.97-11.82-4.7401-23.19 3.4199-34.5 6.4199 5.0999-5.8499 10.35-11.64 16.59-16.29 12.84-2.3099 25.68-4.5599 38.52-6.87 8.0999-5.31 17.79-6.54 26.85-9.3599z" fill="#FEFEFE"/>
	<path d="m87.711 946.87c16.56 4.9499 33.51 8.6099 50.07 13.65 12.15 3.2099 23.7 8.5799 36.12 10.74 9.4199 1.8 16.98 9.2699 26.88 9.4799 12.24-0.54 24.45 0.6299 36.69-0.63-7.4999 2.1899-15.3 2.85-23.07 2.97-21.6-2.79-44.79-2.28-64.229-13.59-20.01-10.08-41.88-15.78-64.049-18.63 0.3901-1.0202 1.1701-3.0001 1.5901-3.9901z" fill="#FEFEFE"/>
	<path d="m554.99 976.09c13.2-6.1499 27.75-7.9499 42.09-8.9699-1.29 3.33-2.5201 6.78-3.7499 10.17-14.58 3.7799-29.55 3.7499-44.46 4.3199-8.8199 3.45-18.21 5.0099-27.21 7.7999-13.38 5.79-28.32 3.5699-42.48 3.54-7.7099 0.27-14.34-4.26-18.81-10.2 18.45 10.5 41.58 8.3699 59.46-2.28 11.55-2.0698 23.58-1.9498 35.16-4.3799z" fill="#FEFEFE"/>
</svg>