<?xml version="1.0" encoding="UTF-8"?>
<svg viewBox="0 0 472.8414 683.37067" xmlns="http://www.w3.org/2000/svg">
 <defs>
  <filter id="c"/>
  <filter id="d" x="-.16837" y="-.14532" width="1.3367" height="1.2906">
   <feGaussianBlur stdDeviation="4.42132"/>
  </filter>
  <radialGradient id="b" cx="202.88" cy="353.82" r="29.561" gradientTransform="matrix(1 0 0 1.3422 0 -121.08)" gradientUnits="userSpaceOnUse">
   <stop stop-color="#707270" offset="0"/>
   <stop stop-color="#8f8f90" stop-opacity="0" offset="1"/>
  </radialGradient>
  <radialGradient id="a" cx="273" cy="864.4" r="4.3712" gradientTransform="matrix(1 0 0 1.0909 0 -78.582)" gradientUnits="userSpaceOnUse">
   <stop stop-color="#fff" offset="0"/>
   <stop stop-color="#39393b" offset="1"/>
  </radialGradient>
 </defs>
 <g transform="translate(-91.236 -229.29)">
  <path d="m337.17 847.33-4.4945-27.295 28.985-2.7547 0.41737 27.547" fill="#101619" stroke="#000"/>
  <path d="m326.95 860.07c4.23-34.252 108.94-19.219 77.702 26.002-26.859-3.4318-52.908-11.292-77.702-26.002z" fill="#393a3a" stroke="#000"/>
  <path d="m224.39 856.85-0.50723-28.409 25.361-0.9969-3.0434 28.41" fill="#101619" stroke="#000"/>
  <path d="m91.736 870.62s41.406-125.35 50.195-190.39c7.1087-52.605-2.7223-106.34 1.7308-159.24 4.9495-58.791-1.8972-123.78 27.694-174.82 18.936-32.662 55.4-52.4 88.274-70.965 37.985-21.451 79.463-49.127 122.89-45.002 23.444 2.2266 46.908 17.174 60.58 36.348 17.803 24.968 22.579 59.544 19.039 90.005-2.5025 21.535-27.694 58.849-27.694 58.849l1.7309 50.195s24.193-20.742 31.155-34.617c6.5974-13.147 8.6543-43.271 8.6543-43.271 24.809 54.128 49.618 66.665 74.427 29.425 0 0-22.051 67.892-46.733 91.736-20.606 19.906-81.175 21.608-83.081 50.195 0 0-0.71266 38.031 0 64.042 1.3054 47.643 19.12 94.304 17.309 141.93-1.0065 26.458-18.373 51.56-15.578 77.889 1.9912 18.758 22.501 51.926 22.501 51.926s-67.137-81.45-102.12-62.311c-23.289 12.741-1.7309 79.62-1.7309 79.62s-37.875-77.506-74.427-81.35c-29.616-3.1146-72.696 51.926-72.696 51.926s17.037-63.277-5.1926-74.427c-34.333-17.22-96.928 62.311-96.928 62.311z" fill="#889c93" stroke="#000"/>
  <path d="m205.97 842.93c48.105-73.001 13.544-249.33 12.116-384.25" fill="#889c93" stroke="#000"/>
  <path d="m320.21 856.78c-63.757-70.673-58.039-210.82-84.812-318.48" fill="#889c93" stroke="#000"/>
  <path d="m427.52 863.7c-36.972-16.959-63.708-165.54-74.427-270.01" fill="#889c93" stroke="#000"/>
  <path d="m316.75 503.68s37.284-62.224 38.079-96.928c0.61388-26.814-27.278-49.369-25.963-76.158 1.3669-27.852 11.172-61.061 34.617-76.158 15.523-9.9953 40.099-10.351 55.387 0 20.582 13.935 25.711 44.458 27.694 69.234 2.3108 28.882-4.1214 59.973-19.039 84.812-25.067 41.738-110.77 95.197-110.77 95.197z" fill="#889c93" stroke="#000"/>
  <path d="m316.75 502.81c-19.633 40.395-10.237 65.41 6.9234 87.408" fill="#889c93" stroke="#000"/>
  <path d="m435.71 463.67c-1.2234 33.591-2.6623 66.607-13.463 74.658" fill="#889c93" stroke="#000"/>
  <path d="m166.45 731.7-7.3434-13.463 14.687 3.6717v-8.5673l8.5673 14.687 9.7912 4.8956-13.463 2.4478-1.2239-4.8956-11.015 1.2239z" fill="#413d43" stroke="#000"/>
  <path d="m430.81 792.89 24.478 26.926-13.463-1.2239-3.6717 9.7912-1.2239-14.687h-8.5673v-6.1195" fill="#889c93" stroke="#000"/>
  <path d="m520.01 438.12c-9.2961-0.74627-18.912-8.4656-28.724-23.058-4.2274-6.2873-9.227-15.339-13.46-24.37-1.048-2.2357-1.8803-4.0872-1.8495-4.1144s3.0696 2.6362 6.753 5.9186c7.555 6.7325 12.454 10.91 16.562 14.122 13.398 10.477 23.639 15.317 33.478 15.822 4.9873 0.25598 10.643-0.91556 14.894-3.085 0.57243-0.29215 1.0408-0.48465 1.0408-0.42778 0 0.20534-2.8214 3.9015-4.6249 6.0587-6.0628 7.2521-12.632 11.742-18.807 12.854-2.1325 0.38398-3.2334 0.44244-5.2629 0.27952z" fill="#413d43"/>
  <path d="m475.94 386.05c24.478 21.298 48.069 46.558 73.789 31.626" fill="none" stroke="#000"/>
  <path d="m321.62 497.75c0.21336-0.46364 4.4906-8.9355 9.5049-18.826 21.218-41.854 23.75-63.595 17.878-81.487-1.1158-3.4-9.3719-16.269-14.226-25.851s-1.7187-23.322-2.6495-26.413c-4.7219-15.681 0.26598-44.633 11.371-66.002 4.8682-9.368 16.365-21.705 23.724-25.459 13.487-6.8791 31.156-7.4777 44.335-1.502 19.064 8.6441 29.004 28.272 33.133 65.426 1.4967 13.467 1.5938 18.645 0.55919 29.814-2.144 23.145-8.9672 44.363-19.913 61.925-12.224 19.612-43.894 48.169-87.059 78.5-14.104 9.9106-17.64 12.007-16.659 9.8756z" fill="#2a2a2f"/>
  <path transform="matrix(1.1667 0 0 1 -315.04 -223.63)" d="m645.61 555.17a5.1926 11.683 0 1 1 -10.385 0 5.1926 11.683 0 1 1 10.385 0z" fill="#7b7e81" stroke="#572b2b" stroke-linecap="round" stroke-width=".46291"/>
  <path d="m455.33 354.62s0.81599-5.6111 3.029-6.058c2.607-0.52646 5.7678 2.5488 6.058 5.1926 0.23608 2.1506-3.8944 5.1926-3.8944 5.1926" fill="#85c27b" stroke="#000"/>
  <path d="m415.14 355.72c-1.2018 0.74204-3.1943-0.95237-4.2374 0-2.874 2.6241-2.9797 8.2421-1.0593 11.627 5.2192 9.1999 18.426 10.856 28.602 13.741 6.4903 1.84 20.128 2.114 20.128 2.114s-3.6348 25.459 5.2967 26.425c6.1198 0.66167 7.4154-16.912 7.4154-16.912l2.1187-7.399c2.6037-9.0929-6.9596-17.86-12.712-25.368-8.0536-10.511-24.244-14.342-29.662-26.425-1.1533-2.572 0-8.456 0-8.456s7.2861 0.22939 10.593-1.057c3.2884-1.279 8.4748-6.342 8.4748-6.342s-10.079-19.13-10.593-29.596c-0.14265-2.9023 2.7196-5.6131 2.1187-8.456-1.663-7.8674-8.9745-13.516-14.831-19.026-4.9898-4.695-10.162-10.693-16.95-11.627-16.258-2.2363-40.838 0.49289-46.611 15.855 0 0-14.634 27.277-15.89 42.28-1.078 12.878 7.3218 25.13 7.4154 38.052 0.10109 13.961-11.152 27.771-7.4154 41.223 4.0139 14.449 17.085 25.657 29.662 33.824 13.954 9.0614 31.071 13.666 47.67 14.798 4.2856 0.29231 8.9441-0.0515 12.712-2.114 4.1621-2.2783 9.6588-5.8268 9.5341-10.57-0.10492-3.9892-4.8959-6.6906-8.4748-8.456-4.792-2.3639-11.473 0.89211-15.89-2.114-3.0006-2.0419-0.56453-5.2839-6.0326-9.7463s-18.84-10.145-18.84-10.145 15.555 0.0496 17.529-4.3238 4.2113-9.2752 5.2707-11.389" fill="#85c27b" stroke="#000"/>
  <path d="m414.21 387.37s-13.009-1.6135-17.741-5.6253c-6.2982-5.3394-11.251-22.068-11.251-22.068s-10.41 18.758-7.7889 28.126c1.8143 6.4856 8.4991 11.249 14.712 13.847 7.1908 3.0069 25.53 1.7309 25.53 1.7309" fill="none" stroke="#000"/>
  <path d="m398.63 391.69c-6.8306-1.7204-13.072-1.4495-16.443 2.5963" fill="none" stroke="#000"/>
  <path d="m398.86 402.39c-5.3862-0.70278-8.6197-2.0187-13.549-5.5138l-2.7793-1.9708 1.4098-1.177c2.009-1.6772 4.5975-2.2783 8.7946-2.0424 3.2746 0.18409 4.0132 0.41241 8.7684 2.7107 5.701 2.7554 11.943 6.22 13.631 7.5661l1.0818 0.86269-7.3562-0.0453c-4.0459-0.0249-8.5463-0.20053-10.001-0.39033z" fill="#cb4545" stroke="#c40000" stroke-width=".5"/>
  <path d="m380.24 391.68c-2.1426-3.2586-2.4477-4.4511-2.2098-8.6379 0.26215-4.6142 1.6888-9.563 4.7144-16.353l2.241-5.0295 2.0061 5.1207c4.9711 12.689 8.9501 17.184 17 19.204 1.1305 0.28365 2.0554 0.55528 2.0554 0.60363s-0.30163 0.97315-0.6703 2.0551c-0.66637 1.9557-0.6843 1.9689-3.0618 2.2483-1.5011 0.17642-3.8695 0.0238-6.3613-0.40986-5.7948-1.0086-10.808-0.11314-13.494 2.4103-0.87346 0.82057-0.89065 0.81119-2.2204-1.2111z" fill="#444545" stroke="#282b2b" stroke-linecap="round" stroke-width=".5"/>
  <path d="m402.96 385.63s-2.8932 5.1213-1.7309 7.3562c1.0752 2.0673 4.4693 3.7556 6.4907 2.5963 2.5304-1.4512 1.2981-8.6543 1.2981-8.6543" fill="#fff" stroke="#000"/>
  <path d="m408.96 423.87s-3.5207-2.548-3.103-4.3062c0.49215-2.0712 3.5945-3.2871 5.4726-2.5751 1.5278 0.57921 2.2377 4.6309 2.2377 4.6309" fill="none" stroke="#000"/>
  <path d="m409.88 321.59s-6.5025-8.3632-11.251-9.9524c-6.9972-2.342-22.068 1.7309-22.068 1.7309" fill="none" stroke="#000"/>
  <path transform="matrix(1.375 0 0 1.2593 -485.62 -367.99)" d="m645.61 555.17a5.1926 11.683 0 1 1 -10.385 0 5.1926 11.683 0 1 1 10.385 0z" fill="#e0dfe6" stroke="#282b2b" stroke-linecap="round" stroke-width=".37998"/>
  <path transform="matrix(1.1667 0 0 1 -349.82 -223.63)" d="m645.61 555.17a5.1926 11.683 0 1 1 -10.385 0 5.1926 11.683 0 1 1 10.385 0z" fill="#444545" stroke="#282b2b" stroke-linecap="round" stroke-width=".46291"/>
  <path d="m380.03 344.53c-3.4452 11.563-10.182 23.474-25.097 8.6543" fill="none" stroke="#000" stroke-width=".5"/>
  <path transform="translate(-245.02 -228.16)" d="m642.21 555.49a1.1414 1.5218 0 1 1 -2.2827 0 1.1414 1.5218 0 1 1 2.2827 0z" fill="#e0dfe6" stroke="#282b2b" stroke-linecap="round" stroke-width=".5"/>
  <path transform="translate(-206.6 -226.64)" d="m642.21 555.49a1.1414 1.5218 0 1 1 -2.2827 0 1.1414 1.5218 0 1 1 2.2827 0z" fill="#e0dfe6"/>
  <g transform="translate(-275.84 -73.7)" fill="none" stroke="#bbc3c4" stroke-width="1.8">
   <path d="m639.17 329.11c-9.7496 2.5254-20.317 8.4077-22.604 19.041-4.0465 11.632-7.7078 23.548-9.2599 35.764-2.8808 7.0918-4.938 14.87-10.505 20.371-4.7532 3.6904 0.47141 10.213-5.95 11.568"/>
   <path d="m668.46 320.74c12.172 8.6623 26.663 13.237 39.475 20.852 5.6971 4.1502 15.038 7.1861 15.98 14.888-3.5044 10.719 11.984 7.6618 13.382 15.685-2.3248 6.4234 3.9879 12.123 3.8302 17.818"/>
   <path d="m676.07 318.84c12.504 1.2721 23.874 7.3092 34.971 12.793 8.1191 3.2114 11.764 12.941 21.117 13.777 9.6793-0.56302 1.086 15.137 12.775 12.998"/>
   <path d="m621.29 405.97c-6.1292 10.063-3.3735 22.462-5.6568 33.556-1.0951 7.6585-4.4688 14.856-7.2498 21.882l-0.0289 0.86948"/>
   <path d="m661.61 350.42c-6.563 6.5685-12.18 14.034-18.213 21.066-5.0425 6.3201-4.6817 15.088-0.81794 21.859 3.5391 7.9577-8.1894 12.457-5.2221 20.498-1.4122 2.5531-4.4192 3.5889-6.9448 4.6781"/>
   <path d="m641.83 350.8c-8.5576 7.8764-14.614 17.991-22.38 26.597-5.8351 7.1471-8.2148 18.871-18.343 21.173-7.1404-3.2707-8.2146 0.72687-11.4 6.635"/>
   <path d="m632.7 346.62c-8.1822 13.375-6.2787 29.788-5.3569 44.695 1.3407 11.821 1.9775 23.804 1.3727 35.733-1.8131 5.8599-0.91541 10.564 0.17967 16.589"/>
   <path d="m608.73 401.78c-8.6705 5.848-9.9838 17.121-10.831 26.684 1.7608 9.0296-7.9578 9.443-11.857 14.464 0.15517 1.4892-1.2525 2.7167-2.4219 3.3655"/>
   <path d="m656.67 336.72c13.605 0.48894 26.052-5.5168 37.64-11.925 8.2261-5.633 13.978 3.1201 19.648 7.9197 7.6592 5.5819 17.199 9.345 26.701 10.145 5.3527 0.30689 10.711-1.1779 15.691 1.0893"/>
   <path d="m698.52 347c10.534 3.6691 22.323 3.6065 31.891 9.78 10.189 5.6334 20.592 11.219 30.31 17.323 1.2648 1.0463 2.4106 2.2242 3.6179 3.3339"/>
   <path d="m712.21 356.51c4.8698-7.8298 13.138-1.6015 18.718 1.4204 7.2218 3.6851 15.018 0.8951 21.598-2.6698 4.3541-1.5396 8.6296-3.9343 13.328-4.077"/>
   <path d="m647.54 331.02c-8.3109 0.71695-17.382-1.7808-25.101 2.0811-7.3644 3.3982-10.027 11.211-12.269 18.339-2.1388 7.5377-11.007 8.0052-13.992 14.963"/>
   <path d="m652.48 346.24c-8.8806 1.5958-17.946 4.9612-24.727 11.096-6.4788 6.3044-10.111 15.278-17.567 20.581-4.029 2.9867-9.0421 0.76166-13.253 2.565"/>
   <path d="m676.07 340.91c8.6581 6.8251 19.397 10.595 27.86 17.56 9.1391 8.6178-4.8283 13.609-6.7847 21.004-1.0666 4.212 3.0976 8.2605 6.317 8.2317"/>
   <path d="m659.71 329.11c13.483-0.24215 26.855 2.1666 40.338 1.9878 7.6759 2.8718 13.103 10.46 22.298 8.9649 8.3549 2.8952 13.041-5.664 20.204-6.4918 3.852 0.0998 7.6406 1.4102 11.513 0.8655"/>
   <path d="m650.58 341.67c-10.004 0.72347-20.038 0.24058-30.056 0.38046-0.90792 2.3997-3.0535 4.2292-3.4241 6.8482"/>
   <path d="m624.33 354.22c-4.093 12.04-7.4948 24.444-8.4702 37.156-0.62588 6.3559-0.68329 12.854-0.98449 19.274-1.6702 3.2738-2.0648 7.4685-4.2417 10.149"/>
   <path d="m682.16 338.25c13.647 5.9866 23.346 18.343 29.096 31.773 5.0666 5.5191 3.1986 17.865 12.925 17.343l1.3512 1.1048"/>
   <path d="m637.26 338.63c-5.5786-1.1716-10.521 2.5287-13.062 7.2486-2.4073 4.7954-5.6159 9.6343-5.5452 15.2-1.9911 5.928 0.31385 12.117-0.12418 18.125-0.75849 4.5624-3.6807 8.2138-7.2631 10.822-0.52346 1.2822-0.84472 2.769-0.63715 4.1504"/>
   <path d="m647.54 353.08c-3.2606 2.9175-5.1548 7.0771-8.1116 10.244-3.1257 6.8333-5.6825 14.052-6.5432 21.552 0.4117 4.7274-0.87297 9.3076-0.94253 13.951 0.7042 3.2284-1.9837 4.403-3.8059 6.7551"/>
   <path d="m634.98 347c-5.6918 1.1762-10.494 4.5589-15.862 6.5955-1.9139 0.33336-7.044 2.8024-10.071 3.947-5.1761 1.6507-7.9456 6.5717-9.3623 11.493-1.4881 4.1608-1.7731 8.5719-2.7472 12.827-1.0846 1.8027-2.643 3.2996-3.8079 5.0861"/>
   <path d="m651.72179,335.58234c.46631-.46102.8387-.97059 1.52183-1.14137 .24606-.0615.51485.0615.76091,0 .27511-.0688.48581-.31168.76091-.38046 .24607-.0615.50728,0 .76092,0s.50792-.0181.76091,0c1.27538.0911 4.38894.12403 6.0873.76092 1.20339.45127 2.31306,1.30402 3.42411,1.90228 2.22482,1.19798 3.41948,1.48345 5.32639,3.04365 3.42703,2.80393.49015,1.91419 6.0873,4.56548 .94511.44768 2.03319.49145 3.04365.76091 .89208.23789 1.74804.63889 2.6632.76091 1.00565.13409 2.03605-.11854 3.04365,0 1.1612.13661 2.25929.65963 3.42411.76091 1.76878.15381 3.55092,0 5.32639,0 2.0291,0 4.05925.0654 6.0873,0 3.44435-.1111 6.56586-.30987 9.89186-1.14137 1.16719-.29179 2.3012-.70947 3.42411-1.14136 .52935-.2036.99524-.55028 1.52183-.76092 .11775-.0471.38045-.12682.38045,0s-.26014-.0401-.38045,0c-.26903.0897-.50728.25364-.76092.38046"/>
   <path d="m665.42 325.31c-6.7226 2.937-12.968 7.075-20.211 8.6828-3.9432 2.105-9.0977 2.9351-11.673 6.8685-1.3463 1.6206 0.66603 0.99822-0.47948 3.4756 0.31913 2.5891-3.8424 2.8155-1.8783 5.3223"/>
   <path d="m653.62 324.93c7.7925-2.8939 16.227-1.629 24.349-1.9025 2.4115 3.2081 4.2997 7.0778 8.8762 7.26 4.5599 1.036 9.0406-0.0321 13.468-0.39268 3.3818-0.48141 6.6883-1.4661 10.147-1.1605h6.3154"/>
   <path d="m661.61366,343.57192h7.22867c.76091,0 1.52495-.0689 2.28274,0 .644.0585 1.25884.31611 1.90228.38046 .51667.0517 3.84402-.062 4.18502,0 .67193.12217 1.23036.63874 1.90228.76091 2.62356.47701 1.66967-.14324 3.80457-.38045 .63021-.07 1.29258.17419 1.90228,0 .3449-.0986.44008-.6005.76091-.76092 4.14996-2.07497-.67853,1.43945 2.28274-1.52182 .40104-.40104 1.12079-.35988 1.52183-.76092 .20051-.20051.22315-.52496.38045-.76091 .0995-.14923.30025-.22004.38046-.38045 .0567-.11343-.0897-.29079 0-.38046s.26703.0567.38046,0c.94026-.47013-.13133-.38046.76091-.38046"/>
   <path d="m682.53876,339.00645c-.12682.12681-.23123.28097-.38046.38045-.23594.1573-.50727.25364-.76091.38046-1.26819.63409-2.55616,1.23007-3.80456,1.90228-.4026.21678-.73239.55642-1.14137.76091-.61084.30542-1.30529.42925-1.90228.76092-.5543.30794-.97128.82677-1.52183,1.14137-.3482.19897-.76091.25363-1.14137.38045-.76091.38046-1.56501.68464-2.28274,1.14137-1.37016.87193-2.45325,2.14278-3.80456,3.04365-.85073.56715-1.79242.98597-2.66319,1.52183-.77885.47929-1.51598,1.02343-2.28274,1.52182-1.76969,1.1503-3.6153,2.18832-5.32639,3.42411-.58158.42003-.97071,1.06256-1.52183,1.52183-.21785.18154-.52496.22315-.76091.38045-.14923.0995-.25364.25364-.38046.38046s-.32374.21031-.38045.38046c-.0802.24062 0,.50727 0,.76091v1.14137c0,.12682.0567.26702 0,.38045-.0802.16042-.30025.22005-.38046.38046-.0567.11343 0,.25364 0,.38046v.38045 1.90228c0,.12682-.0897.29079 0,.38046s.25364,0 .38046,0"/>
   <path d="m650.96 342.43c4.8762 1.6765 7.4548 7.0659 12.593 8.3465 3.0012 0.91623 5.8565 2.34 9.0927 1.9259"/>
   <path d="m659.71 340.91c-6.0812 3.1728-13.738-0.46422-19.403 3.8046-0.65791 0.3555-0.72834 1.3781-1.5218 1.5218"/>
   <path d="m699.6593,339.76736c.76091,1.14137 1.38433,2.38749 2.28274,3.42411 2.14686,2.47714 6.02094,4.2676 8.75049,6.0873 .90772.60514 1.73409,1.33052 2.6632,1.90228 .72453.44586 1.6425.58116 2.28274,1.14137 .42682.37347.47952,1.0294.76091,1.52183 .22686.397.59109.71682.76091,1.14136 .0875.21871-.10328,1.31527 0,1.52183 .0802.16041.32374.21031.38046.38046s.0131,2.62386 0,2.66319c-.1446.43379-.55642.73239-.76091,1.14137-.17935.3587-.17413.79748-.38046,1.14137-.18455.30758-.57636.45333-.76091.76091-.50077.83461-.38046,1.37376-.38046,2.28274 0,.25364-.0802.52029 0,.76091 .24493.73481.6464.13298 1.14137.38046 .32083.16041.44008.6005.76091.76091 .30437.15218.83701-.15218 1.14137,0 .16042.0802.22004.30025.38046.38046 .11343.0567.29078-.0897.38045,0s-.0567.26702 0,.38046c.0802.16041.30025.22004.38046.38045 .11343.22686-.0802.52029 0,.76091 .0897.26903.25364.50728.38046.76092"/>
   <path d="m684.8215,335.58234c1.63688.2124 3.30737-.18206 4.94593,0 .39859.0443.76092.25364 1.14137.38045h1.90228 2.28274c.38046,0 .7683-.0746 1.14137,0 .27807.0556.49189.29079.76091.38046 .34241.11414.79896-.11414 1.14137,0 .17015.0567.22004.30025.38046.38046 .11343.0567.25742-.0308.38046,0 .38906.0973.74436.32374 1.14136.38045 .50218.0717 1.03595-.14576 1.52183,0 .81485.24446 1.4538.95008 2.28274,1.14137 .865.19962 1.77699-.0521 2.66319,0 10.53698.61983-2.54848-.009 7.22867,1.14137 1.00761.11854 2.02911,0 3.04366,0h5.32639 .76091c.12682,0 .29078.0897.38045,0s-.0567-.26702 0-.38045c.0802-.16042.23698-.27285.38046-.38046 .3658-.27435.69501-.66172 1.14137-.76091 .74279-.16507 1.52183,0 2.28274,0h4.18502"/>
   <path d="m667.32 331.4c-4.1228-2.6484-9.3268-3.2937-12.9-6.8716-3.6283-2.3724-8.2546-1.447-12.038-3.163-2.0903-1.0146-3.8554-4.2058-4.3574-5.5641"/>
   <path d="m673.41 327.97c4.2344-0.43615 8.4457-1.8795 12.116-3.9774 2.8136-2.9794 4.7823-7.1782 9.5701-7.0558"/>
   <path d="m637.64 330.26c-5.4541-0.24361-10.531-2.7669-15.852-3.4196-5.1558 0.75733-10.734 3.8268-11.89 9.328-2.458 4.3956-7.3215 7.2702-8.3336 12.49-0.75277 0.43092-0.75991 1.1108-1.2082 1.0051"/>
   <path d="m611.01 365.26c-4.182 2.5903-4.1813 8.1363-6.4273 12.075-1.1299 4.2838-1.083 8.4437-3.8037 12.248-0.68011 4.6337-3.7006 7.7352-7.3339 10.294-2.8849 3.3985-2.1411 8.0759-2.2188 12.179-1.9678 2.5922-1.6631 5.7531-5.3264 6.8482"/>
   <path d="m619.38 394.55c-1.408 1.0427-4.1654 7.9115-5.8138 11.223-3.411 5.3219-4.7464 11.595-5.5092 17.783-0.37987 2.0805 0.35422 5.1322-1.6126 6.3755"/>
   <path d="m631.56 366.02c-0.94101 6.0353 3.2006 11.037 5.9619 15.947 2.1031 3.9107-0.0721 8.1461 0.24201 12.27-0.94042 3.4475-1.6331 6.9029-1.2415 10.545 3e-3 0.52234 3.2e-4 1.0448-0.0165 1.5669"/>
   <path d="m647.92 348.9c-1.6376-0.83125-7.1925-1.621-9.8275-4.4904-3.2264-4.1796-8.8182-4.4524-13.608-3.4925-5.4587-0.7626-9.9857 1.11-13.469 5.3197"/>
   <path d="m706.89 353.84c2.6242-1.3777 5.1571-3.0556 8.0855-3.7134 1.9536-0.86382 4.1157-0.99178 6.2192-0.98971 1.6475-0.22024 3.2315-1.6583 4.9246-0.85122 1.2948 1.3967 3.3038 2.7336 5.2532 1.8468 3.5516-0.65636 7.3355-0.98438 10.429-3.0269 1.6122-0.21662 2.8515-3.18 4.5517-1.6405 0.57888 0.51163 1.2279 1.0045 2.0065 1.1462"/>
   <path d="m691.28926,342.0501c2.18067-3.27101-.72298.57838 1.90228-1.52183 .35705-.28564.43759-.81804.76091-1.14137 .97267-.97266 1.81751-.84063 3.04365-1.52182 .5543-.30795 1.02669-.74526 1.52183-1.14137 .14005-.11204.21393-.31385.38046-.38046 .48548-.19419 1.03916-.17934 1.52182-.38046 1.04705-.43627 1.95544-1.20176 3.04365-1.52182 2.01143-.5916 4.37762-.38046 6.46776-.38046h10.27232 2.28274c.50728,0 1.02663.11005 1.52183,0 .66667-.14815 1.24814-.56467 1.90228-.76091 .61938-.18581 1.2829-.19464 1.90228-.38046 .65414-.19624 1.24815-.56467 1.90228-.76091 .61938-.18581 1.29681-.1534 1.90229-.38046 .42813-.16055.77556-.48656 1.14136-.76091 .0791-.0593.72919-.75033.76092-.76091 1.41039-.47013.24913.51178 1.14137-.38046"/>
   <path d="m697.76 323.79c4.2046 1.161 6.9122 4.7374 10.422 6.9927 5.4373 2.4178 11.293 3.9751 17.236 4.4298 0.55211 0.0938 1.1002 0.21403 1.6377 0.37173"/>
   <path d="m701.18 324.93c1.2304-0.42883 2.5541-0.69399 3.7456-1.1379 1.1752-0.0672 2.4658-0.27903 3.5309 0.35887 0.85732 1.0881 2.3721 0.78268 3.5851 0.97141 4.6213 0.39836 9.2449 0.78556 13.878 1.0121 1.2113-0.17519 2.4673-0.92309 3.4582-1.3829l-0.0445-0.20206"/>
   <path d="m626.68 376.93c-1.7341 4.017-1.7064 8.5875-3.0599 12.704 0.0328 7.5141 0.74377 15.14 3.1122 22.308 2.3588 4.1175 3.1163 8.8138 5.003 13.057 1.9948 2.6342 0.0486 4.8289-0.61741 7.7288"/>
   <path d="m629.27 380.67c-8.6705 5.848-9.9838 17.121-10.831 26.684 1.7608 9.0296-7.9578 9.443-11.857 14.464 0.15517 1.4892-1.2525 2.7167-2.4219 3.3655"/>
   <path d="m624.61 385.11c-5.5918 8.8379-2.2669 19.689 0.79794 28.787 5.2391 7.5622-3.4951 11.844-5.0496 18.008 0.74021 1.3015-0.0559 2.991-0.86626 4.0548"/>
   <path d="m675.41 349.44c-4.328 0.64189-8.1985 3.0728-12.41 4.0905-6.37 3.9858-12.477 8.6067-17.323 14.396-2.2576 4.1739-5.8505 7.2914-8.4637 11.13-1.1884 3.0832-4.0792 2.5849-6.895 3.5462"/>
   <path d="m651.52 338.32c14.898-0.32829 28.904 6.7836 39.783 16.535 6.9218 2.8669 10.436 14.849 19.034 10.273l1.6912 0.43177"/>
   <path d="m637.45 325.91c2.6242-1.3777 5.1571-3.0556 8.0855-3.7134 1.9536-0.86382 4.1157-0.99178 6.2192-0.98971 1.6475-0.22024 3.2315-1.6583 4.9246-0.85122 1.2948 1.3967 3.3038 2.7336 5.2532 1.8468 3.5516-0.65636 7.3355-0.98438 10.429-3.0269 1.6122-0.21662 2.8515-3.18 4.5517-1.6405 0.57888 0.51163 1.2279 1.0045 2.0065 1.1462"/>
   <path d="m653.81 360.15c-2.6242-1.3777-5.1571-3.0556-8.0855-3.7134-1.9536-0.86382-4.1157-0.99178-6.2192-0.98971-1.6475-0.22024-3.2315-1.6583-4.9246-0.85122-1.2948 1.3967-3.3038 2.7336-5.2532 1.8468-3.5516-0.65636-7.3355-0.98438-10.429-3.0269-1.6122-0.21662-2.8515-3.18-4.5517-1.6405-0.57888 0.51163-1.2279 1.0045-2.0065 1.1462"/>
  </g>
  <path d="m493.66 516.17c-34.228 36.267-64.607 75.986-72.17 127.07" fill="none" stroke="#000"/>
  <path d="m421.25 636.38c10.151-34.68 14.17-70.115 34.599-105.94" fill="none" stroke="#000"/>
  <path d="m433.85 540.96c-8.3164 27.567-9.1645 61.345-12.423 91.159" fill="none" stroke="#000"/>
  <path d="m420.24 567.28c2.6029 1.5652 5.2057-0.25531 7.8086-3.0761 4.3381 1.31 8.6762 2.2322 13.014-1.4198 3.8456 2.9103 8.0056 4.6675 13.724 0.70988" fill="none" stroke="#000"/>
  <path d="m432.31 547.17c4.8361 3.2184 10.229 2.5367 16.327-3.0761 2.7589 7.8908 9.7103 7.3968 19.403 1.4198" fill="none" stroke="#000"/>
  <path d="m420.72 589.05c1.8737 0.94811 3.2478-0.10187 4.4959-1.6564 2.6817 2.199 5.3635 3.2852 8.0452 0.47325 1.2218 2.1325 2.0865 5.6936 4.4959 3.0761" fill="none" stroke="#000"/>
  <path d="m420.48 608.46 2.8395-0.47325 4.7325 1.6564 1.6564 1.893" fill="none" stroke="#000"/>
  <path d="m431.84 546.7c-2.658 5.1277-5.7035 6.3803-8.9917 5.2057" fill="none" stroke="#000"/>
  <path d="m455.74 531.79c6.4407 2.7671 12.734 5.7849 25.319-1.893" fill="none" stroke="#000"/>
  <path d="m466.7 546.97-0.48064 62.964" fill="none" stroke="#000"/>
  <path transform="translate(0 -1.0391)" d="m470.31 614.5a4.2056 5.2871 0 1 1 -8.4112 0 4.2056 5.2871 0 1 1 8.4112 0z" fill="#393c3e"/>
  <path transform="translate(0 -1.4419)" d="m468.63 621.23a2.6435 2.4032 0 1 1 -5.2871 0 2.6435 2.4032 0 1 1 5.2871 0z" fill="#393c3e"/>
  <path d="m463.75 619.63s-3.3612-3.0602-4.0147-5.1313c-0.45865-1.4535 0.24032-4.5661 0.24032-4.5661" fill="none" stroke="#393c3e"/>
  <path d="m463.58 620.5s-2.781-0.96283-3.8451-1.9226c-1.5512-1.399-3.3645-5.2871-3.3645-5.2871" fill="none" stroke="#393c3e"/>
  <path d="m471.99 610.17s0.56797 4.0215-0.24032 5.7677c-0.59532 1.2861-3.1242 2.8839-3.1242 2.8839s3.6935 0.0881 5.0468-0.96129c1.1894-0.9223 1.9226-4.0855 1.9226-4.0855" fill="none" stroke="#393c3e"/>
  <path d="m468.54 619.43s4.4676 0.29661 5.8523 1.7953c1.0024 1.0849 0.96128 4.3258 0.96128 4.3258" fill="none" stroke="#393c3e"/>
  <path d="m468.4 620.17s2.8026 2.3503 3.5906 3.944c0.79393 1.6057 0.96129 5.2871 0.96129 5.2871" fill="none" stroke="#393c3e"/>
  <path d="m456.37 626.99s1.4809-2.812 2.6435-3.8451c1.2857-1.1425 4.5661-2.4032 4.5661-2.4032s-1.1513 3.3215-1.4419 5.0468c-0.23991 1.4241-0.24032 4.3258-0.24032 4.3258" fill="none" stroke="#393c3e"/>
  <path d="m465.01 621.66-0.31107 2.3752" fill="none" stroke="#393c3e" stroke-linecap="round"/>
  <path d="m466.83 621.55 0.31109 2.6293" fill="none" stroke="#393c3e" stroke-linecap="round"/>
  <path d="m379.09 391.24s2.8646-5.1374 5.3777-5.3093c2.3248-0.15905 5.5339 1.8588 5.5972 4.1882 0.0793 2.916-6.7113 5.6161-6.7113 5.6161" fill="#fff" stroke="#000"/>
  <path d="m383.06 329.02-9.8347-4.4256" fill="none" stroke="#000" stroke-width=".6"/>
  <path d="m383.55 331.97h-10.818" fill="none" stroke="#000" stroke-width=".6"/>
  <path d="m383.06 335.9-5.9008 0.49173" fill="none" stroke="#000" stroke-width=".6"/>
  <path d="m394.42 373 2.4328-4.7135" fill="none" stroke="#000"/>
  <path d="m404.6 381.22 3.3451-5.6258" fill="none" stroke="#000"/>
  <path d="m438.97 370.57-11.708-8.5148" fill="none" stroke="#000" stroke-width=".5"/>
  <path d="m358.38 382.13 3.3451-14.901" fill="none" stroke="#000" stroke-width=".5"/>
  <path d="m362.18 387.6 12.924-20.831" fill="none" stroke="#000" stroke-width=".4"/>
  <path d="m322.58 408.33c16.459 28.889-5.4061 61.609-16.859 93.289" fill="none" stroke="#000"/>
  <path transform="matrix(.86529 .50127 -.50127 .86529 340.69 128.05)" d="m231.54 353.82a28.661 38.777 0 1 1 -57.322 0 28.661 38.777 0 1 1 57.322 0z" fill="url(#b)" filter="url(#d)"/>
  <g transform="matrix(.96759 .25254 -.25254 .96759 -57.342 -399.77)" fill="#87c27a">
   <path d="m760.28 664.34c-5.4928-1.4841-10.15-4.0179-13.964-7.6129l5.6198-44.959 14.612 3.3719-6.2673 49.2z" stroke="#393c3e"/>
   <path d="m778.69 566.9s-13.465 20.366-18.886 22.391c-1.059 0.0378-2.0641-1.2043-2.2479-2.2479 3.198-4.0963 7.8678-16.859 7.8678-16.859s3.5581-11.053 6.0043-13.236c2.9182-2.6046 7.4255-1.2244 8.9769 2.3662 0.31466 2.8691-4.9869 15.947-2.8395 14.73l8.0896-2.736-20.231 14.612s-4.126 10.797-3.3719 15.736c1.2817 1.8844 4.838 2.3735 6.7438 1.124 1.578-2.1968 1.9965-10.249 1.9965-10.249l13.739-11.107h4.4959l-13.488 15.736s-3.1196 5.9431-4.4959 10.116c0.75965 1.8691 3.6689 2.7623 5.6198 2.2479 2.3197-0.61157 4.4958-7.3797 4.4958-7.3797l10.116-11.728-4.4959 17.983c-1.8037 7.2146-9.4499 15.247-16.859 14.612-5.3054-0.45466-13.635-7.5868-13.635-7.5868s-6.3333 1.5424-11.092-0.28099c-4.0799-1.5634-5.4543-7.0651-6.7438-11.24-1.883-6.096-4.58-13.744-1.124-19.107 2.8267-4.3865 14.612-5.6198 14.612-5.6198 2.2584-0.43255-2.0917 6.8177-3.1796 9.3171-1.118 1.887-4.7769 4.5254-4.7769 4.5254s2.826 3.7877 4.7769 5.0283c2.4599 1.5642 8.2966 2.7656 8.2966 2.7656m28.425-29.482c3.2896-0.0839 7.2787-0.22665 3.7555 9.8721 7.0156 1.2541 5.6558 4.6576 2.0014 9.246m-25.679-21.388 0.99086-30.347s-0.0947-9.1043-3.3719-11.24c-2.5307-1.649-7.5063-1.5061-8.9917 1.124-1.8146 3.2129 4.4959 10.116 4.4959 10.116l-1.124 30.347c0.62416 13.521-5.3837 19.717-11.269 25.755" stroke="#000"/>
   <path transform="translate(245.02 228.16)" d="m508.91 371.16c-3.1512-0.91732-4.6813-1.6664-6.1928-3.0319l-1.1096-1.0025 0.77101-0.57701c3.5242-2.6374 6.7137-6.9266 8.5482-11.495 0.75686-1.885 1.7398-3.4473 4.4511-7.0747 1.9139-2.5605 3.5341-4.6011 3.6005-4.5347 0.40828 0.40828-5.0668 12.31-6.8034 14.79-0.47069 0.67201-0.36066 1.1431 0.55739 2.3863 1.2282 1.6632 2.7112 1.394 5.2135-0.94658 0.74843-0.70007 1.3608-1.1612 1.3608-1.0246s-0.32135 1.2132-0.71413 2.3926c-0.77145 2.3165-5.9192 10.736-6.6273 10.84-0.21222 0.031-1.5871-0.29328-3.0553-0.72066z" stroke="#87c27a"/>
   <path transform="translate(245.02 228.16)" d="m519.95 374.5c-0.4984-0.11992-1.2255-0.42725-1.6157-0.68294-0.60426-0.39593-0.70951-0.67622-0.70951-1.8895 0-1.7444 0.88855-6.2052 1.8559-9.317 1.3632-4.3854 1.3164-4.338 11.681-11.815 5.103-3.6813 9.3299-6.6414 9.3933-6.578s0.66064 1.9373 1.3273 4.1644l1.2121 4.0491-1.9992 0.14049-1.9992 0.1405-6.9323 5.6001-6.9322 5.6001-0.15245 1.2842c-0.74432 6.2701-1.268 8.5617-2.0504 8.9715-0.8047 0.42149-2.1174 0.56303-3.078 0.33188z" stroke="#87c27a" stroke-linecap="round" stroke-width=".7"/>
   <path transform="translate(245.02 228.16)" d="m529.14 380.61c-0.54091-0.1329-1.2919-0.47557-1.6688-0.76147-0.65366-0.49576-0.66894-0.57644-0.33014-1.743 0.19539-0.67274 1.1332-2.867 2.084-4.876 1.7032-3.5988 1.822-3.7622 8.0336-11.039 3.4677-4.0622 6.3952-7.2865 6.5056-7.1653 0.22368 0.24562 1.9542 6.0087 1.9542 6.508 0 0.17446-2.2486 2.9154-4.9968 6.091-4.6189 5.3371-5.0871 5.9799-6.1902 8.4993-0.65634 1.499-1.4859 3.082-1.8434 3.5179-0.7603 0.92669-2.1613 1.309-3.548 0.96828z" stroke="#87c27a" stroke-linecap="round" stroke-width=".6"/>
   <path transform="translate(245.02 228.16)" d="m521.54 355.99c0.0592-0.0966 0.61612-0.77936 1.2376-1.5173s1.5066-1.826 1.9668-2.418 0.86313-1.05 0.89531-1.0179-0.50243 0.93599-1.188 2.0084c-1.0064 1.5742-1.3991 2.0627-2.0383 2.5351-0.81279 0.60075-1.0623 0.71775-0.87343 0.40957z" stroke="#87c27a" stroke-linecap="round" stroke-width=".5"/>
  </g>
  <path d="m217.54 874.78c-1.7241-35.689 78.22-42.928 69.678 0-23.226 5.5594-46.452 6.4167-69.678 0z" fill="#393a3a" stroke="#000"/>
  <path transform="matrix(1.319 0 0 1 -108.09 -7.8678)" d="m277.37 864.4a4.3712 4.7686 0 1 1 -8.7424 0 4.3712 4.7686 0 1 1 8.7424 0z" fill="url(#a)" filter="url(#c)" opacity=".8"/>
  <path d="m539.81 301.32c0-1.2756-0.67659-7.3095-0.67659-7.3095l4.4552 2.3367 3.3645 5.9932" fill="none" stroke="#000"/>
  <path d="m516.34 350.04 1.0204 2.8062 10.97-1.0204-4.592-1.2756" fill="none" stroke="#000"/>
  <path transform="translate(91.236 229.29)" d="m420.59 183.28 7.4852-19.017" fill="none" stroke="#000" stroke-width=".5"/>
 </g>
</svg>
