<?xml version="1.0" encoding="UTF-8"?>
<svg enable-background="new 0 0 122.5 143.3" version="1.1" viewBox="0 0 122.5 143.3" xmlns="http://www.w3.org/2000/svg">
 <style type="text/css">.st0{fill:#58595B;stroke:#000000;stroke-miterlimit:10;} .st1{fill:#414042;stroke:#414042;stroke-miterlimit:10;} .st2{fill:none;stroke:#000000;stroke-width:0.5;stroke-miterlimit:10;} .st3{fill:none;stroke:#000000;stroke-miterlimit:10;} .st4{fill:#414042;} .st5{fill:#6D6E71;} .st6{fill:#8DC63F;stroke:#009444;stroke-miterlimit:10;} .st7{fill:#58595B;stroke:#000000;stroke-width:2;stroke-miterlimit:10;} .st8{fill:none;} .st9{fill:#FFFFFF;stroke:#FFFFFF;stroke-miterlimit:10;} .st10{fill:#D1D3D4;} .st11{fill:#DA1C5C;} .st12{fill:#9E1F63;} .st13{fill:none;stroke:#414042;stroke-miterlimit:10;} .st14{fill:none;stroke:#000000;stroke-width:2;stroke-miterlimit:10;} .st15{fill:#414042;stroke:#414042;stroke-width:0.25;stroke-miterlimit:10;} .st16{fill:#FBB040;stroke:#414042;stroke-width:0.25;stroke-miterlimit:10;} .st17{fill:#F7941E;} .st18{fill:none;stroke:#000000;stroke-width:0.75;stroke-miterlimit:10;} .st19{fill:#414042;stroke:#000000;stroke-width:2;stroke-miterlimit:10;} .st20{fill:#D1D3D4;stroke:#000000;stroke-miterlimit:10;} .st21{fill:#A7A9AC;} .st22{fill:#E6E7E8;} .st23{fill:#F1F2F2;} .st24{stroke:#000000;stroke-miterlimit:10;} .st25{fill:#8DC63F;} .st26{fill:#009444;} .st27{fill:#BDDFB3;} .st28{fill:#B4BD1E;} .st29{fill:#FFF200;}</style>
 <path class="st0" d="m71.8 121.3c3.4-0.4 7.3-1.6 10.8-1.3-1.7 6.5-1.1 13.6-2.8 20-1.5 0.3-3.1 0.1-4.6 0.2 0.1-1.5-0.9-3.2-1.2-4.7s-0.8-3-1.2-4.6c-0.8-3-1.8-5.9-2.6-8.8 1.4 0.2 2.5-0.7 4-0.7"/>
 <path class="st1" d="m78.2 120.7c0.5 0 2.6-0.2 2.8 0.3 0.1 0.2-0.2 0.8-0.3 1-0.2 0.7-0.3 1.3-0.4 2-0.3 1.5-0.9 2.9-1.3 4.4-0.3 1-0.4 1.9-0.7 2.9-0.3 1.2-0.9 2.4-0.8 3.6 0 0.8 0.2 1.6 0.5 2.4-1.2-2.7-0.8-6-0.7-8.9 0.1-1.8 0.8-3.3 1-5 0.1-0.9-0.2-2.5 0.9-2.9 0.6-0.2 1.5 0 2 0.1-0.2 0.2-0.3 0.5-0.4 0.7 0.2-0.3 0.4-0.9 0.4-0.8"/>
 <path class="st2" d="m74.8 137.6c0.7-0.3 2.1-0.1 2.8-0.1 0.8 0 1.9 0 2.7-0.3"/>
 <path class="st3" d="m78.5 120.3c-0.7 3.8-1.2 7.7-1.3 11.5 0 0.8-0.4 5.1 0.3 5.5"/>
 <path class="st4" d="m74.3 135.5c0 0.2 0.2 1.4 0.4 1.6 0.3 0.3 0.8 0.2 0.9-0.2 0-0.1-0.2-0.6-0.2-0.7-0.2-0.7-0.4-1.4-0.6-2.2-0.3-1.2-0.7-2.4-0.9-3.6s-0.6-2.4-0.9-3.7c-0.2-0.8-0.6-1.9 0.2-2.5s2.3-0.6 3.3-0.7c0 0.8-0.3 1.9 0 2.7 1.2-1.4 1.8-3.8 1.5-5.6-1.4 0.1-2.7 0.2-4.1 0.4-1 0.2-2.4 0.3-3 1.1-1 1.2 0.2 3 0.7 4.1 0.8 1.8 1.5 3.8 1.8 5.7 0.3 1.4 0.6 3.1 1.1 4.4"/>
 <path d="m75 137.6c0.4-0.4 1.8-0.1 2.3 0 0.6 0.1 1.1 0.1 1.7 0 0.3 0 0.5-0.1 0.8-0.1 0.4 0 0.4 0 0.4 0.3 0 0.4-0.1 0.7-0.1 1.1 0 0.3 0 0.7-0.2 1-0.3-0.1-0.9 0.2-1.2 0.2-0.3 0.1-0.7 0.1-1 0.1h-1.8c-0.3 0-0.3 0-0.4-0.3l-0.3-0.9c-0.1-0.4-0.3-1-0.3-1.4 0.2 0 0.4-0.1 0.6 0"/>
 <path class="st5" d="m76.5 139.3c-0.3-0.1-0.9-0.3-0.9 0.2 0 0.4 0.4 0.3 0.7 0.3 0.2 0 0.7 0 0.6-0.3s-0.6-0.4-0.8-0.3"/>
 <path class="st0" d="m53.7 121.2c-3.4-0.4-7.3-1.6-10.8-1.3 1.7 6.5 1.1 13.6 2.8 20 1.5 0.3 3.1 0.1 4.6 0.2-0.1-1.5 0.9-3.2 1.2-4.7s0.8-3 1.2-4.6c0.8-3 1.8-5.9 2.6-8.8-1.4 0.2-2.5-0.7-4-0.7"/>
 <path class="st1" d="m47.3 120.7c-0.5 0-2.6-0.2-2.8 0.3-0.1 0.2 0.2 0.8 0.3 1 0.2 0.7 0.3 1.3 0.4 2 0.3 1.5 0.9 2.9 1.3 4.4 0.3 1 0.4 1.9 0.7 2.9 0.3 1.2 0.9 2.4 0.8 3.6 0 0.8-0.2 1.6-0.5 2.4 1.2-2.7 0.8-6 0.7-8.9-0.1-1.8-0.8-3.3-1-5-0.1-0.9 0.2-2.5-0.9-2.9-0.6-0.2-1.5 0-2 0.1 0.2 0.2 0.3 0.5 0.4 0.7-0.2-0.3-0.4-0.9-0.4-0.8"/>
 <path class="st2" d="m50.7 137.6c-0.7-0.3-2.1-0.1-2.8-0.1-0.8 0-1.9 0-2.7-0.3"/>
 <path class="st3" d="m47 120.2c0.7 3.8 1.2 7.7 1.3 11.5 0 0.8 0.4 5.1-0.3 5.5"/>
 <path class="st4" d="m51.2 135.5c0 0.2-0.2 1.4-0.4 1.6-0.3 0.3-0.8 0.2-0.9-0.2 0-0.1 0.2-0.6 0.2-0.7 0.2-0.7 0.4-1.4 0.6-2.2 0.3-1.2 0.7-2.4 0.9-3.6s0.6-2.4 0.9-3.7c0.2-0.8 0.6-1.9-0.2-2.5s-2.3-0.6-3.3-0.7c0 0.8 0.3 1.9 0 2.7-1.2-1.4-1.8-3.8-1.5-5.6 1.4 0.1 2.7 0.2 4.1 0.4 1 0.2 2.4 0.3 3 1.1 1 1.2-0.2 3-0.7 4.1-0.8 1.8-1.5 3.8-1.8 5.7-0.3 1.4-0.6 3.1-1.1 4.4"/>
 <path d="m50.5 137.6c-0.4-0.4-1.8-0.1-2.3 0-0.6 0.1-1.1 0.1-1.7 0-0.3 0-0.5-0.1-0.8-0.1-0.4 0-0.4 0-0.4 0.3 0 0.4 0.1 0.7 0.1 1.1 0 0.3 0 0.7 0.2 1 0.3-0.1 0.9 0.2 1.2 0.2 0.3 0.1 0.7 0.1 1 0.1h1.8c0.3 0 0.3 0 0.4-0.3l0.3-0.9c0.1-0.4 0.3-1 0.3-1.4-0.2 0-0.4-0.1-0.6 0"/>
 <path class="st5" d="m49 139.3c0.3-0.1 0.9-0.3 0.9 0.2 0 0.4-0.4 0.3-0.7 0.3-0.2 0-0.7 0-0.6-0.3s0.6-0.4 0.8-0.3"/>
 <path class="st6" d="m110 104.2c1.9 0.7 3.2 1.3 3.6 3.4 0.2 0.9 0.2 2 0.1 3-0.1 1.4-0.7 2.5-2.2 2.9-1.4 0.5-3.1 0.6-4.6 0.2-1-0.3-2.8-2-3.1-3v0.2"/>
 <path class="st7" d="m83.3 92.6c1.4-2.2 6.4-9.5 9.1-7 2.2 2 3 5.6 5.9 6.9 1.6 0.7 2.7 0.7 3.6 2.4 0.7 1.4 0.8 2.6 2 3.7s2.5 1.5 3.5 2.8 1.6 2.1 3.2 2.8c0.6 0.3 1 0.6 1.7 0.7-1.7 3.3-3.3 7.1-6.3 9.5-2.5-3.4-6.3-5.5-9.3-8.4-1.9-1.8-5.1-3.1-6.5-5.2-0.8-1.2-0.3-2.3-1.7-3-1.5-0.7-1.7-0.6-2.8-2-0.8-1-2.2-1.6-2.2-2.8 0-0.7 1.5-3.2 2-3.5 0.4-0.2 0.1 0 0.5 0"/>
 <path class="st5" d="m93.5 98.2c0-0.6-0.5-1.5-0.6-2.1-0.1-0.5-0.2-1-0.2-1.5-0.1-0.7 0.1-1.8 0.5-2.3 0.1 1 0.7 2.1 0.9 3.1s0.4 1.8 0.8 2.7c0.4 1 1.1 1.7 1.6 2.7s1.4 1.7 2 2.6c-1.9-1.3-3.7-3.1-5-5-0.7-1-1.4-1.8-1.5-3.1-0.1-1.1 0-2.2 0.4-3.2 0-0.1 0.1-0.3 0.1-0.4-0.1 0.7 0.2 1.3 0.3 1.9s0 1.2 0.2 1.8v-0.2"/>
 <path class="st5" d="m103.9 110.1c-1 0.6-0.8 0.9-0.1 1.7 0.4 0.5 1 1 1.4 1.2-0.5-1.7 1-3.8 2.8-4 0-0.4-0.3-1-0.7-1.2v-0.2c-0.4 0.4-4.4 2.2-3.9 2.9"/>
 <path class="st3" d="m102.8 111.3c1.4-1.4 2.9-2.6 4.6-3.7"/>
 <path class="st8" d="m100.8 119.2c0.1 0 0.1 0 0.1 0.1"/>
 <path class="st4" d="m86.2 91.1c-0.8 1.2-1 2.7 0.5 3.5s2.6 1.9 3.9 3c1.1 0.9 2 1.9 3 2.9 0.5 0.6 1 1.1 1.8 1.4 0.7 0.3 1.6 0.4 2.2 0.8-0.1-0.4-0.7-0.6-1-0.8-0.4-0.4-0.6-0.9-0.9-1.3-0.6-0.7-1.2-1.3-1.8-2-1.1-1.5-1.8-3.9-1.4-5.8-0.9 0.7-1.1 1.9-1.8 2.6-0.6-1.1-0.3-3.3 0-4.5 0.2-1.1 0.9-2.5 2-2.8-0.3-0.5-0.5-1.6-1-1.9-0.7-0.4-2.4 1.3-2.8 1.7-1.2 1.2-3.5 3.1-3.3 4.9"/>
 <path class="st4" d="m98 105.4c-0.8-1.2-1.5-2-2.4-3.1 2 0.7 4.8 0.4 6.6-0.6-0.6 0.7-1.3 1.5-2 2.1-0.5 0.4-0.6 0.5-0.3 1.1 0.2 0.6 0.6 1 1.1 1.4 0.5 0.5 1.3 1.5 2.1 1.4 1 0 1.4-1.4 2.1-1.7 0.1 0.9-0.6 1.9-1.1 2.5-0.8 0.9-1.5 0.9-2.5 0.1-0.9-0.7-1.6-1.7-2.4-2.4-0.6-0.5-1.7-1.4-1.9-2.2 0 0.1 0.1 0.1 0.2 0.2"/>
 <path class="st4" d="m98 94.5c1.4-0.8 2.2-0.6 2.9 0.9 0.5 1 0.7 2 1.2 2.9s1.5 1.2 2 2-0.1 2.1-0.3 3c0-0.9-1.3-1.9-1.8-2.6-0.8-1-1.8-1.7-2.7-2.6-0.9-0.8-1.6-1.4-2.1-2.5-0.4-0.8-0.9-1.8-1.4-2.5 0.8 0.5 1.3 1.4 2.1 1.9 0.4-0.5 0.4-0.8 1.1-0.8"/>
 <path class="st5" d="m99 105.1c-0.6-0.9-1.3-1.7-2-2.5 1.6 0.5 3.9 0.4 5.5-0.5-0.5 0.6-1.1 1.2-1.7 1.7-0.4 0.3-0.5 0.4-0.2 0.9 0.2 0.5 0.5 0.8 0.9 1.2s1.1 1.2 1.7 1.2c0.8 0 1.2-1.2 1.8-1.4 0.1 0.7-0.5 1.5-0.9 2-0.7 0.8-1.3 0.7-2 0.1s-1.3-1.4-2-2c-0.5-0.4-1.4-1.1-1.6-1.8 0 0.1 0.1 0.1 0.1 0.1"/>
 <path class="st6" d="m9 101.8c-1.9 0.7-3.2 1.3-3.6 3.4-0.2 0.9-0.2 2-0.1 3 0.1 1.4 0.7 2.5 2.2 2.9 1.4 0.5 3.1 0.6 4.6 0.2 1-0.3 2.8-2 3.1-3v0.2"/>
 <path class="st7" d="m35.6 90.2c-1.4-2.2-6.4-9.5-9.1-7-2.2 2-3 5.6-5.9 6.9-1.6 0.7-2.7 0.7-3.6 2.4-0.7 1.4-0.8 2.6-2 3.7s-2.5 1.5-3.5 2.8-1.6 2.1-3.2 2.8c-0.6 0.3-1 0.6-1.7 0.7 1.7 3.3 3.3 7.1 6.3 9.5 2.5-3.4 6.3-5.5 9.3-8.4 1.9-1.8 5.1-3.1 6.5-5.2 0.8-1.2 0.3-2.3 1.7-3 1.5-0.7 1.7-0.6 2.8-2 0.8-1 2.2-1.6 2.2-2.8 0-0.7-1.5-3.2-2-3.5-0.4-0.2-0.1 0-0.5 0"/>
 <path class="st5" d="m25.4 95.8c0-0.6 0.5-1.5 0.6-2.1 0.1-0.5 0.2-1 0.2-1.5 0.1-0.7-0.1-1.8-0.5-2.3-0.1 1-0.7 2.1-0.9 3.1s-0.4 1.8-0.8 2.7c-0.4 1-1.1 1.7-1.6 2.7s-1.4 1.7-2 2.6c1.9-1.3 3.7-3.1 5-5 0.7-1 1.4-1.8 1.5-3.1 0.1-1.1 0-2.2-0.4-3.2 0-0.1-0.1-0.3-0.1-0.4 0.1 0.7-0.2 1.3-0.3 1.9s0 1.2-0.2 1.8v-0.2"/>
 <path class="st5" d="m15 107.7c1 0.6 0.8 0.9 0.1 1.7-0.4 0.5-1 1-1.4 1.2 0.5-1.7-1-3.8-2.8-4 0-0.4 0.3-1 0.7-1.2v-0.2c0.4 0.4 4.4 2.2 3.9 2.9"/>
 <path class="st3" d="m16.2 108.8c-1.4-1.4-2.9-2.6-4.6-3.7"/>
 <path class="st8" d="m18.1 116.8c-0.1 0-0.1 0-0.1 0.1"/>
 <path class="st4" d="m32.8 88.7c0.8 1.2 1 2.7-0.5 3.5s-2.6 1.9-3.9 3c-1.1 0.9-2 1.9-3 2.9-0.5 0.6-1 1.1-1.8 1.4-0.7 0.3-1.6 0.4-2.2 0.8 0.1-0.4 0.7-0.6 1-0.8 0.4-0.4 0.6-0.9 0.9-1.3 0.6-0.7 1.2-1.3 1.8-2 1.1-1.5 1.8-3.9 1.4-5.8 0.9 0.7 1.1 1.9 1.8 2.6 0.6-1.1 0.3-3.3 0-4.5-0.2-1.1-0.9-2.5-2-2.8 0.3-0.5 0.5-1.6 1-1.9 0.7-0.4 2.4 1.3 2.8 1.7 1.2 1.2 3.5 3.1 3.3 4.9"/>
 <path class="st4" d="m20.9 103c0.8-1.2 1.5-2 2.4-3.1-2 0.7-4.8 0.4-6.6-0.6 0.6 0.7 1.3 1.5 2 2.1 0.5 0.4 0.6 0.5 0.3 1.1-0.2 0.6-0.6 1-1.1 1.4-0.5 0.5-1.3 1.5-2.1 1.4-1 0-1.4-1.4-2.1-1.7-0.1 0.9 0.6 1.9 1.1 2.5 0.8 0.9 1.5 0.9 2.5 0.1 0.9-0.7 1.6-1.7 2.4-2.4 0.6-0.5 1.7-1.4 1.9-2.2 0 0.1-0.1 0.1-0.2 0.2"/>
 <path class="st4" d="m20.9 92.1c-1.4-0.8-2.2-0.6-2.9 0.9-0.5 1-0.7 2-1.2 2.9s-1.5 1.2-2 2 0.1 2.1 0.3 3c0-0.9 1.3-1.9 1.8-2.6 0.8-1 1.8-1.7 2.7-2.6 0.9-0.8 1.6-1.4 2.1-2.5 0.4-0.8 0.9-1.8 1.4-2.5-0.8 0.5-1.3 1.4-2.1 1.9-0.4-0.5-0.4-0.8-1.1-0.8"/>
 <path class="st5" d="m20 102.7c0.6-0.9 1.3-1.7 2-2.5-1.6 0.5-3.9 0.4-5.5-0.5 0.5 0.6 1.1 1.2 1.7 1.7 0.4 0.3 0.5 0.4 0.2 0.9-0.2 0.5-0.5 0.8-0.9 1.2s-1.1 1.2-1.7 1.2c-0.8 0-1.2-1.2-1.8-1.4-0.1 0.7 0.5 1.5 0.9 2 0.7 0.8 1.3 0.7 2 0.1s1.3-1.4 2-2c0.5-0.4 1.4-1.1 1.6-1.8 0 0.1-0.1 0.1-0.1 0.1"/>
 <path class="st7" d="m32.1 85.1c3.5-4.7 14-2.8 20.3-3.3 7.8-0.5 15.6-1.3 23.5-1 4.4 0.2 8.8 0.8 13 2.1 5.3 1.6 8.2 4.9 7.1 10.5-1.2 6.5-4.8 12.9-7.8 18.7-2.6 5.1-5.3 10.8-9.8 14.5-3.9 3.2-8.9 4.3-13.8 4.8-5.9 0.6-12.3 0.7-17.5-2.6-3.9-2.5-6.5-6.5-8.9-10.3-5-7.8-12.9-17.9-11.5-27.8 0.7-5.3 6.5-9.4 11.8-8.2"/>
 <path class="st4" d="m37.3 82.9c-0.6 0.1-2.4 0.3-2.1 1.3s2.6 1.6 3.5 2c3.3 1.5 6.3 3.2 9.2 5.4 3.1 2.3 6.6 4.9 10.7 4.8 2.5-0.1 3.9-2.1 6-3.2 1.4-0.7 2.7-1.7 4.2-2.4 1.7-0.8 3.7-1.1 5.5-1.6 3.6-1 7.2-1.7 10.9-2.5 1.1-0.3 6.2-1.1 4.6-3.3-0.6-0.8-2-1.1-2.9-1.4-3.9-1.1-8.2-1-12.3-0.9-4.2 0.1-8.4 0.5-12.6 0.5s-8.4 0.9-12.6 1c-2.3 0-4.6-0.5-6.9-0.5-2.2-0.1-5 0.4-6.9 1.6"/>
 <path class="st9" d="m62.5 95.5c-0.8 0.2-1.4 0.6-1.8 1.2 0.6 0.3 1.3 1.2 1.9 1.4 0.4 0.1 1.5-0.4 2-0.6 2.2-0.8 4.3-1.2 6.6-1.5 1.5-0.2 3.1 0.1 4.7-0.1 1.7-0.2 3.6-0.4 5.2-0.9 1.9-0.6 3.2-1.7 4.7-3 0.6-0.5 1-1.1 1.7-1.5 0.8-0.6 1.7-1 2.4-1.6 0.7-0.7 2.5-2.8 1.8-3.8-0.5-0.7-1.4 0-1.9 0.3-1.1 0.6-2.2 1-3.3 1.4-3.5 1.3-7.2 2.8-11 3.2-1 0.1-2 0.2-3 0.5-1.5 0.4-2.8 1.3-4.3 1.9-2 0.7-3.9 1.4-5.5 2.8-0.5 0.5-1.1 0.8-1.4 1.4"/>
 <path class="st9" d="m32.4 86.4c-3.2 1.7 4.5 7.1 6.2 8.1 1.6 0.9 3.2 1.8 5 2.4 1.3 0.5 2.8 1.1 4.3 1.3 1.7 0.2 3 0.2 4.6-0.3 0.8-0.3 3.3-0.4 3.2-1.2-0.5-0.3-1-0.9-1.6-1.1s-1.3-0.3-1.9-0.5c-1.5-0.5-2.6-1.3-3.9-2-2.5-1.3-4.8-2.9-7.1-4.4-1.7-1.1-3.5-2.1-5.3-3.2-0.8-0.5-1.4-0.6-2.4-0.2-0.8 0.4-1.6 1.2-1.7 2.1"/>
 <path class="st4" d="m60.7 110.9c1.3 1.4 1.6 3.8 1.7 5.6-0.7-1.3-2.4-2.1-3.7-2.6-2.3-0.9-4.2-2.2-6.3-3.4-3.7-2.2-7.5-3.9-11.6-5.4-2.1-0.8-5.4-1.6-6.2-3.8-0.6-1.7-0.3-3.2-2-4.4-1.3-0.9-2.5-1.8-3.6-2.8-1.5-1.3-1.5-2.5-1.6-4.3-0.1-3.2 2.9-5.4 5.4-7 0.2 1.9-1.7 3.7-1.5 5.7 0.1 1 1 1.5 1.7 2.1 0.9 0.8 1.9 1.9 2.7 2.8 1.3 1.6 1.7 3.9 3.2 5.2 1.8 1.6 4.4 2.5 6.7 3.4 1.1 0.4 1.9 1.1 2.9 1.6s2.1 0.8 3.1 1.3c1.8 0.8 3.6 1.6 5.3 2.5 1.3 0.7 2.5 1.6 3.6 2.4 1.1 0.9 1.1 1.8 1.2 3.1"/>
 <path class="st1" d="m94.8 92.3c0.4-0.9 1.3-2.4 0.7-3.3-0.6 1-1.3 1.8-2.2 2.6s-1.9 1.4-2.9 2c-2.6 1.6-4.4 3.9-6.7 5.7-1.4 1-2.7 2-4.4 2.3-1.6 0.3-2.9-0.5-4.5-0.5s-3 0.6-4.5 1c-1.3 0.3-2.5 0.6-3.8 1s-3 1.2-4 2.1c-1.1 1-1.9 2.4-2.3 3.8-0.2 0.6-0.2 1.1-0.1 1.7 0.1 0.3 0.9 1.9 0.9 1.9 0.4-0.9 0.4-1.9 0.9-2.8s1.3-1.8 2.1-2.4c0.7-0.5 1.6-1.1 2.4-1.4s1.9 0.4 2.6-0.1c-0.1-0.4-0.6-0.7-0.8-1.1 1-0.7 1.7-1.5 3-1.6 1-0.1 1.8 0.3 2.7 0.5 1.2 0.2 2.5 0.2 3.7 0.2 1.1 0 1.9-0.6 3-0.9 1.8-0.6 3.6-1.1 4.8-2.7 0.7-0.8 0.9-1.8 1.6-2.6 0.5-0.5 1.1-0.9 1.8-1.2 1-0.4 2-0.9 2.6-1.8 0.1 0.4 0.3 0.8 0.1 1.2 1.4-0.7 2.7-2.3 3.3-3.6z"/>
 <path class="st10" d="m63.1 97.1c-0.4 0.1-0.7 0.3-1.1 0.3 0.1 0.6 1.5 1.1 1.4 1.9-0.1 0.3-0.8 0.9-1 1.3-0.3 0.5-0.6 1.5-0.5 2.1 0.2 0.8 1 1.1 0.9 2 1-1.7 3.9-2.2 5.7-2.3 1.7-0.2 3.2-0.2 4.8-0.8 3.2-1 6.7 0.1 9.6-1.9 1.6-1.1 2.7-2.6 3.8-4.1 0.5-0.7 0.7-0.9 0.1-1.6-0.5-0.6-1.1-1.2-1.8-1.1-1 0.2-1.9 1-3 1.2-1.1 0.3-2.2 0.7-3.4 0.9-1.4 0.3-2.7 0.8-4.1 0.9-1.2 0.1-2.4-0.3-3.6-0.2-1.8 0.1-3.6 0.6-5.2 1.2-0.6 0.2-1.2 0.6-1.9 0.7-0.6 0.1-1.1-0.1-1.8 0"/>
 <path class="st4" d="m60.9 113.9c1.6-1.6 2.6-3.2 4.9-3.8 0 0.6-0.3 1.3-0.5 1.9-0.4 1.5-0.8 3-1.2 4.6-0.7 2.6-1 5.1-1 7.8 0 2.5 0.4 4.6 1 7-1.2-0.3-2.3 0.5-3.4 0.8-0.6 0.2-1 0.2-1.3-0.2s-0.3-1.8-0.4-2.3c-0.3-2.8 0.2-6 0.7-8.8 0.5-2.6 1.2-4.9 2.3-7.2"/>
 <path class="st3" d="m30.1 104.6c1 3.2 6.2 3.9 8.9 5.2 3.2 1.5 6.5 3 9.7 4.6 3.8 1.8 7.7 3.8 11.6 5.3-0.1-0.2-0.2-0.3-0.3-0.5"/>
 <path class="st10" d="m38.2 95.4c0.1 2.1 1.5 3.8 3.1 5.1s3.1 1.5 5 2c2.7 0.8 5.2 2.1 7.4 3.9 0.2-1.5 0.7-2.9 0.2-4.3-0.4-1.1-1.4-2.6-0.5-3.8-0.5-0.1-1 0.1-1.6 0-0.7-0.1-1.4-0.4-2.1-0.6-1.8-0.4-3.5-1-5.4-1.2-1.3-0.1-2.4-0.6-3.7-0.9-0.7-0.2-2.2-1.2-2.8-1 0.1 1.2-0.1 2.7 0.5 3.8 0.5 0.9 2 2.1 3.1 2.3"/>
 <path class="st11" d="m55 102.2c0 1.9-0.4 3.2-0.8 4.9 1 0.4 2.1 0.4 3 1.1 0.8 0.6 2.2 0.9 2.6 1.7 0.5-2.2 1.5-3.8 2.7-5.7-0.8-1.7-1.9-1.8-3.5-1.8-1.4 0-2.6-0.4-3.9 0.4 0.1 0.3 0 0.7-0.1 0.9 0 0 0.2-0.3 0.2-0.4"/>
 <path class="st3" d="m60.6 116c-0.5-3.7 6.3-8 9.4-8.7 3.4-0.7 6.9-1.1 10.3-1.7 1.6-0.3 2.9-0.5 4.2-1.4 1.5-1.1 2.1-2.9 3.6-4 2.2-1.8 5.6-2.5 7.1-5.2 0.2-0.4 0.3-0.8 0.4-1.2-0.4-0.2-0.1 0.1-0.3 0.2"/>
 <path class="st3" d="m54.5 102.2c0.7 1.3-0.4 3.2-0.5 4.6"/>
 <path class="st3" d="m61.4 102.5c0.3 0.7 0.7 1.2 1.2 1.7"/>
 <path class="st12" d="m55.1 102.6c0.1 1.3-0.5 2.1-0.8 3.4-0.3 1.1 0.7 1.3 1.6 1.8 1.6 0.8 3.1 1.3 4.3 2.7 0.1-1.4-1.2-2.9-2.2-3.7-0.7-0.5-1.4-0.6-1.3-1.5 0-0.4 0.4-1.4 0.7-1.7 0.5 0.2 1.1 0.4 1.6 0.7 0.1-0.4 0.2-0.8 0.4-1.1-0.8-0.1-1.3-0.6-2.1-0.5-0.7 0-1.4 0.3-2 0.1-0.1 0.5 0 1-0.2 1.5"/>
 <path class="st3" d="m33 83.3c2.6 1.5 5.4 2.7 8 4.2 2.9 1.7 5.7 3.7 8.6 5.5 2.4 1.4 5.1 2.4 7.8 3.3 0 0.2-0.1 0.2-0.2 0.3"/>
 <path class="st13" d="m61.4 97.7c1.4 0.4 2.9 0.6 4.3 1 1.2 0.3 2.4 0.9 3.7 1.2 1.4 0.3 2.7 0.1 4.1-0.3 3.6-0.9 6.4-3.3 9.8-4.5 1.1-0.4 2.2-0.9 3.3-1.5 0.1 0.2 0.1 0.3 0 0.5"/>
 <path class="st12" d="m54 97.7c-0.2 0.6-0.5 1.5-0.4 2.2 0.6 0 1.3-0.4 1.9-0.6 0.7-0.2 1.3-0.3 2-0.3 0.6 0 1.2 0.2 1.8 0.2s1.1-0.2 1.7 0c-0.3 1.4-1.4 1.1-2.6 1.2 0.4 0 0.6 0.5 1 0.6 0.4 0.2 1 0.1 1.4 0.1-0.1 0.9-1 0.8-1.7 0.6 1.5 1.1 2.1 0.7 2.8-1 0.3-0.6 0.8-1.1 0.5-1.8s-1.3-1.1-1.9-1.5c-0.6-0.5-0.9-0.5-1.7-0.3-0.7 0.2-1.3 0.3-2 0.5-1.2 0.2-3.6-0.3-3.2 1.6"/>
 <path d="m61.6 113.6c-0.1-3 0-5.5 2.1-8 1.9-2.4 6.3-2.9 9.1-3.4 3-0.6 7.5-0.5 9.8-2.8 0.9-0.9 1.6-1.6 2-2.8 1.2-3.5 3.4-4.5 6.1-6.3 2.1-1.4 2.6-3.6 2.4-6-0.8 0.1-1.6 0.2-2.5 0.3 0.1 0.3 0.1 0.5 0.2 0.8 0.4 1.6 2.8 0.9 2.4-0.7-0.1-0.3-0.1-0.5-0.2-0.8-0.4-1.3-2.6-1.1-2.5 0.3 0.3 4.4-5.2 5.3-7.3 8.5-1.6 2.4-2.5 5.2-5.7 6.1-2.3 0.6-4.7 0.8-7.1 1.2-7.9 1.5-11.7 5.6-11.5 13.6 0.2 1.6 2.7 1.6 2.7 0z"/>
 <path class="st5" d="m87.3 110.2c2-2.2 3.4-4.9 4.8-7.5-0.7 0.9-1.6 1.8-2.5 2.5-1.5 1.1-3 2.5-4.8 2.9-2.1 0.5-4.5 1.1-6.5 0.2 0.8 0.5 1 1.5 1.7 2.1 0.6 0.6 1.9 1.4 2.8 1.1-0.7 1.4-1.9 2.7-3.1 3.8-1.1 1-2.3 1.6-3.6 2.2-0.6 0.3-1.8 0.5-2.3 1 0.3 0.5 1.5 0.5 2.1 0.6 0.8 0.1 1.4 0.3 2.3 0.1 1.5-0.3 2.3-1 3.4-2.3 1.3-1.4 2.3-2.9 3.5-4.3 1-1.2 2.3-2.1 3.1-3.5 0.2-0.2 0.3-0.5 0.4-0.8v0.6"/>
 <path class="st13" d="m53.6 97.7c-1.2 1.8-4.1 2-5.6 3.6-1.3-1.6-3.7-2.6-5.3-3.8-1.5-1.1-3.4-2.7-5.3-3.2-0.2 0 0 0 0 0.1"/>
 <path class="st11" d="m54.4 97.9c-0.3 0.6-1.2 2.1-1 2.8 0.1 0.6 1.3 1.7 1.9 2 1.6 1 4 0 5.6-0.2 1.1-0.1 1.2-0.6 1.7-1.6 0.3-0.8 0.8-1.3 0.4-2.1-0.7-1.2-3.2-2.7-4.7-2.4-0.6 0.1-1.1 0.6-1.7 0.7-0.8 0.2-1.5 0.4-2.2 0.9-0.5 0.3-0.8 0.5-1 1.1-0.2 0.4 0.1 0.9-0.4 1.1"/>
 <path class="st4" d="m89.6 110.5c0.8-2.8 1.6-6 3-8.6-0.8 1.1-1.8 1.9-2.7 2.9-1.7 2-3.1 4.1-5.1 5.8-1.9 1.7-4.8 2.9-7.3 3 1.7 1.2 4.8 0.2 6.5-0.5-1.6 1.8-2.5 4.3-4.2 6.1-1.1 1.2-2.1 1.9-3.6 2.4-0.5 0.1-1.1 0.2-1.5 0.5 0.7-0.1 1.2 0.1 1.9 0.1 0.9 0.1 1.8-0.3 2.7-0.4 1.6-0.3 3.7-1.5 4.8-2.9 2.2-2.7 3.7-6.4 5.1-9.6 0.4-1 0.7-2 1.1-3 0.6-1.5 1.8-3.2 2.5-4.4"/>
 <path class="st5" d="m38.1 116.6c-2.1-2.2-3.6-4.9-5.1-7.4 0.8 0.9 1.7 1.7 2.7 2.4 1.6 1.1 3.2 2.4 5.2 2.8 2.3 0.5 5 1 7.2 0.1-0.9 0.5-1.1 1.5-1.9 2.2-0.7 0.6-2.1 1.4-3.1 1.2 0.7 1.4 2.1 2.7 3.3 3.7s2.5 1.6 3.9 2.1c0.7 0.3 1.9 0.5 2.5 1-0.4 0.5-1.7 0.5-2.3 0.6-0.9 0.2-1.5 0.3-2.5 0.2-1.6-0.3-2.5-1-3.7-2.2-1.3-1.4-2.4-2.9-3.7-4.3-1.1-1.2-2.4-2.1-3.4-3.4-0.2-0.2-0.3-0.5-0.4-0.8v0.6"/>
 <path class="st4" d="m36.1 115.5c-1.9-2.4-3.2-5.2-4.5-7.8 0.7 1 1.5 1.9 2.5 2.6 1.5 1.2 3 2.7 4.9 3.3 2.2 0.7 4.9 1.5 7.2 0.7-0.9 0.5-1.3 1.4-2.1 2-0.7 0.6-2.2 1.2-3.2 0.9 0.6 1.5 1.8 2.9 2.9 4s2.3 1.8 3.7 2.5c0.7 0.3 1.9 0.6 2.4 1.2-0.4 0.5-1.7 0.4-2.3 0.4-0.9 0.1-1.6 0.2-2.5-0.1-1.6-0.4-2.5-1.2-3.5-2.5-1.2-1.5-2.2-3.1-3.4-4.6-1-1.3-2.3-2.3-3.1-3.7-0.1-0.3-0.3-0.5-0.4-0.8 0 0.1-0.1 0.4-0.1 0.6"/>
 <path class="st5" d="m53.3 115.5c2.1 1.3 4.7 2 6.5 3.4-0.1-0.4 0-0.8 0.1-1.2-0.8-0.7-1.9-1.5-2.8-1.9 1 0.5 1.9 1.1 2.8 1.9 0.4-0.4-0.1-1.7 0.1-2.3-2.6 0-4.3-2.4-6.4-3.3 0.3 0.9 1.1 1.7 1.8 2.3 0.8 0.7 0.9 1.1 1.3 2-2.5 0-4.4-2.5-6.3-3.8 1.3 2.8 4.2 3.6 6.6 5.2"/>
 <path class="st14" d="m40 82.2c-3.8 0.2-7.5 2.4-8.7 4.7-0.9 1.8-0.5 2.3 1.3 3.7 1.3 1 2.8 1.9 4 3 1.3 1.2 0.9 2.1 1.1 3.6 0.2 1.7 1.1 2.5 2.8 3.5 2.9 1.7 6.2 2.8 9.3 4.4 4.6 2.3 12 4.6 11 10-0.3 1.6-0.1 3.3-0.4 4.9-0.3 1.7-0.9 3.4-1.1 5.1-0.2 2.1 0.2 4.3-0.3 6.3 0.3 0.2 0.4 0.1 0.7 0"/>
 <path class="st5" d="m28 97.8c0.5 2.5 1.6 7 3.9 8.4 1.1 0.7 2.7 1 4 1.2 1.2 0.2 2.7 0.9 3.8 0.9-1.1-1-2.9-1.4-4.1-2.1-1.1-0.6-1.8-1.4-2.5-2.4-1.2-1.7-2.4-3.4-3.2-5.4 0.9 0.2 1.5 0.5 2 1.2 0.6 0.7 1 1.7 1.6 2.2-0.4-0.9-0.3-2.1-0.7-3.1-0.4-0.9-1.1-1.8-1.9-2.3-0.7-0.5-1.5-0.9-2.3-1.4-0.8-0.6-1-1.2-1.6-1.9 0.2 2.1 0.7 4.3 1.1 6.4 0.2 1.1 0.5 2 1 3 0.2 0.5 0.5 0.9 0.8 1.3l0.6 0.9c0.1 0.3 0.2 0.7 0.3 0.5"/>
 <path class="st5" d="m65.3 115.4c0.1-1.8 0.4-4.9 2.3-5.7 0.8-0.4 1.7-0.5 2.6-0.7 0.8-0.2 1.6-0.6 2.5-0.3-0.6 0.6-1.7 0.7-2.4 1.2-0.9 0.7-1.8 1.7-2.5 2.7-1.3 2-2.2 4.2-2.8 6.5 0.1-1.1 0-2.3 0.1-3.4 0.1-0.9 0.1-2.4 0.7-3.1"/>
 <path class="st3" d="m52.8 97.3c2 0.4 4.2-0.4 6.1-0.6 1.2-0.1 1.4-0.1 2.1 0.4s1.5 1.5 2 2.2c-1.2 0.7-1 2.8-2 3.4-0.5 0.3-3.1-0.1-3.9-0.1-1.8 0.1-2 0.3-3.1-1.2-1.1-1.4-1.2-2.1-0.3-3.8 0.1 0.1 0.2 0.3 0.3 0.4"/>
 <path class="st4" d="m87.1 93.1c-0.9 0.6-1.7 1.9-1.9 2.9-0.1 0.7 0 1.5-0.3 2.2 0.5-0.6 0.8-1.1 1.4-1.6 0.9-0.7 1.8-1.3 2.7-2 1.7-1.2 3.5-2.5 5-4 0.5-0.5 1.7-1.8 1.6-2.5 0-0.3-0.3-0.4-0.4-0.6s-0.2-0.5-0.3-0.7c-0.3-0.4-0.8-0.8-1.2-0.9-0.1 0.5 0.1 0.9 0 1.4-0.2 0.6-0.7 1.2-1.1 1.7-0.6 0.9-1.3 1.4-2.2 2.1l-2.7 1.8c-0.5 0.3-1.7 1.3-1.4 2"/>
 <path class="st15" d="m70.6 101.5c-0.8 0.4-2.1 0.7-2.6 1.6 1.8-0.3 3.7 0 5.6-0.1 2.3-0.1 4.6-1 6.7-2.1 1.9-0.9 3.6-1.8 4.9-3.6 1-1.4 1.3-3 2.7-4 1.8-1.3 4.4-2.6 5.5-4.6 0.3-0.5 0.8-1.5 0.6-2.1s-1.1-1.2-1.5-1.7c-0.4 0.3-0.4 1.5-0.6 2.1-0.4 1.1-1 1.7-1.9 2.5-1.8 1.4-3.5 2.6-4.7 4.6-1.1 1.7-1.9 3.9-3.9 4.9-1.4 0.7-2.8 0.7-4.3 1.2-1.2 0.4-2.9 0.9-4.3 1-1.1 0.1-2.9 0.5-3.6 1.3"/>
 <path class="st15" d="m83.8 97.5c-0.4 0.3-4.9 2.9-3.7 4 0.4 0.4 1.7-0.2 2.1-0.4 1.1-0.5 2.5-1.5 3.2-2.5 0.5-0.8 0.7-2.1-0.6-1.9-0.8 0.3-2.6 1.6-2.9 2.3"/>
 <path class="st16" d="m63.1 123c-2.2-0.9-3.5 6 0.4 3.9 1.1-0.6 1.8-2.3 1.3-3.4-0.6-1.3-1.3-0.8-2.3-0.7-0.1 0 0.1 0 0.1-0.1"/>
 <path class="st17" d="m61.6 125.2c-0.1 1 0.5 1.9 1.5 1.3 0.5-0.3 1.3-1.6 1.4-2.2-0.2 0.3-0.6 0.7-0.9 0.9-0.3 0.3-0.6 0.7-1 0.7-0.9 0.1-0.9-1.1-0.7-1.7-0.3 0.5-0.6 1.3-0.4 2"/>
 <path class="st18" d="m60.5 96.4c2.3-2.9 6.4-4.9 9.9-6.1 3.2-1.1 6.5-1.7 9.9-2.3 2-0.4 4.3-0.8 6.2-1.4 1.5-0.5 2.8-1 3.7-2.3-0.2 0.1-0.1 0.2-0.2 0.4"/>
 <path class="st8" d="m31.4 87c-0.7 3.3 1.1 4.6 3.8 6.1 1.6 0.8 3.4 1.4 5 2.2 2.8 1.3 6.1 2.5 9.1 2.5 1.3 0 2.7-0.2 3.9-0.3 1.1-0.2 2.5-0.3 3.6-0.7-0.3-1.3-2.7-1.9-3.9-2.2-1.5-0.4-2.9-0.7-4.2-1.4-3.5-1.9-6.6-4.6-10.1-6.6-0.9-0.5-1.6-1.1-2.4-1.6-0.4-0.3-1.1-1-1.7-1s-1.5 0.9-1.9 1.4c-1 1.2-1.5 3.2-0.8 4.7"/>
 <path class="st19" d="m59.2 130.8c-0.3 0.2-0.8 2.5-0.8 2.9 1.5-0.4 3.2-0.8 4.8-1 2.5-0.4 5.5-0.6 7.9-1.5 2.1-0.8 4.7-2 6.3-3.5 1.4-1.3 2.6-2.7 3.8-4.2"/>
 <path class="st19" d="m41.7 123.9c1.4 1.7 2.2 3.7 3.1 5.7 0.6 1.4 1.7 2.3 3.2 2.8 1.7 0.5 3.6 0.5 5.4 0.7 1.5 0.2 3 0.5 4.5 0.5 0.6-1.1 0.9-2.3 1.3-3.4 0.1 0.1 0.1 0.1 0.1 0.2"/>
 <path class="st5" d="m72.9 104.8c-0.8-0.6-2.6-1.4-2.8 0.2 0.4 0.2 0.9 0.7 0.3 1.1-0.1-0.1-0.2 0-0.3-0.1 0-0.2-0.2-0.3-0.2-0.5-0.3 0.7 0.1 1.3 0.9 1s1.2-0.9 2.2-0.8c0.9 0.1 1.5 0.4 2.4 0.1 0.8-0.2 1.7-0.5 2.4-1-0.9 0.3-2.3 0.1-3.2 0.1s-2.1-0.9-2.8-0.7"/>
 <path class="st5" d="m91.2 94.4c-0.9 0.6-1.5 1.6-2.2 2.4-0.5 0.6-1.4 1.2-1.7 1.9 1.1 0.4 1.8 0.2 2.8-0.5 0.5-0.4 0.9-0.8 1.3-1.2 0.9-0.7 2.3-1.2 3-2 0.6-0.7-0.3-2.2-1.3-2-0.3 0.1-1.3 0.8-1.6 1.1-0.4 0.3-0.6 0.8-1 1.1-0.1 0-0.1-0.1-0.1-0.2"/>
 <path class="st20" d="m84.2 90.6c0-2.4 0.1-4.9 0.2-7.3 0 0.5 5.6 0.3 6.3 0.3 0.2-1.3-0.1-2.8 0.4-4 1.7 0 3.5 0 5.1 0.3 0 0 0.6 4.5 0.6 4.9 0.4 1.8 0.8 3.7 1.1 5.5 0.3 2.6 0.5 4.8-2.6 5.2-1.3 0.2-2.2 0.3-2.5-1.1-0.4-1.5-0.3-3.1-1.3-4.4-2 0.4-8.3 1.4-7.3-1.9"/>
 <path class="st21" d="m84.6 89c-0.4 1.1 0.8 1.2 1.6 1 0.1-1.2-0.2-2.8 0.2-4h0.2c0.2 0.4 0.3 1.1 0.2 1.6 0.7 0 1.4 0.2 2.1 0.3s1.6 0 2.2 0.3c0-0.9 0.6-2 0.4-2.9 0.2 0.1 0.3 0.1 0.4 0.1 0-0.9 0.4-2 0.5-2.9 0.3 0.1 0.6-0.2 0.9-0.3-0.2 1.1 0.6 2.9 0.9 4.1 0.3 1.4 0.6 2.7 0.9 4 0.2 1.1 0.8 2.4 0.8 3.6 0 0.8-0.3 1.1-1.1 0.8-0.7-0.3-0.9-0.9-1-1.6-0.4 1.2-0.8 1.4-0.1 2.6 1.1-0.3 3.2-0.7 3.7-1.9 0.6-1.4-0.1-3.1-0.3-4.5-0.3-1.7-0.7-3.4-1.1-5.2-0.2-1 0-1.5 0-2.4 0-1-0.5-1-1.4-1.2-1-0.2-2-0.5-3-0.7-0.4 1.2-0.8 2.7-1 4-1.7 0.3-3.5 0.2-5.2 0.6-1.3 0.3-1 4.2-0.9 5.5 0.1-0.1 0.2-0.1 0.3-0.2"/>
 <path class="st22" d="m86 84.1c-1.2-0.7-1.2 0.6-1.3 1.4s-0.3 1.4 0.7 1.2c0-0.5 0.1-1.1 0.3-1.5 0.4-0.7 0.8-0.3 1.5-0.4v-0.7c-0.6 0-1.4-0.1-1.9 0"/>
 <path class="st23" d="m94.9 94.2c-1-0.8-1.6-2.3-1.9-3.6-0.2-1-0.1-2.2-0.4-3.1-0.2 1-0.5 1.7-0.4 2.9 0.1 1 0.3 1.9 0.6 2.9 0.2 0.9 0.5 2 1.4 2 0.7 0 2-0.4 2.6-0.8-1.1 0.1-2-0.3-2.4-1.4"/>
 <path class="st23" d="m91.8 80.2c-0.5 0.9-1.2 3.1-0.8 4.1 0.2-0.7 0.6-1.7 1.1-2.3 0.6-0.8 1.7-0.5 2.7-0.8 0.5 2.1 1.3 4.7 0.9 6.9 0.1-0.5 0.6-1.4 1.1-1.6 0.1-1 0-2-0.1-3 0-0.6 0.3-2.6-0.2-3-0.3-0.3-0.8 0-1.2 0-0.3 0-0.9-0.1-1.2-0.2-0.9-0.3-1.6-0.4-2.4-0.6 0 0.6-0.1 1.1-0.2 1.7"/>
 <path class="st20" d="m35.4 89.3c0-2.4-0.1-4.9-0.2-7.3 0 0.5-5.6 0.3-6.3 0.3-0.2-1.3 0.1-2.8-0.4-4-1.7 0-3.5 0-5.1 0.3 0 0-0.6 4.5-0.6 4.9-0.4 1.8-0.8 3.7-1.1 5.5-0.3 2.6-0.5 4.8 2.6 5.2 1.3 0.2 2.2 0.3 2.5-1.1 0.4-1.5 0.3-3.1 1.3-4.4 2 0.4 8.3 1.4 7.3-1.9"/>
 <path class="st21" d="m34.9 87.6c0.4 1.1-0.8 1.2-1.6 1-0.1-1.2 0.2-2.8-0.2-4h-0.2c-0.2 0.4-0.3 1.1-0.2 1.6-0.7 0-1.4 0.2-2.1 0.3s-1.6 0-2.2 0.3c0-0.9-0.6-2-0.4-2.9-0.2 0.1-0.3 0.1-0.4 0.1 0-0.9-0.4-2-0.5-2.9-0.3 0.1-0.6-0.2-0.9-0.3 0.2 1.1-0.6 2.9-0.9 4.1-0.3 1.4-0.6 2.7-0.9 4-0.2 1.1-0.8 2.4-0.8 3.6 0 0.8 0.3 1.1 1.1 0.8 0.7-0.3 0.9-0.9 1-1.6 0.4 1.2 0.8 1.4 0.1 2.6-1.1-0.3-3.2-0.7-3.7-1.9-0.6-1.4 0.1-3.1 0.3-4.5 0.3-1.7 0.7-3.4 1.1-5.2 0.2-1 0-1.5 0-2.4 0-1 0.5-1 1.4-1.2 1-0.2 2-0.5 3-0.7 0.4 1.2 0.8 2.7 1 4 1.7 0.3 3.5 0.2 5.2 0.6 1.3 0.3 1 4.2 0.9 5.5-0.1-0.1-0.2-0.1-0.3-0.2"/>
 <path class="st22" d="m33.5 82.7c1.2-0.7 1.2 0.6 1.3 1.4s0.3 1.4-0.7 1.2c0-0.5-0.1-1.1-0.3-1.5-0.4-0.7-0.8-0.3-1.5-0.4v-0.7c0.6 0 1.4-0.1 1.9 0"/>
 <path class="st23" d="m24.6 92.8c1-0.8 1.6-2.3 1.9-3.6 0.2-1 0.1-2.2 0.4-3.1 0.2 1 0.5 1.7 0.4 2.9-0.1 1-0.3 1.9-0.6 2.9-0.2 0.9-0.5 2-1.4 2-0.7 0-2-0.4-2.6-0.8 1.1 0.1 2-0.3 2.4-1.4"/>
 <path class="st23" d="m27.7 78.8c0.5 0.9 1.2 3.1 0.8 4.1-0.2-0.7-0.6-1.7-1.1-2.3-0.6-0.8-1.7-0.5-2.7-0.8-0.5 2.1-1.3 4.7-0.9 6.9-0.1-0.5-0.6-1.3-1.1-1.6-0.1-1 0-2 0.1-3 0-0.6-0.3-2.6 0.2-3 0.3-0.3 0.8 0 1.2 0 0.3 0 0.9-0.1 1.2-0.2 0.9-0.3 1.6-0.4 2.4-0.6 0 0.6 0.1 1.1 0.2 1.7"/>
 <path class="st24" d="m14 24.9c4.8-4.1 5.8-10.4 11.5-13.9 4.4-2.8 10.3-4 15.5-4.4 6.9-0.6 13.9-0.2 20.7-0.8 6.7-0.6 14.3-1.1 20.8-0.5 5.2 0.5 9 0.7 12.3 4.8 3.2 4.1 6.5 8.5 9.1 12.7 1.5 2.4 1.6 2.7 0.6 5.3-0.8 2.3-1.8 4.3-2.9 6.5-2.4 4.5-6.1 6.3-1.4 10.4 1.5 1.3 3.5 2.6 4.5 4.3-1.9 0.4-5.7 2-6.8 3.6-1.3 1.8-0.2 4.9 0 7.1 0.5 4.2 0.6 9.8-1.7 13.5-0.9-0.8-5.2-2.8-6.5-2.3-1.5 0.7-2 5.5-2.2 6.9-0.5 4.3 0.4 8.3 0.5 12.5 0.1 2.5-0.7 3.3-2.4 5.4-1.9 2.2-3 2.2-5.7 3.1-4.1 1.4-7.5 5.6-12 6.3-2.6 0.4-6 0.5-8.7 0.2-3.8-0.4-6.1 1.1-9.1-1.5-3.3-2.9-9.4-8.6-14.4-7.2-0.5-2.7-4.1-4.2-6.2-5.8 4.3-4.6 4.7-13.9 2-19.3-1.3 0.1-3.2-0.4-4.6 0-1.8 0.5-2.4 2.1-4.6 1.7 0.6-1.9-0.5-4.3-0.6-6.3-0.1-2.3-0.1-4.7 0.3-6.9 0.6-3 2.4-3.8-0.3-6-1.9-1.6-4.1-3.2-6.4-4.4 2-1.6 4.3-3.6 6.6-4.8 1-3-2.4-7.8-3.9-10.5-1.8-3.3-3.6-6.4-4.9-9.7 3.3-0.8 5.7-7.6 7.3-10.1 0.9-1.5 2.7-3.7 4.3-4.7 1-0.6 4.8-2.2 5.8-1.3"/>
 <path class="st25" d="m16.8 25.5c4.5-3.9 5.5-9.8 10.8-13.2 4.1-2.6 9.7-3.8 14.6-4.1 6.5-0.5 13.1-0.2 19.5-0.7 6.3-0.6 13.4-1.1 19.6-0.5 4.9 0.5 8.5 0.7 11.6 4.5s6.1 8 8.6 12c1.4 2.3 1.5 2.5 0.6 5-0.8 2.1-1.7 4-2.8 6.1-2.2 4.3-5.7 6-1.3 9.8 1.4 1.2 3.3 2.5 4.3 4-1.8 0.4-5.3 1.9-6.4 3.4-1.2 1.7-0.2 4.6 0 6.7 0.4 4 0.6 9.2-1.6 12.7-0.9-0.8-4.9-2.7-6.1-2.1-1.4 0.6-1.9 5.2-2 6.5-0.5 4 0.4 7.8 0.5 11.8 0.1 2.3-0.6 3.1-2.3 5-1.8 2.1-2.9 2.1-5.4 2.9-3.9 1.3-7.1 5.3-11.3 6-2.5 0.4-5.7 0.5-8.2 0.2-3.6-0.4-5.7 1.1-8.6-1.4-3.1-2.7-8.9-8.1-13.6-6.8-0.5-2.5-3.9-4-5.8-5.5 4-4.3 4.5-13.1 1.9-18.2-1.2 0.1-3-0.4-4.3 0-1.7 0.5-2.2 2-4.3 1.6 0.5-1.8-0.4-4-0.6-6-0.1-2.1-0.1-4.4 0.3-6.5 0.6-2.8 2.2-3.6-0.3-5.7-1.8-1.5-3.9-3-6-4.1 1.9-1.5 4.1-3.4 6.2-4.5 0.9-2.9-2.2-7.3-3.7-9.9-1.7-3.1-3.4-6-4.6-9.1 3.1-0.8 5.3-7.1 6.8-9.5 0.9-1.4 2.6-3.5 4-4.4 1-0.6 4.5-2.1 5.5-1.2"/>
 <path class="st26" d="m53.2 99.4c-0.2 0.1-0.5 0.1-0.8 0.1-0.3-0.5-0.7-0.8-0.8-1.3 1.1-0.2 2.2 0.6 3.4 0.6 1-0.1 2.1-0.6 3.1-0.6 2.1 0 4.2 1.6 6.3 0.4-0.2 2.2-4.2 2.6-5.8 2.6-2.2 0-4.4-0.8-6.4-1.6 0 0.3 0.2 0.1 0.4 0.2"/>
 <path class="st26" d="m44.4 30c-4.4-0.7-5.9 5.8-1.2 5 1.4-0.2 2.7-1.5 4-2 1.4-0.5 2.9-1.2 4.3-1.5 6.7-1.5 13.4 0 19.8 1.3 0.9 0.2 1.7 0.3 2.5 0.5 1.2 0.3 1.6 0.9 2.6 1.6-0.7-3.5-3.1-3.8-6.2-4.7-3.7-1.1-7.8-1.3-11.6-1.8-5.9-0.8-12.7 0.3-17.8 2.8"/>
 <path class="st26" d="m76.8 66.5c-1.5 1.8-2.6 3.2-2.4 5.7 1.1-0.2 2.1 0.3 3.3 0.3 0.1 2.8-1.3 5.3-1 8.2 0.3 3.2 1.9 5.4 3.7 8 0.4-0.3 0.7 0.7 0.7 1.4-0.1 1.1-1 2-1.9 2.5-1.6 1-3.3 1.3-5 1.7 0.4 1.7-0.2 3.3 0 5 1.5-2.4 6.3-3.4 8.7-5 2.6-1.8 4.1-4.9 4.2-7.9 0.1-2.8-1.4-5.6-1.2-8.3 0.1-1.4 0.9-2.9 1.2-4.2 0.1-0.6 1.3-3.4 1.2-3.7v-0.1c-1.5-1-12.3-5-12.4-2.2"/>
 <path class="st27" d="m76.4 67.8c-1.4 1.5-1.4 2.9-1.4 4.6 1.2-0.3 2.7-0.2 3.8 0.3-1.6 1.3-2 5.9-1.7 7.8 0.3 2.1 1.3 4.1 2.8 5.8 0.7 0.8 2 1.8 2.2 2.8 0.2 1.2-1.1 2.3-1.9 3.2-0.9 0.9-2 1.5-3.1 2.1-1.5 0.8-2 1.4-2.9 2.6-0.4 0.5-0.8 0.8-1.1 1.3 0.2-2-0.1-3.2 1.6-4.6 1.6-1.3 3.2-2.7 4.7-4-0.5-1.2-1.7-2.3-2.3-3.5-0.6-1.3-1.1-2.4-1.5-3.8-0.7-2.6 0-5.2 0.6-7.7-0.8-0.1-2.2-0.4-2.7-1.1s0-1.8 0.3-2.7 2.8-5 4-3.8c-0.8 0.7-2.2 1.2-2.6 2.2 0.2 0 0.3 0 0.5-0.1"/>
 <path class="st14" d="m24.7 71.6c3-0.4 5.3-2.4 8.4-2.8 3.5-0.5 8.8-0.5 12 0.8"/>
 <path class="st27" d="m51 97c1.7 2.4 5.5 0.3 7.8 0.5 1.2 0.1 2.3 0.8 3.5 0.9 1.8 0.2 2.9-0.3 4.2-1.4-2.2 1.1-4.8-0.7-7.1-0.5-2.2 0.1-4.7 1.9-6.5 0.3 1 0.7 2.4-0.1 3.5-0.3-0.9-0.4-1.7-1.5-2-2.4-0.5 1.1-2.5 2.7-3.8 2.6 0.7 0.9 1.9 1.2 3 1.3"/>
 <path class="st14" d="m75.6 66.1c2.3 0.8 4.8 0.3 7.1 1.1 1.5 0.5 3 1 4.4 1.4 2 0.7 7.1 3.6 7.4 5.3"/>
 <path class="st26" d="m34.5 79.2l-0.5 2.8c0.3-0.8 0.5-1.9 0.6-3.1 0-0.2-0.1-0.4-0.2-0.5-0.1 0.3 0 0.5 0.1 0.8z"/>
 <path class="st26" d="m39.5 91.3c-0.3-0.8-0.9-1.7-1.5-2.2 1.5-2.4 2.6-5.9 3.1-9.2 0-1.3 0.2-2.5 0.3-3.8v-1l0.1 0.1c0-0.2 0-0.4 0.1-0.6 0.1-1.7 0.1-3.4-0.1-5.1-0.5-0.2-1.1-0.3-1.6-0.4-1.7-0.4-6 1-7.2-0.3 1.4 2.1 2.1 6.6 1.9 10.1 0.5 2.4-1.3 8.2-3.2 9.2 2.2 0.6 5.6 4 6.1 6.3 1.4-1 4.6 0.3 6 1.1 2 1.1 4 2.6 5.8 3.9 0.2-0.1 0.5-0.6 0.6-0.7-1.9-3.3-6.6-8.2-10.4-7.4z"/>
 <path class="st27" d="m78.2 57.8c-1.4 0.6-1.9 3.5-0.5 4.2 1.5 0.7 3.6-0.2 5.4 0.5 1.7 0.7 3.3 1.7 5 2.4 1.5 0.7 2.5 1.5 3.8 2.3-0.6-1.7 0.6-3.4 1.2-5 0.6-1.5 0.2-2.4 0.2-3.9-0.2-2.8-1.5-5.1-2.6-7.6 1 0.7 2.4-0.2 3.5-0.5 1.4-0.4 2.6-0.8 4-1.4-1.3-1.1-2.7-2.8-3.7-4.2-1.1-1.7-1.8-2.1-3.5-3.1 1 1.3 3.4 3.4 3 5.2-0.5 2-3.5 1.1-5 1.2 0.6 1.1 0.6 2.2 0.9 3.4 0.4 1.6 0.9 2.9 1.1 4.6 0.2 1.8 0.6 5.7-1.1 7-2.1-3.7-7-6.5-10.6-4.1 0.1-1.4 1.1-2.7 2.2-3.6-1.6 1.5-4.4 2.9-4.1 5.6"/>
 <path class="st2" d="m35.4 67.9c2 2.6 2.7 6.1 3 9.3 0.3 2.7-0.5 5.1-0.5 7.7 0.4 0 0.4-0.3 0.7-0.5"/>
 <path class="st26" d="m39.9 20.6c-5.7-0.4-0.1 4.7 1 6.7 1.9-4.1 8.1-5.8 12.2-6.8 2.1-0.5 4.4-0.9 6.5-0.7 0.9 0 1.7 0.1 2.5 0.4 0.7 0.2 1.4 0.9 2.1 0.9-0.9 0-1.6 0.6-2.4 0.8 1.6 1.8 3.5 3.3 5.4 4.9 1.4-0.9 3.2-1.8 4.8-2.4 1.1-0.4 4-0.4 3.9-1.5-0.1-1-2.9-2.7-3.7-3.1-1.3-0.7-2.6-1-4-1.4-6.7-1.7-14.3-1.3-21 0-1.5 0.3-9.3 0.4-9 2.4"/>
 <path class="st2" d="m82.6 68.1c-3.1 4.4-4.4 11.8-2.5 17"/>
 <path class="st27" d="m25.6 25.8c-2.4 2.6 0.1 5.8 0.3 8.9 0.1 2.5 0 5.7-1.1 7.8 0.6 0.2 1.3 0.8 1.9 1.1 0.7 0.4 1.6 0.6 2.2 1.2 0.3-1.6 2.8-2.5 4-3.1 1.5-0.8 3.3-0.6 4.9-1.1-1.3-0.8-3.6-0.7-5-0.5-1 0.2-1.4 0.4-2.1-0.2-1-0.7-0.7-1.6-1.2-2.7l-1.2-3c-0.3-0.8-1.2-1.7-1.4-2.5-0.5-1.8 1.4-3.5 1.6-5.2 0.9 2.3 1 5 1.1 7.4 1 0 1.8 1.2 2.5 1.9 0.4-1-0.1-3.3-0.2-4.4s0.1-2.5-0.1-3.5c-0.3-1.2-1.7-1.5-2.6-2.3-1-0.7-1.4-1.3-1.7-2.4-1.1 0.9-3.1 4.5-3 6"/>
 <path class="st2" d="m51.6 97.9c3.3 2 4.7-0.3 7.5 0 2.1 0.2 3.2 1.8 5.5 0.3"/>
 <path class="st27" d="m39.4 40c-2.6 1.5-4.9 2.7-7.3 4.5-1.6 1.3-3.8 2.3-4.4 4.5-0.7 2.3 4.1 5.8 6.2 5-2.2 1.9-4.1 4.6-5.1 7.2-0.6 1.5-1.7 4.6-1.1 6.1 1.1-2.6 5.6-2.7 8-2.8 2.6-0.1 5.3 0.1 7.7 0.5-1.5-1.3-4.4-1.7-6.5-1.7-2-0.1-4.1 0.6-6 0.6 0.3-4.1 3.6-8.1 6.8-10.4-2.4-1.3-7.1-2.1-5.7-5.6 0.9-2.2 3.2-3.7 4.9-5.1 1.3-1.1 3.4-2.9 5.1-3-0.8-0.6-4.3 0.9-5.1 1.6"/>
 <path class="st26" d="m18.1 49.8c2.5-2.9 5.1-5.4 9-6.7 4.2-1.5 8.6-2.5 12.8-3.9-3.1 2.2-6.3 4.3-9 6.9-1.2 1.2-3.1 2-2.3 3.7 0.7 1.5 3.5 3.6 5 4.4-1.8 1.7-3.1 4.4-3.8 6.7-0.5 1.7-1.6 5-0.9 6.8 1.6-2.1 7.4-2 10-2.2 3.8-0.3 7.6 0.7 11.2 1.5-0.8 0-1.4 1.1-1.7 1.8-2-0.8-4.2-0.7-6.3-0.8-2-0.1-3.8-0.6-5.8-0.4s-3.9 0.6-5.8 1.1c-2.1 0.5-3.6 1.8-5.7 2.3-1.8-3.6-1.2-9.1-0.2-12.8 0.2-0.8 0.6-1.8 0.6-2.5 0-0.9 0.3-0.5-0.2-1.3-0.3-0.5-1.2-0.9-1.6-1.2-1.7-1.5-3-2.8-5.2-3.6 0.6-0.6 1.4-1.2 2.2-1.7"/>
 <path d="m40.8 22.2c9.7-3.9 21-6.7 30.5-0.5 1.4 0.9 6.1-0.1 3.7-1.7-11.5-7.6-25.7-4.8-37.5 0-2.7 1.2 1.8 2.8 3.3 2.2z"/>
 <path d="m42.2 31.2c9.5-4.9 22.9-2.3 32.2 1.6 0.8 0.3 3.4-0.8 2.3-1.3-10.8-4.5-25.4-6.6-36.3-0.9-1.6 0.9 1 1.1 1.8 0.6z"/>
 <path class="st3" d="m23.2 70.1c3.7-2.9 8.7-5.1 13.5-5.1 1.8 0 3.6 0.6 5.3 0.1"/>
 <path class="st26" d="m76 65.3c-0.1-0.7 0-3.2 0.3-3.8 0.5-1 0.6-0.7 1.5-1 1.5-0.5 3.1-0.5 4.6-0.2 3.9 0.9 6.3 3.1 9.4 5.4-0.1-3 1.3-5.8 1.2-8.8-0.1-2.6-1.5-4.5-2-6.9 1.6 1 4.7-0.7 6.3-1.3-0.8-2.8-4.3-6-6.4-8 2.2 0.7 4.7 2.1 6.6 3.4 1.5 1 4 3 4.7 4.6-1.7-0.7-5.1 2-5.9 3.4-1.1 1.8-0.4 4.3 0 6.1 0.9 4.4 0.9 10.7-2.3 14.4-0.7-2.4-3.3-2.9-5.2-4-1.8-1-3.8-1.7-5.8-2-2.5-0.3-9 0.2-6.8-4.3"/>
 <path class="st26" d="m21.2 18.9c-1.3 1.6-2.4 2.9-3.8 4.3-1 1-1.9 1.6-1.7 3.1 0.3 2.5 3 4.8 4.1 7.1 1.2 2.5 2.5 4.9 3.7 7.4 0.5 1.2 1.2 2.2 1.5 3.4 0.2 0.9 0.3 2.4 0.6 2.8 2.1-6.5-0.7-12-3.8-17.6-0.8-1.5-0.8-1.7 0.2-2.9 1.1-1.4 2.3-2.9 3.2-4.4 1.4-2.6 2.5-5.2 4.1-7.7 1.8 0.5 4.6-0.4 6.5-0.6 3.1-0.3 6.3-0.7 9.4-1.3 4.9-0.9 9.8-2.2 14.6-3.1-0.5 1.6-2.1 3.6-3.8 4.2 2.2-1.3 9.3-3.8 8.8-6.8-3.6 0.6-7.3 0.4-10.8 0.6-3.4 0.1-6.8 0.1-10.3 0.6-3.1 0.5-6.1 0.8-9 1.3-2.5 0.5-5.5 0.8-7.8 2-1.8 0.9-2.7 3.1-3.8 4.7-1.2 1.7-2.4 3.3-3.4 5.1"/>
 <path class="st26" d="m63.6 8.5c-0.9 0.8-2.2 1.6-2.2 2.9 3.6 0.1 7.2 0.5 10.7 0.8 1.4 0.1 3 0 4.4 0.2 1.2 0.2 2.3 0.9 3.5 1.1l-0.4 0.4c1.4 0.3 3.2 1.3 4.5 2 1.4 0.7 3.3 1.2 4.6 2 0.6 0.4 1 0.9 1.6 1.4 0.6 0.4 1.4 0.7 2.1 1 1.2 0.6 3.2 1.2 3.6 2.3 0.5 1.2-0.3 3.4-0.3 4.7-0.1 2.2-0.3 4.3-0.6 6.4-0.4 2.8-1.4 6.7-0.6 9.5 0.3 1.2 0.9 2.1 2.2 2.5-1.6-2.9 1.3-7.5 2.8-10 1.8-3 2.8-6.3 4.3-9.5-1.8-2.5-3.7-5-5.6-7.5-2.1-2.8-3.4-5.6-6.4-7.5-6.1-3.7-11.8-3.8-18.4-3.5-2.8 0.1-5.5-1.6-8.1-0.7-1.7 0.6-4.3 3.8-4.9 5.6"/>
 <path class="st26" d="m45.9 22c-0.4 1.2-1.3 2.6 0 2.9 0.4 0.1 2.5-0.5 2.8-0.7 2-1.1 2.7-3.6 5.2-4.1-1.2 1.6-0.6 3.6-0.7 5.4 2.6-1.9 5.1-4 7.8-5.9-1.7-3.5-15.6-0.3-15.6 3.5"/>
 <path class="st26" d="m69.5 6.5c-0.7 0.3-1.7 0.5-2 1.3 0.8 0.3 1.6 0.7 2.5 0.8 1.1 0.2 2.3 0.1 3.4 0.1 1.3 0 2.8-0.2 4.1-0.1 2.2 0.3 4.4 0.7 6.6 1.1 1.5 0.3 2.8 0.4 4 1.4 0.7 0.5 1.6 1 2.3 1.4 1.2 0.6 2.2 0.9 3.2 1.9 0.5 0.5 1 0.7 1.5 1.2 0.1-1.3-1.8-3.2-2.5-4.1-1.2-1.4-2.2-2.3-3.8-3s-3.6-1.5-5.3-1.6c-1.9-0.1-3.7-0.2-5.6-0.2-2 0-3.9-0.1-5.8 0.1-1.5 0.2-3.3 0.1-4.6 0.8"/>
 <path class="st24" d="m39.5 95.8c0.4-2.7 3.2-5.6 5.2-7.4s4.1-3.5 6.8-4c-0.5 1.1-2.2 1.6-3.1 2.5-1.4 1.2-2.6 2.6-3.7 4-1.3 1.6-2.7 3.4-2.7 5.5-0.8-0.2-1.5-0.9-2.5-0.8 0.2-0.5 0.7-1.2 1-1.2"/>
 <path class="st26" d="m43.7 95.6c0.6-1.1 1.1-2.2 1.6-3.2 0.4 1 1.2 1.9 1.6 2.9 0.3-0.9 1-1.8 1.1-2.6 0-0.7-0.3-2.1-0.5-2.8 0.9 0.1 1.8 0.5 2.2 1.3 0.1-0.6 0.6-1.2 0.9-1.7s0.4-1 0.6-1.5c0.6-1.3 1.8-3 3.1-3.8-0.8 0.2-1.6-0.2-2.4-0.1-1 0.1-1.5 0.6-2.3 1.1-1.7 1.1-3.3 2.2-4.7 3.7-0.9 1-2 2.1-2.5 3.4-0.4 1-0.3 1.1 0.5 1.7 0.4 0.3 1.5 0.8 1.6 0.7"/>
 <path d="m45.2 85.4c0.8-0.5 1.7-1.5 2.7-1.2 0.1 1.5 2.2 3 2.8 4.5-0.7 0.2-1.2 0.9-1.8 1.2-0.6-1-1.2-1.9-1.9-2.9-0.4-0.6-0.8-1.8-1.3-2.1"/>
 <path class="st24" d="m42.2 88.4c0.4-2.5 2.3-0.7 3.2 0.5s1.4 2.4 1.8 3.8l-0.1-0.1c-0.2 0.3-0.6 0.4-0.8 0.6-0.5-1.5-3.1-3.8-4.6-4.3 0.3-0.5 0.6-1.3 1.2-1.2"/>
 <path class="st26" d="m96.4 21.3c-3.8 2.5-10.1 9.7-7.8 15 2.3-2 4-5 7-6.7 2-1.1 1.9-1.5 2.2-3.8 0.1-1.4 0.2-3 0.7-4.3 0-0.1-0.1-0.1-0.2-0.1-1.2 0.5-4.7 1.2-4.5 2.8"/>
 <path d="m100.4 21.8c-3.3 1-6.2 2.8-8.4 5.6-1.2 1.6-3.2 4.6-3.1 6.7 1.1-0.9 2-2.2 3-3.3 1.2-1.3 2.5-2 4-2.8 1.4-0.8 2.8-1.4 4.2-1.9 1-0.4 1.8-0.1 2.6-0.4-0.5-1.4-1.2-2.8-1.8-4.2-0.8 0.4-1.7 0.7-2.5 1.2"/>
 <path d="m91.1 23.1c0.6 2.1 2.9 12.9 6.6 8.3-1.2-1.1-2.2-3.2-2.9-4.7-0.8-1.7-0.7-3.2-0.8-5-0.9 0.3-2 0.7-2.8 1.1 0.3 1.3 0.5 3 0.6 4.4"/>
 <path d="m96.9 21.3c0 2.6 0.3 6.2 2.5 8 0.5-0.3 1-0.7 1.5-1-1.1-2.5-2.3-4.4-2.5-7.2-0.5 0-1 0.2-1.5 0.4 0 0.9 0.1 1.8 0.4 2.6"/>
 <path class="st27" d="m29.7 14.3c-2-2-4 1-4.8 2.7-0.8 1.8-1.8 3.4-2.8 5-1 1.5-2 3.2-1.7 5.1 0.3 1.7 2.1 3.7 3.2 5-1.6-2.5-0.2-6.2 1.2-8.6 1.2-2.2 2.6-5.5 4.4-7.3 0.9 0.7 2.1 0.6 3.1 1.1-0.8 1.6-1.3 3.3-2.1 4.9 1.9-1.9 3.9-4.2 5.3-6.5 0.3-0.4 1.3-1.8 1.2-2.4-0.2-0.9-1.2-0.7-2-0.9-1.3-0.3-3.4-0.8-4.6-0.4-1.6 0.5-3.6 3.1-4.6 4.4"/>
 <path d="m64 12.8c-2.8 2.4-6.3 3.9-8.3 7.2-1 1.6-1.5 3.5-2.4 5.1 4-3.6 9.8-9.9 15.6-9.6-0.9-0.8-2.4-2.2-3.6-2.1-1.9 0.1-4.2 1.9-5.7 3"/>
 <path d="m52 14.1c-3.5 2.1-4.3 5.5-5.3 9.1 1.3-1.4 2.5-3.2 3.9-4.7 0.7-0.8 3.3-2.3 3.4-3.3 0.4-3.2-4.6-0.2-4.8 1.7"/>
 <path class="st8" d="m92.2 86h-0.2"/>
 <path class="st26" d="m37 58.1c-0.2 0-0.3-0.1-0.3-0.3 0.8-1.7 1.3-3.5 3.1-4.5 2.9 5.6 8.7 5.5 14.2 5.5-2.9 2.4-6.8 2.6-10.5 2.5-1.6-0.1-3.1-0.5-4.5-1.2-1.6-0.8-2.4-3.2-0.2-4"/>
 <path class="st26" d="m67 57.8c2.9 0 4.2-1.6 6.7-3 1.7-1 2.9-2 4-3.7 1.1-1.8 3-5.2 2.2-7.3 3.1 1.2 4.7 2.5 8.3 1.8-2 2.3-0.7 7.6-0.4 10.5-1.2-0.9-3.2-2.2-4.5-1.1-0.7 0.6-0.9 1.7-1.9 2.3-0.8 0.5-1.6 0.8-2.5 1.1-1.8 0.7-3.7 1.2-5.7 1.1-1.8-0.1-3.1-1.2-4.8-1.3 0.3 0.1 0.6 0.2 0.9 0.3"/>
 <path d="m75.3 45c1.1 0.4 1.8 5.4 2 6.4 0.6 3.5 0.6 7 0.6 10.5 0 1 2.9 2.8 2.9 2.2 0-6.6 0.5-18.9-7.5-21.7-1-0.3 1.2 2.3 2 2.6z"/>
 <path class="st24" d="m66.2 54.7c4.9-3.1 9.7-5.8 15.3-7.7 3.7-1.2 8.1-2 7.1 3.6-1.2 6.6-7.3 11-13.9 9.5-2.9-0.7-7.2-3.1-9.4-5.1 0.2-0.5 0.7-0.8 1.1-1.2"/>
 <path class="st28" d="m68 54.4c4.3-2.6 8.5-4.9 13.3-6.4 3.2-1 7.1-1.7 6.2 3-1 5.5-6.4 9.2-12.1 7.9-2.6-0.6-6.3-2.6-8.3-4.2 0.2-0.4 0.6-0.7 1-1"/>
 <path class="st29" d="m70.4 54.1c3.5-2 7-3.7 11-4.9 2.7-0.8 5.8-1.3 5.1 2.3-0.8 4.2-5.3 7-10 6-2.1-0.4-5.1-2-6.8-3.2 0.2-0.3 0.5-0.5 0.8-0.8"/>
 <path class="st24" d="m57.5 54.6c-4.9-3.1-9.7-5.8-15.3-7.7-3.7-1.2-8.1-2-7.1 3.6 1.2 6.6 7.3 11 13.9 9.5 2.9-0.7 7.2-3.1 9.4-5.1-0.2-0.5-0.7-0.8-1.1-1.2"/>
 <path class="st28" d="m55.7 54.3c-4.3-2.6-8.5-4.9-13.3-6.4-3.2-1-7.1-1.7-6.2 3 1 5.5 6.4 9.2 12.1 7.9 2.6-0.6 6.3-2.6 8.3-4.2-0.2-0.4-0.6-0.7-1-1"/>
 <path class="st29" d="m53.3 54.1c-3.5-2-7-3.7-11-4.9-2.7-0.8-5.8-1.3-5.1 2.3 0.8 4.2 5.3 7 10 6 2.1-0.4 5.1-2 6.8-3.2-0.2-0.3-0.5-0.5-0.8-0.8"/>
 <path class="st24" d="m58.8 72.2c-0.8-1.3 2.2-2.3 3.8-2 2 0.3 3.1 1 3.1 2.3"/>
 <path class="st3" d="m51.9 79.2c0.7-2.1 7.9-2.5 10-2.3 3 0.2 7.3 0.3 10 1.3"/>
 <path class="st3" d="m53.7 75.5c1 1.1 2.5 1.8 3.3 3.2"/>
 <path class="st3" d="m58.9 75.2c1.4 0.2 2.5 1.8 3.3 2.8"/>
 <path class="st3" d="m63.9 75c1 0.7 1.7 2.2 2.3 3.2"/>
 <path class="st3" d="m68.4 74.9c1.2 0.8 2.8 3.2 2.8 4.7"/>
</svg>
