<?xml version="1.0" encoding="UTF-8"?>
<svg viewBox="0 0 299 387" xmlns="http://www.w3.org/2000/svg" xmlns:xlink="http://www.w3.org/1999/xlink">
 <defs>
  <filter id="z">
   <feGaussianBlur stdDeviation="4.37519"/>
  </filter>
  <filter id="n">
   <feGaussianBlur stdDeviation="18.84636"/>
  </filter>
  <filter id="b" x="-.21039" y="-.22657" width="1.4208" height="1.4532">
   <feGaussianBlur stdDeviation="1.12016"/>
  </filter>
  <filter id="aa" x="-.23033" y="-.17826" width="1.4607" height="1.3565">
   <feGaussianBlur stdDeviation="4.63515"/>
  </filter>
  <filter id="y" x="-.12886" y="-.39656" width="1.2577" height="1.7931">
   <feGaussianBlur stdDeviation="4.63515"/>
  </filter>
  <filter id="x" x="-.13741" y="-.45023" width="1.2748" height="1.9005">
   <feGaussianBlur stdDeviation="4.63515"/>
  </filter>
  <filter id="w" x="-.11555" y="-.11928" width="1.2311" height="1.2386">
   <feGaussianBlur stdDeviation="4.63515"/>
  </filter>
  <filter id="d" x="-2.1966" y="-1.4644" width="5.3933" height="3.9288">
   <feGaussianBlur stdDeviation="14.17684"/>
  </filter>
  <filter id="v" x="-.97487" y="-4.2057" width="2.9497" height="9.4115">
   <feGaussianBlur stdDeviation="4.63515"/>
  </filter>
  <filter id="u" x="-.39191" y="-.92807" width="1.7838" height="2.8561">
   <feGaussianBlur stdDeviation="4.63515"/>
  </filter>
  <filter id="t" x="-.93456" y="-.51135" width="2.8691" height="2.0227">
   <feGaussianBlur stdDeviation="4.63515"/>
  </filter>
  <filter id="s" x="-1.3308" y="-.36168" width="3.6616" height="1.7234">
   <feGaussianBlur stdDeviation="4.63515"/>
  </filter>
  <filter id="c" x="-.75035" y="-.80807" width="2.5007" height="2.6161">
   <feGaussianBlur stdDeviation="3.99502"/>
  </filter>
  <filter id="r" x="-.2152" y="-.18634" width="1.4304" height="1.3727">
   <feGaussianBlur stdDeviation="4.63515"/>
  </filter>
  <filter id="q" x="-.22798" y="-.2059" width="1.456" height="1.4118">
   <feGaussianBlur stdDeviation="4.63515"/>
  </filter>
  <filter id="p" x="-.05006" y="-.1515" width="1.1001" height="1.303">
   <feGaussianBlur stdDeviation="4.63515"/>
  </filter>
  <filter id="o" x="-.24916" y="-.11912" width="1.4983" height="1.2382">
   <feGaussianBlur stdDeviation="4.63515"/>
  </filter>
  <filter id="m" x="-.12582" y="-.15985" width="1.2516" height="1.3197">
   <feGaussianBlur stdDeviation="4.63515"/>
  </filter>
  <filter id="l" x="-12.919" y="-.24913" width="26.839" height="1.4983">
   <feGaussianBlur stdDeviation="4.63515"/>
  </filter>
  <filter id="k" x="-.13289" y="-.1389" width="1.2658" height="1.2778">
   <feGaussianBlur stdDeviation="186.17928"/>
  </filter>
  <filter id="j" x="-.09987" y="-.1325" width="1.1998" height="1.265">
   <feGaussianBlur stdDeviation="4.63515"/>
  </filter>
  <linearGradient id="a">
   <stop stop-color="#f60" offset="0"/>
   <stop stop-color="#f90" offset="1"/>
  </linearGradient>
  <radialGradient id="ab" cx="-364.3" cy="128.64" r="84.667" gradientTransform="matrix(-.10864 -1.1438 1.3866 -.09494 -582.24 -270.3)" gradientUnits="userSpaceOnUse">
   <stop stop-color="#ef2929" offset="0"/>
   <stop stop-color="#a40000" offset="1"/>
  </radialGradient>
  <radialGradient id="i" cx="-10444" cy="14491" r="577.36" gradientTransform="matrix(.17885 -2.2178 2.4048 .19393 -43424 -11349)" gradientUnits="userSpaceOnUse">
   <stop stop-color="#f90" offset="0"/>
   <stop stop-color="#f60" offset="1"/>
  </radialGradient>
  <radialGradient id="h" cx="-9845.4" cy="14423" r="487.89" gradientTransform="matrix(.23282 -1.8625 2.7723 .34654 -47537 -8906.9)" gradientUnits="userSpaceOnUse" xlink:href="#a"/>
  <radialGradient id="g" cx="-7808" cy="15859" r="432" gradientTransform="matrix(.45996 5.4739 -3.084 .25265 44693 53965)" gradientUnits="userSpaceOnUse" xlink:href="#a"/>
  <radialGradient id="f" cx="-8255.1" cy="14430" r="487.89" gradientTransform="matrix(.59263 -2.8573 2.7356 .56739 -42838 -17326)" gradientUnits="userSpaceOnUse" xlink:href="#a"/>
  <radialGradient id="e" cx="-7656.2" cy="14551" r="577.36" gradientTransform="matrix(.42925 -2.2714 2.3706 .44799 -38865 -9140)" gradientUnits="userSpaceOnUse" xlink:href="#a"/>
 </defs>
 <g transform="translate(0,-93)">
  <path d="m268.53 394.76-48.298-62.405" filter="url(#aa)" opacity=".43902" stroke="#000" stroke-width="1.3354"/>
  <g transform="matrix(1.0505 0 0 1.0684 498.4 240.58)" filter="url(#z)" opacity=".43902" stroke="#000" stroke-width=".94392">
   <path d="m-339.83 23.574 21.087-20.565s26.219-8.9487 33.259-1.6566c9.473 9.8116-11.354 36.82-11.354 36.82 12.937-1.4118 21.093 76.323 29.241 154.2l-70.96 0.41038c-2.6532-228.19-13.539-111.57-17.549-171.65z"/>
   <path d="m-350.14 26.698-26.606-23.689-39.698-3.2185 17.793 38.382c-22.008 31.25-20.419 90.999-30.569 157.32 32.238-1.6855 93.375 8.8042 89.764-5.0564l-2.6874-159.93z"/>
  </g>
  <path d="m56.112 449.3s-11.355 7.0039-19.504 9.0484c-25.518 6.4029-22.956 18.266-6.5012 18.097 19.943-0.20495 67.613-5.4291 67.613-5.4291l4.5508-8.1436 1.6412-14.478z" filter="url(#y)" opacity=".43902" stroke="#262316"/>
  <path d="m193.07 442.51s10.649 6.169 18.29 7.9698c23.93 5.6397 21.527 16.089 6.0966 15.94-18.702-0.18052-39.747-2.4894-63.405-4.7819-2.9982-0.29053-4.2676-7.1729-4.2676-7.1729l-1.5392-12.752z" filter="url(#x)" opacity=".43902" stroke="#262316"/>
  <path d="m86.208 211.53c4.1486 22.521-0.12035 52.813 44.543 54.582 50.324 1.9933 49.268-32.855 51.395-57.61 1.4316-16.663-26.554-35.571-26.554-35.571l-53.965 3.7842s-18.147 20.003-15.419 34.814z" filter="url(#w)" opacity=".43902" stroke="#262316"/>
  <path transform="matrix(.39595 0 0 .26998 24.949 181.17)" d="m236.21 157.3c0 6.4159-3.4674 11.617-7.7447 11.617s-7.7447-5.2011-7.7447-11.617 3.4674-11.617 7.7447-11.617 7.7447 5.2011 7.7447 11.617z" fill-opacity=".99216" filter="url(#d)" opacity=".43902" stroke="#262316" stroke-width="3.0586"/>
  <path d="m126.15 234.76c3.025 1.1744 3.5673 3.9637 8.7529 1.9084s1.1862-1.9084 1.1862-1.9084" filter="url(#v)" opacity=".43902" stroke="#262316"/>
  <path d="m120.41 243.16s9.0599 8.8061 14.193 8.2829c5.5485-0.56554 14.193-11.964 14.193-11.964s-10.598 5.9876-16.22 6.4422c-4.1037 0.33188-12.165-2.761-12.165-2.761z" filter="url(#u)" opacity=".43902" stroke="#262316"/>
  <path transform="matrix(.39595 0 0 .26998 54.827 180.41)" d="m236.21 157.3c0 6.4159-3.4674 11.617-7.7447 11.617s-7.7447-5.2011-7.7447-11.617 3.4674-11.617 7.7447-11.617 7.7447 5.2011 7.7447 11.617z" fill-opacity=".99216" filter="url(#d)" opacity=".43902" stroke="#262316" stroke-width="3.0586"/>
  <path d="m87.065 208.17c1.7979-7.9425-9.0864-3.4339-11.334 2.4256-2.7876 7.2666 11.115 15.059 11.115 15.059" filter="url(#t)" opacity=".43902" stroke="#262316"/>
  <path d="m180.1 203.47s2.9748 0.47552 5.7561 4.3273c5.0306 6.9666-7.1404 26.431-7.1404 26.431z" filter="url(#s)" opacity=".43902" stroke="#262316"/>
  <path transform="matrix(1.1288 0 0 1.1926 -229.73 75.039)" d="m304.85 140.92c0 3.2765-2.8605 5.9327-6.389 5.9327s-6.389-2.6562-6.389-5.9327 2.8605-5.9327 6.389-5.9327 6.389 2.6562 6.389 5.9327z" filter="url(#c)" opacity=".43902" stroke="#262316" stroke-width=".8619"/>
  <path transform="matrix(1.1288 0 0 1.1926 -175.91 72.904)" d="m304.85 140.92c0 3.2765-2.8605 5.9327-6.389 5.9327s-6.389-2.6562-6.389-5.9327 2.8605-5.9327 6.389-5.9327 6.389 2.6562 6.389 5.9327z" filter="url(#c)" opacity=".43902" stroke="#262316" stroke-width=".8619"/>
  <path d="m65.948 247.5c-18.707-1.4289-35.268 36.297-35.268 36.297l36.717 23.364 14.977-19.609s-2.0067-38.951-16.426-40.052z" filter="url(#r)" opacity=".43902" stroke="#000"/>
  <path d="m202.67 242.07c3.1986-6.077 29.47 34.211 29.47 34.211l-31.403 19.192-17.392-16.688 19.325-36.714z" filter="url(#q)" opacity=".43902" stroke="#000"/>
  <path d="m77.059 255.42-54.109-40.052 69.569 25.032c8.2243 27.482 29.344 19.698 44.447 28.37 15.559-7.1621 34.631-9.3935 40.582-30.039l67.637-33.377-90.826 70.091-52.177 3.3377z" filter="url(#p)" opacity=".43902" stroke="#000"/>
  <path d="m244.98 341.27s3.3568-0.12087 3.0112 2.9394c-1.0433 9.2394-4.3567 21.338-14.126 25.042-3.6584 1.387 3.4626-8.8497-0.50953-8.3346-3.4689 0.44998-1.5298 10.144-8.265 7.2123-3.5324-1.5374 5.603-9.6073 1.6751-9.2637-2.2179 0.19407-3.1753 8.7836-8.1594 8.1006-5.0754-0.69533 3.3972-14.255 0.69197-10.588-2.6441 3.5834-2.4207 9.4634-5.7186 8.0065-8.4354-3.7266 11.144-22.018 11.144-22.018-0.38715-1.7433-9.4893 9.7493-14.601 9.2555-7.1071-0.68664 8.9309-9.7087 10.066-14.955-1.5368-24.775-18.177-40.741-16.731-40.978 5.1261-5.1467 25.056-25.078 25.637-18.309 3.019 9.114 19.718 16.952 15.886 63.891z" filter="url(#o)" opacity=".43902" stroke="#262316"/>
  <g transform="matrix(.25564 -.05915 .0685 .22076 -91.245 132.4)" filter="url(#n)" opacity=".43902" stroke="#000" stroke-width="4.066">
   <path d="m437.14 426.65-48.571 1251.4h31.429l60-1248.6z"/>
   <path d="m434.29 423.79 2.8572-37.143s-125.71-2.8571-122.86-57.143c9.2204-175.19 22.857-171.43 22.857-171.43l-22.857 2.8571 31.429-37.143 31.429 31.429h-34.286l8.5714 162.86s94.594 56.635 94.286 22.857c-0.28944-31.695 20.538-174.29 25.714-174.29l-31.429-5.7143 37.143-42.857 37.143 40-31.429 5.7143 8.5714 182.86 82.857-14.286 17.143-174.29-25.714 2.8571 28.571-48.571 34.286 45.714-25.714 5.7143 14.286 200-131.43 20-1e-5 45.714z"/>
  </g>
  <path d="m35.116 286.3s-32.359 30.386 1.7576 49.493c39.086 21.89 33.69 11.631 33.69 11.631s-1.7996 2.4501 1.4421 3.7217c9.7872 3.8394 23.577 7.4108 32.176 1.9564 3.2201-2.0425-10.606-1.8352-8.1035-4.5484 2.1857-2.3693 10.937 3.9278 11.365-2.575 0.22448-3.4105-12.436-0.61329-10.128-3.3791 1.3036-1.5617 10.396 2.017 12.203-2.0519 1.8404-4.1434-15.994-4.5867-10.965-4.7767 4.9156-0.18573 10.701 2.9213 10.889-0.27356 0.48052-8.1719-27.653-2.6745-27.653-2.6745-1.5547-1.1612 14.522-2.2222 16.582-6.292 2.865-5.6585-14.202 1.8248-20.03 0.0503-5.4497-3.2017-35.196-13.709-23.099-10.832l2.163-15.83z" filter="url(#m)" opacity=".43902" stroke="#262316"/>
  <path d="m218.99 390.19-0.86106-44.652" filter="url(#l)" opacity=".43902" stroke="#000"/>
  <g transform="matrix(.02589 0 0 .02394 478.63 77.494)" filter="url(#k)" opacity=".43902" stroke="#6c260f" stroke-opacity=".84615">
   <path d="m-9786.7 13003c-560.14 0-934.23 673.31-934.23 1424.9s454.09 1360.9 1014.2 1360.9c47.667 0 94.569-4.413 140.48-12.95-357.44-158.95-619.57-679.9-619.57-1298 0-713.92 173.66-1378.2 615.97-1424.9-98.547-42.842-107.7-49.99-216.88-49.99z" stroke-width="35.2"/>
   <path d="m-10097 14476c0 735.79 265.83 1381.2 795.9 1299.6 48.172-7.411 96.474-6.509 142.93-19.022-313.01-120.58-357.08-659.25-357.08-1305.5 0-662.73 56.243-1212.3 381.14-1313.9-886.84-443.22-1025 1069.9-962.9 1338.8z" stroke-width="35.2"/>
   <path transform="matrix(.98738 0 0 1 -1320.2 -1712)" d="m-7392 16164c0 729.02-193.41 1320-432 1320s-432-590.98-432-1320 193.41-1320 432-1320 432 590.98 432 1320z" stroke-width="35.424"/>
   <path d="m-8292.8 13003c560.14 0 934.23 673.31 934.23 1424.9s-454.09 1360.9-1014.2 1360.9c-47.667 0-94.568-4.413-140.48-12.95 357.44-158.95 619.57-679.9 619.57-1298 0-713.92-173.66-1378.2-615.97-1424.9 98.546-42.842 107.7-49.99 216.88-49.99z" stroke-width="35.2"/>
   <path d="m-7982.3 14476c0 735.79-265.83 1381.2-795.9 1299.6-48.172-7.411-96.474-6.509-142.93-19.022 313.01-120.58 357.08-659.25 357.08-1305.5 0-662.73-56.243-1212.3-381.14-1313.9 886.83-443.22 1025 1069.9 962.89 1338.8z" stroke-width="35.2"/>
   <path d="m-9136 13132s-3.5703-292.74 80-400c76.242-97.855 336-160 336-160v176l-224 112v336z" stroke-width="35.2"/>
   <path d="m-9120 12982h174.08v134.57h-174.08z" fill-opacity=".39053" stroke-width="35.2"/>
   <path d="m-10032 14588c29.766 192.24 31.638 388.58 213.68 544.11l412.1 352.07 15.263-160.03h152.63l30.526 208.04 167.89-14.659 167.89 14.659 30.526-208.04h152.63l15.263 160.03 412.1-352.07c182.04-155.53 183.92-351.87 213.68-544.11-130.91 164.35-257.23 343.12-427.36 384.08l-15.263 144.03-167.89-32.006v-112.02l-274.73 32.007-15.263 208.04-91.578-32.007-91.578 32.007-15.263-208.04-274.73-32.007v112.02l-167.89 32.006-15.263-144.03c-170.14-40.953-296.46-219.73-427.36-384.08z" stroke-width="35.2"/>
   <path d="m-9375.9 14585 310.67-540.06 265.04 543.71z" stroke-width="35.2"/>
   <path d="m-8815.9 13808 310.67 540.06 281.04-767.71c-303.9 218.17-303.81 449.37-591.71 227.65z" stroke-width="35.2"/>
   <path d="m-9296.1 13824-310.67 540.06-281.04-767.71c303.9 218.17 303.81 449.37 591.71 227.65z" stroke-width="35.2"/>
  </g>
  <path d="m111.77 125.09c-20.242 28.095-50.844 56.679-23.718 83.955 35.449-19.625 46.596-27.238 93.499-5.6391l0.13615 0.17482c20.389-20.075-7.8655-48.567-28.971-70.311 7.9686 16.477 29.208 27.917 13.053 36.086-10.159-3.9165-15.471-7.026-26.814-7.1588-8.8018-0.1031-23.124 1.1395-34.115 8.0364-17.596-11.457 3.6055-26.995 6.9315-45.142z" filter="url(#j)" opacity=".43902" stroke="#000" stroke-width=".04338"/>
  <path d="m268.53 394.76-48.298-62.405" fill="none" stroke="#000" stroke-width="1.3354"/>
  <g transform="matrix(1.0505 0 0 1.0684 498.4 240.58)" fill="#3139ae" stroke="#000" stroke-width=".94392">
   <path d="m-339.83 23.574 21.087-20.565s26.219-8.9487 33.259-1.6566c9.473 9.8116-11.354 36.82-11.354 36.82 12.937-1.4118 21.093 76.323 29.241 154.2l-70.96 0.41038c-2.6532-228.19-13.539-111.57-17.549-171.65z"/>
   <path d="m-350.14 26.698-26.606-23.689-39.698-3.2185 17.793 38.382c-22.008 31.25-20.419 90.999-30.569 157.32 32.238-1.6855 93.375 8.8042 89.764-5.0564l-2.6874-159.93z"/>
  </g>
  <path d="m56.112 449.3s-11.355 7.0039-19.504 9.0484c-25.518 6.4029-22.956 18.266-6.5012 18.097 19.943-0.20495 67.613-5.4291 67.613-5.4291l4.5508-8.1436 1.6412-14.478z" fill="#2e3436" stroke="#262316"/>
  <path d="m193.07 442.51s10.649 6.169 18.29 7.9698c23.93 5.6397 21.527 16.089 6.0966 15.94-18.702-0.18052-39.747-2.4894-63.405-4.7819-2.9982-0.29053-4.2676-7.1729-4.2676-7.1729l-1.5392-12.752z" fill="#2e3436" stroke="#262316"/>
  <path d="m86.208 211.53c4.1486 22.521-0.12035 52.813 44.543 54.582 50.324 1.9933 49.268-32.855 51.395-57.61 1.4316-16.663-26.554-35.571-26.554-35.571l-53.965 3.7842s-18.147 20.003-15.419 34.814z" fill="#ffdb9d" stroke="#262316"/>
  <path transform="matrix(.39595 0 0 .26998 24.949 181.17)" d="m236.21 157.3c0 6.4159-3.4674 11.617-7.7447 11.617s-7.7447-5.2011-7.7447-11.617 3.4674-11.617 7.7447-11.617 7.7447 5.2011 7.7447 11.617z" fill-opacity=".99216" stroke="#262316" stroke-width="3.0586"/>
  <path d="m126.15 234.76c3.025 1.1744 3.5673 3.9637 8.7529 1.9084s1.1862-1.9084 1.1862-1.9084" fill="#0e232e" stroke="#262316"/>
  <path d="m120.41 243.16s9.0599 8.8061 14.193 8.2829c5.5485-0.56554 14.193-11.964 14.193-11.964s-10.598 5.9876-16.22 6.4422c-4.1037 0.33188-12.165-2.761-12.165-2.761z" fill="#980101" stroke="#262316"/>
  <path transform="matrix(.39595 0 0 .26998 54.827 180.41)" d="m236.21 157.3c0 6.4159-3.4674 11.617-7.7447 11.617s-7.7447-5.2011-7.7447-11.617 3.4674-11.617 7.7447-11.617 7.7447 5.2011 7.7447 11.617z" fill-opacity=".99216" stroke="#262316" stroke-width="3.0586"/>
  <path d="m87.065 208.17c1.7979-7.9425-9.0864-3.4339-11.334 2.4256-2.7876 7.2666 11.115 15.059 11.115 15.059" fill="#ffdb9d" stroke="#262316"/>
  <path d="m180.1 203.47s2.9748 0.47552 5.7561 4.3273c5.0306 6.9666-7.1404 26.431-7.1404 26.431z" fill="#ffdb9d" stroke="#262316"/>
  <path transform="matrix(1.1288 0 0 1.1926 -229.73 75.039)" d="m304.85 140.92c0 3.2765-2.8605 5.9327-6.389 5.9327s-6.389-2.6562-6.389-5.9327 2.8605-5.9327 6.389-5.9327 6.389 2.6562 6.389 5.9327z" fill="#ff794b" filter="url(#b)" opacity=".3561" stroke="#262316" stroke-width=".8619"/>
  <path transform="matrix(1.1288 0 0 1.1926 -175.91 72.904)" d="m304.85 140.92c0 3.2765-2.8605 5.9327-6.389 5.9327s-6.389-2.6562-6.389-5.9327 2.8605-5.9327 6.389-5.9327 6.389 2.6562 6.389 5.9327z" fill="#ff794b" filter="url(#b)" opacity=".3561" stroke="#262316" stroke-width=".8619"/>
  <path d="m65.948 247.5c-18.707-1.4289-35.268 36.297-35.268 36.297l36.717 23.364 14.977-19.609s-2.0067-38.951-16.426-40.052z" fill="#000f70" stroke="#000"/>
  <path d="m202.67 242.07c3.1986-6.077 29.47 34.211 29.47 34.211l-31.403 19.192-17.392-16.688 19.325-36.714z" fill="#00117c" stroke="#000"/>
  <path d="m77.059 255.42-54.109-40.052 69.569 25.032c8.2243 27.482 29.344 19.698 44.447 28.37 15.559-7.1621 34.631-9.3935 40.582-30.039l67.637-33.377-90.826 70.091-52.177 3.3377z" fill="#181c57" stroke="#000"/>
  <path d="m244.98 341.27s3.3568-0.12087 3.0112 2.9394c-1.0433 9.2394-4.3567 21.338-14.126 25.042-3.6584 1.387 3.4626-8.8497-0.50953-8.3346-3.4689 0.44998-1.5298 10.144-8.265 7.2123-3.5324-1.5374 5.603-9.6073 1.6751-9.2637-2.2179 0.19407-3.1753 8.7836-8.1594 8.1006-5.0754-0.69533 3.3972-14.255 0.69197-10.588-2.6441 3.5834-2.4207 9.4634-5.7186 8.0065-8.4354-3.7266 11.144-22.018 11.144-22.018-0.38715-1.7433-9.4893 9.7493-14.601 9.2555-7.1071-0.68664 8.9309-9.7087 10.066-14.955-1.5368-24.775-18.177-40.741-16.731-40.978 5.1261-5.1467 25.056-25.078 25.637-18.309 3.019 9.114 19.718 16.952 15.886 63.891z" fill="#ffdb9d" stroke="#262316"/>
  <g transform="matrix(.25564 -.05915 .0685 .22076 -91.245 132.4)" stroke="#000" stroke-width="4.066">
   <path d="m437.14 426.65-48.571 1251.4h31.429l60-1248.6z" fill="#0e232e"/>
   <path d="m434.29 423.79 2.8572-37.143s-125.71-2.8571-122.86-57.143c9.2204-175.19 22.857-171.43 22.857-171.43l-22.857 2.8571 31.429-37.143 31.429 31.429h-34.286l8.5714 162.86s94.594 56.635 94.286 22.857c-0.28944-31.695 20.538-174.29 25.714-174.29l-31.429-5.7143 37.143-42.857 37.143 40-31.429 5.7143 8.5714 182.86 82.857-14.286 17.143-174.29-25.714 2.8571 28.571-48.571 34.286 45.714-25.714 5.7143 14.286 200-131.43 20-1e-5 45.714z" fill="#b50000"/>
  </g>
  <path d="m35.116 286.3s-32.359 30.386 1.7576 49.493c39.086 21.89 33.69 11.631 33.69 11.631s-1.7996 2.4501 1.4421 3.7217c9.7872 3.8394 23.577 7.4108 32.176 1.9564 3.2201-2.0425-10.606-1.8352-8.1035-4.5484 2.1857-2.3693 10.937 3.9278 11.365-2.575 0.22448-3.4105-12.436-0.61329-10.128-3.3791 1.3036-1.5617 10.396 2.017 12.203-2.0519 1.8404-4.1434-15.994-4.5867-10.965-4.7767 4.9156-0.18573 10.701 2.9213 10.889-0.27356 0.48052-8.1719-27.653-2.6745-27.653-2.6745-1.5547-1.1612 14.522-2.2222 16.582-6.292 2.865-5.6585-14.202 1.8248-20.03 0.0503-5.4497-3.2017-35.196-13.709-23.099-10.832l2.163-15.83z" fill="#ffdb9d" stroke="#262316"/>
  <path d="m218.99 390.19-0.86106-44.652" fill="none" stroke="#000"/>
  <g transform="matrix(.02589 0 0 .02394 478.63 77.494)" stroke="#6c260f" stroke-opacity=".84615">
   <path d="m-9786.7 13003c-560.14 0-934.23 673.31-934.23 1424.9s454.09 1360.9 1014.2 1360.9c47.667 0 94.569-4.413 140.48-12.95-357.44-158.95-619.57-679.9-619.57-1298 0-713.92 173.66-1378.2 615.97-1424.9-98.547-42.842-107.7-49.99-216.88-49.99z" fill="url(#i)" stroke-width="35.2"/>
   <path d="m-10097 14476c0 735.79 265.83 1381.2 795.9 1299.6 48.172-7.411 96.474-6.509 142.93-19.022-313.01-120.58-357.08-659.25-357.08-1305.5 0-662.73 56.243-1212.3 381.14-1313.9-886.84-443.22-1025 1069.9-962.9 1338.8z" fill="url(#h)" stroke-width="35.2"/>
   <path transform="matrix(.98738 0 0 1 -1320.2 -1712)" d="m-7392 16164c0 729.02-193.41 1320-432 1320s-432-590.98-432-1320 193.41-1320 432-1320 432 590.98 432 1320z" fill="url(#g)" stroke-width="35.424"/>
   <path d="m-8292.8 13003c560.14 0 934.23 673.31 934.23 1424.9s-454.09 1360.9-1014.2 1360.9c-47.667 0-94.568-4.413-140.48-12.95 357.44-158.95 619.57-679.9 619.57-1298 0-713.92-173.66-1378.2-615.97-1424.9 98.546-42.842 107.7-49.99 216.88-49.99z" fill="url(#e)" stroke-width="35.2"/>
   <path d="m-7982.3 14476c0 735.79-265.83 1381.2-795.9 1299.6-48.172-7.411-96.474-6.509-142.93-19.022 313.01-120.58 357.08-659.25 357.08-1305.5 0-662.73-56.243-1212.3-381.14-1313.9 886.83-443.22 1025 1069.9 962.89 1338.8z" fill="url(#f)" stroke-width="35.2"/>
   <path d="m-9136 13132s-3.5703-292.74 80-400c76.242-97.855 336-160 336-160v176l-224 112v336z" stroke-width="35.2"/>
   <path d="m-9120 12982h174.08v134.57h-174.08z" fill="#aaa" fill-opacity=".39053" stroke-width="35.2"/>
   <path d="m-10032 14588c29.766 192.24 31.638 388.58 213.68 544.11l412.1 352.07 15.263-160.03h152.63l30.526 208.04 167.89-14.659 167.89 14.659 30.526-208.04h152.63l15.263 160.03 412.1-352.07c182.04-155.53 183.92-351.87 213.68-544.11-130.91 164.35-257.23 343.12-427.36 384.08l-15.263 144.03-167.89-32.006v-112.02l-274.73 32.007-15.263 208.04-91.578-32.007-91.578 32.007-15.263-208.04-274.73-32.007v112.02l-167.89 32.006-15.263-144.03c-170.14-40.953-296.46-219.73-427.36-384.08z" fill="#eeeeec" stroke-width="35.2"/>
   <path d="m-9375.9 14585 310.67-540.06 265.04 543.71z" fill="#eeeeec" stroke-width="35.2"/>
   <path d="m-8815.9 13808 310.67 540.06 281.04-767.71c-303.9 218.17-303.81 449.37-591.71 227.65z" fill="#eeeeec" stroke-width="35.2"/>
   <path d="m-9296.1 13824-310.67 540.06-281.04-767.71c303.9 218.17 303.81 449.37 591.71 227.65z" fill="#eeeeec" stroke-width="35.2"/>
  </g>
  <path d="m111.77 125.09c-20.242 28.095-50.844 56.679-23.718 83.955 35.449-19.625 46.596-27.238 93.499-5.6391l0.13615 0.17482c20.389-20.075-7.8655-48.567-28.971-70.311 7.9686 16.477 29.208 27.917 13.053 36.086-10.159-3.9165-15.471-7.026-26.814-7.1588-8.8018-0.1031-23.124 1.1395-34.115 8.0364-17.596-11.457 3.6055-26.995 6.9315-45.142z" fill="#0e232e" stroke="#000" stroke-width=".04338"/>
 </g>
</svg>
